<?xml version="1.0" standalone="no"?>
<!DOCTYPE svg PUBLIC "-//W3C//DTD SVG 1.1//EN" "http://www.w3.org/Graphics/SVG/1.1/DTD/svg11.dtd" >
<svg xmlns="http://www.w3.org/2000/svg" xmlns:xlink="http://www.w3.org/1999/xlink" version="1.1">
<metadata>
Created by FontForge 20161003 at Tue Aug 22 17:32:44 2017
 By www-data
(c) 2014 Apple Inc. All rights reserved.
</metadata>
<defs>
<font id="SFUIDisplayUltralight" horiz-adv-x="0" >
  <font-face 
    font-family="SFUIDisplayUltralight"
    font-weight="100"
    font-stretch="normal"
    units-per-em="2048"
    panose-1="0 0 2 0 0 0 0 0 0 0"
    ascent="1638"
    descent="-410"
    x-height="1076"
    cap-height="1443"
    bbox="-467 -833 2395 2083"
    underline-thickness="50"
    underline-position="-125"
    unicode-range="U+0020-FB02"
  />
<missing-glyph horiz-adv-x="1293" 
d="M119 1365h1053v-1365h-1053v1365zM533 236q34 -30 87 -30q55 0 89 30q33 29 33 77q0 49 -33 78q-34 30 -89 30q-54 0 -87 -30t-33 -78q0 -47 33 -77zM507 888q1 59 34 95q34 35 91 35q54 0 87 -30t33 -80q0 -38 -20 -66q-21 -27 -83 -72q-128 -90 -118 -221l1 -18h166v15
q0 48 19 76t88 77q133 96 133 218q0 113 -81 182q-81 68 -215 68q-143 0 -225 -76q-83 -76 -79 -203h169z" />
    <glyph glyph-name=".notdef" horiz-adv-x="1293" 
d="M119 1365h1053v-1365h-1053v1365zM533 236q34 -30 87 -30q55 0 89 30q33 29 33 77q0 49 -33 78q-34 30 -89 30q-54 0 -87 -30t-33 -78q0 -47 33 -77zM507 888q1 59 34 95q34 35 91 35q54 0 87 -30t33 -80q0 -38 -20 -66q-21 -27 -83 -72q-128 -90 -118 -221l1 -18h166v15
q0 48 19 76t88 77q133 96 133 218q0 113 -81 182q-81 68 -215 68q-143 0 -225 -76q-83 -76 -79 -203h169z" />
    <glyph glyph-name="glyph1" 
 />
    <glyph glyph-name="glyph2" 
 />
    <glyph glyph-name="space" unicode=" " horiz-adv-x="381" 
 />
    <glyph glyph-name="exclam" unicode="!" horiz-adv-x="500" 
d="M276 1443l-1 -1032h-52l-1 1032h54zM208 7q-17 17 -17 41t17 41q17 16 41 16t41 -16q17 -17 17 -41t-17 -41t-41 -17t-41 17z" />
    <glyph glyph-name="quotedbl" unicode="&#x22;" horiz-adv-x="494" 
d="M98 998v445h48v-445h-48zM345 998v445h49v-445h-49z" />
    <glyph glyph-name="numbersign" unicode="#" horiz-adv-x="1229" 
d="M898 951l-91 -454h269l-9 -46h-269l-95 -451h-49l95 451h-405l-94 -451h-49l96 451h-257l8 46h258l91 454h-244l8 46h244l94 453h48l-94 -453h405l94 453h48l-94 -453h283l-9 -46h-282zM354 496h405l90 455h-404z" />
    <glyph glyph-name="dollar" unicode="$" horiz-adv-x="1179" 
d="M564 -176v156q-202 7 -341 122t-143 280h49q7 -143 133 -245q126 -103 302 -110v696l-5 2q-245 59 -344 140t-99 225q0 157 127 262q126 105 321 111v133h44v-133q184 -7 314 -112q129 -104 134 -248h-50q-5 123 -121 215q-117 92 -277 99v-655l6 -1q261 -60 367 -148
q105 -88 105 -245q0 -162 -135 -271t-343 -117v-156h-44zM941 581q-96 77 -333 133v-687q181 6 305 104q123 98 123 236q0 136 -95 214zM254 897q89 -71 310 -124v644q-171 -5 -285 -98t-114 -227q0 -124 89 -195z" />
    <glyph glyph-name="percent" unicode="%" horiz-adv-x="1395" 
d="M1281 83q-64 -93 -176 -93t-176 93q-63 92 -63 248t63 247q64 94 176 94t176 -93q63 -92 63 -248t-63 -248zM1245 114q50 80 50 217q0 136 -50 217q-51 82 -140 82t-141 -83q-50 -80 -50 -216t50 -217q51 -82 141 -82q89 0 140 82zM464 862q-64 -93 -176 -93t-176 93
q-63 92 -63 248t63 247q64 94 176 94t176 -93q63 -92 63 -248t-63 -248zM428 893q50 80 50 217q0 136 -50 217q-51 82 -140 82t-141 -83q-50 -80 -50 -216t50 -217q51 -82 141 -82q89 0 140 82zM122 0l1081 1443h59l-1081 -1443h-59z" />
    <glyph glyph-name="ampersand" unicode="&#x26;" horiz-adv-x="1375" 
d="M1019 215q-94 -109 -228 -172q-135 -63 -273 -63q-198 0 -323 107q-124 107 -124 274q0 224 273 371l117 62q-132 132 -181 211q-48 79 -48 160q0 125 98 211t240 86q140 0 233 -83q94 -84 94 -211q0 -204 -361 -385l478 -503q140 211 140 433v88h49v-87
q0 -243 -154 -465l244 -249h-65zM120 360q0 -142 110 -237q113 -97 289 -97q122 0 253 62q130 61 211 157l-490 514q-119 -64 -120 -64q-253 -135 -253 -335zM848 1167q0 105 -81 178q-81 72 -198 72q-116 0 -202 -75q-86 -76 -86 -178q0 -71 46 -142q46 -73 178 -206
q343 164 343 351z" />
    <glyph glyph-name="quotesingle" unicode="'" horiz-adv-x="246" 
d="M98 998v445h48v-445h-48z" />
    <glyph glyph-name="parenleft" unicode="(" horiz-adv-x="550" 
d="M414 -251q-268 347 -268 848q0 498 269 846h53q-272 -362 -272 -846q0 -483 272 -848h-54z" />
    <glyph glyph-name="parenright" unicode=")" horiz-adv-x="550" 
d="M81 -251q272 367 272 848q0 482 -272 846h53q268 -348 268 -846q0 -503 -268 -848h-53z" />
    <glyph glyph-name="asterisk" unicode="*" horiz-adv-x="943" 
d="M492 1009l2 -355h-47l2 355l-306 -180l-23 40l308 176l-308 175l23 41l306 -180l-2 356h47l-2 -356l306 180l23 -40l-308 -175l308 -176l-23 -41z" />
    <glyph glyph-name="plus" unicode="+" horiz-adv-x="1178" 
d="M613 37h-49v517h-461v47h461v503h49v-503h460v-47h-460v-517z" />
    <glyph glyph-name="comma" unicode="," horiz-adv-x="490" 
d="M171 -211l56 384h53l-67 -384h-42z" />
    <glyph glyph-name="hyphen" unicode="-" horiz-adv-x="865" 
d="M103 554v47h656v-47h-656z" />
    <glyph glyph-name="period" unicode="." horiz-adv-x="488" 
d="M203 7q-17 17 -17 40q0 24 17 41t40 17q24 0 41 -17q16 -17 16 -41q0 -23 -16 -40q-17 -17 -41 -17q-23 0 -40 17z" />
    <glyph glyph-name="slash" unicode="/" horiz-adv-x="497" 
d="M0 -332l448 1775h49l-449 -1775h-48z" />
    <glyph glyph-name="zero" unicode="0" horiz-adv-x="1181" 
d="M220 180q-136 200 -136 542q0 341 136 541t369 200t369 -200t136 -541q0 -342 -136 -542t-369 -200t-369 200zM922 214q122 188 122 508t-122 507q-123 188 -333 188q-209 0 -332 -188q-123 -187 -123 -507t123 -508q122 -188 332 -188t333 188z" />
    <glyph glyph-name="one" unicode="1" horiz-adv-x="774" 
d="M483 1390h-2q-17 -10 -397 -247v57q297 188 399 250h49v-1450h-49v1390z" />
    <glyph glyph-name="two" unicode="2" horiz-adv-x="1138" 
d="M127 1062q5 175 127 288t307 113q181 0 304 -112t123 -278q0 -113 -64 -221t-242 -296l-476 -505v-4h845v-47h-919v41l514 547q172 181 232 281q60 99 60 203q0 146 -109 246q-109 99 -269 99q-162 0 -270 -100q-109 -101 -113 -255h-50z" />
    <glyph glyph-name="three" unicode="3" horiz-adv-x="1126" 
d="M375 774h158q175 0 284 90q109 91 109 234q0 137 -108 228t-271 91q-154 0 -262 -90q-109 -90 -118 -224h-49q8 155 130 258q122 102 299 102q184 0 307 -103q122 -104 122 -260q0 -134 -82 -226q-83 -92 -227 -119v-4q170 -11 271 -108q101 -98 101 -252
q0 -178 -136 -294q-136 -117 -343 -117q-201 0 -337 109q-137 108 -139 268h50q2 -140 126 -235q123 -96 301 -96q184 0 306 103q122 104 122 262t-121 248q-121 89 -335 89h-158v46z" />
    <glyph glyph-name="four" unicode="4" horiz-adv-x="1164" 
d="M815 379h-748v47q333 501 729 1023l68 1v-1025h237v-46h-237v-379h-49v379zM127 425h688v965h-2q-342 -446 -686 -962v-3z" />
    <glyph glyph-name="five" unicode="5" horiz-adv-x="1163" 
d="M275 83q-132 103 -150 258h50q18 -135 137 -225q118 -90 278 -90q189 0 315 123q125 123 125 308q0 184 -123 308q-123 125 -305 125q-126 0 -232 -60q-106 -61 -168 -168h-54l89 781h747v-47h-704l-74 -659h2q62 92 168 145q106 54 227 54q204 0 341 -137
q136 -137 136 -341q0 -206 -140 -342t-351 -136q-182 0 -314 103z" />
    <glyph glyph-name="six" unicode="6" horiz-adv-x="1166" 
d="M238 149q-149 179 -149 531q0 359 142 571t383 212q172 0 293 -97q122 -97 145 -254h-50q-22 133 -131 219t-257 86q-231 0 -358 -220q-126 -220 -118 -607h4q35 155 166 254q132 100 301 100q204 0 342 -137q137 -136 137 -338q0 -209 -137 -349q-138 -140 -343 -140
q-232 0 -370 169zM914 154q124 127 124 315q0 182 -124 305q-125 124 -308 124q-176 0 -307 -123q-131 -122 -131 -288q0 -195 127 -328q126 -133 313 -133q182 0 306 128z" />
    <glyph glyph-name="seven" unicode="7" horiz-adv-x="1074" 
d="M940 1394v2h-857v47h910v-50l-698 -1393h-56z" />
    <glyph glyph-name="eight" unicode="8" horiz-adv-x="1178" 
d="M228 97q-135 116 -135 298q0 140 96 243q95 102 248 129v2q-133 28 -212 114q-81 88 -81 209q0 163 124 267t319 104q196 0 320 -104t124 -267q0 -117 -82 -206q-80 -87 -210 -117v-2q152 -27 248 -129q96 -104 96 -243q0 -183 -135 -298q-138 -117 -361 -117
q-222 0 -359 117zM912 132q121 103 121 263q0 152 -122 248q-123 98 -323 98q-199 0 -323 -98q-122 -96 -122 -248q0 -160 120 -263q124 -106 324 -106t325 106zM870 874q111 86 111 217q0 140 -106 232q-110 94 -287 94q-176 0 -287 -94q-107 -92 -107 -232
q0 -131 111 -217q111 -85 282 -85q172 0 283 85z" />
    <glyph glyph-name="nine" unicode="9" horiz-adv-x="1166" 
d="M253 79q-118 96 -141 251h50q22 -132 124 -216q107 -88 264 -88q220 0 346 197q122 192 130 531q1 33 -1 99h-2q-33 -150 -166 -251q-134 -103 -302 -103q-207 0 -343 135q-136 133 -136 333q0 213 136 354q136 142 343 142q230 0 370 -172q149 -178 149 -528
q0 -359 -139 -570q-141 -213 -385 -213q-177 0 -297 99zM866 670q130 123 130 286q0 193 -126 327q-127 134 -315 134q-184 0 -307 -129q-122 -129 -122 -321q0 -176 121 -298q123 -124 310 -124q178 0 309 125z" />
    <glyph glyph-name="colon" unicode=":" horiz-adv-x="488" 
d="M203 7q-17 17 -17 40q0 24 17 41t40 17q24 0 41 -17q16 -17 16 -41q0 -23 -16 -40q-17 -17 -41 -17q-23 0 -40 17zM203 787q-17 17 -17 40q0 24 17 41q17 16 40 16q24 0 41 -16q16 -17 16 -41q0 -23 -16 -40q-17 -17 -41 -17q-23 0 -40 17z" />
    <glyph glyph-name="semicolon" unicode=";" horiz-adv-x="488" 
d="M203 787q-17 17 -17 40q0 24 17 41q17 16 40 16q24 0 41 -16q16 -17 16 -41q0 -23 -16 -40q-17 -17 -41 -17q-23 0 -40 17zM162 -211l56 384h53l-68 -384h-41z" />
    <glyph glyph-name="less" unicode="&#x3c;" horiz-adv-x="1179" 
d="M250 535v-5l736 -537v-56l-796 573v44l796 576v-56z" />
    <glyph glyph-name="equal" unicode="=" horiz-adv-x="1179" 
d="M105 368v46h967v-46h-967zM105 741v46h967v-46h-967z" />
    <glyph glyph-name="greater" unicode="&#x3e;" horiz-adv-x="1179" 
d="M190 1130l796 -575v-45l-796 -573v56l737 537v5l-737 539v56z" />
    <glyph glyph-name="question" unicode="?" horiz-adv-x="911" 
d="M61 1105q10 154 118 255q109 101 267 101q164 0 273 -100t109 -250q0 -99 -49 -175q-49 -77 -166 -160q-105 -75 -141 -133q-37 -58 -37 -149v-97h-49v99q0 99 41 165q40 66 151 148q199 148 199 300q0 133 -96 220q-95 86 -235 86q-136 0 -229 -85q-95 -86 -108 -225
h-48zM373 7q-17 17 -17 41t17 41q17 16 40 16q25 0 41 -16q17 -17 17 -41t-17 -41q-16 -17 -41 -17q-23 0 -40 17z" />
    <glyph glyph-name="at" unicode="@" horiz-adv-x="1727" 
d="M640 859q-88 -108 -88 -268q0 -164 85 -267q84 -103 219 -103q127 0 203 105q77 105 77 278q0 168 -75 266t-205 98q-129 0 -216 -109zM1456 1220q222 -212 222 -547q0 -238 -79 -369t-222 -131q-103 0 -167 57q-65 57 -73 157h-4q-81 -211 -278 -211q-155 0 -253 116
t-98 300q0 185 98 303q99 118 253 118q95 0 172 -55q77 -56 105 -145h4v178h48v-551q0 -223 195 -223q120 0 186 119t66 338q0 315 -210 514q-209 199 -541 199t-551 -221q-218 -220 -218 -557q0 -352 214 -573q214 -220 552 -220q212 0 326 35v-46q-106 -33 -326 -33
q-359 0 -586 233t-227 604q0 358 231 590t587 232q352 0 574 -211z" />
    <glyph glyph-name="A" unicode="A" horiz-adv-x="1201" 
d="M935 501h-671l-190 -501h-55l555 1443h51l555 -1443h-56zM282 547h635l-315 827h-5z" />
    <glyph glyph-name="B" unicode="B" horiz-adv-x="1139" 
d="M123 0v1443h464q188 0 305 -96q117 -97 117 -253q0 -133 -79 -226q-78 -92 -214 -119v-4q161 -16 262 -111q108 -100 108 -255q0 -174 -130 -276q-130 -103 -355 -103h-478zM173 765h401q174 0 279 89q106 90 106 239q0 137 -103 221q-103 83 -273 83h-410v-632zM599 46
q204 0 321 91q117 90 117 243q0 157 -122 248q-124 91 -338 91h-404v-673h426z" />
    <glyph glyph-name="C" unicode="C" horiz-adv-x="1303" 
d="M233 184q-171 204 -171 548q0 337 170 534q169 197 459 197q215 0 377 -140q162 -141 181 -344h-49q-20 184 -166 310q-148 127 -343 127q-266 0 -423 -184q-156 -185 -156 -500q0 -324 158 -515q157 -190 421 -190q203 0 346 114q145 116 163 299h49q-17 -203 -175 -332
q-156 -128 -383 -128q-287 0 -458 204z" />
    <glyph glyph-name="D" unicode="D" horiz-adv-x="1313" 
d="M559 1443q330 0 510 -188t180 -533q0 -346 -180 -534t-510 -188h-436v1443h436zM174 47h384q308 0 475 175q166 175 166 500q0 324 -166 499q-167 175 -475 175h-384v-1349z" />
    <glyph glyph-name="E" unicode="E" horiz-adv-x="1050" 
d="M949 0h-826v1443h826v-47h-776v-632h740v-46h-740v-671h776v-47z" />
    <glyph glyph-name="F" unicode="F" horiz-adv-x="1020" 
d="M123 0v1443h817v-47h-767v-634h706v-47h-706v-715h-50z" />
    <glyph glyph-name="G" unicode="G" horiz-adv-x="1332" 
d="M1258 564q0 -272 -153 -428q-154 -156 -421 -156q-276 0 -449 209q-173 208 -173 542q0 329 171 531q171 201 451 201q213 0 369 -118q155 -118 195 -309h-49q-42 172 -183 276t-332 104q-258 0 -415 -188t-157 -497q0 -313 159 -509q159 -195 413 -195q244 0 385 143
q140 143 140 392v100h-531v46h580v-144z" />
    <glyph glyph-name="H" unicode="H" horiz-adv-x="1296" 
d="M1121 0v718h-948v-718h-50v1443h50v-678h948v678h50v-1443h-50z" />
    <glyph glyph-name="I" unicode="I" horiz-adv-x="298" 
d="M123 0v1443h50v-1443h-50z" />
    <glyph glyph-name="J" unicode="J" horiz-adv-x="933" 
d="M89 315q7 -128 98 -209q92 -80 230 -80q159 0 250 95t91 263v1059h50v-1062q0 -185 -104 -293q-105 -109 -287 -109q-160 0 -266 94t-111 242h49z" />
    <glyph glyph-name="K" unicode="K" horiz-adv-x="1107" 
d="M123 0v1443h50v-836h4l784 836h64l-594 -635l664 -808h-64l-636 773l-222 -237v-536h-50z" />
    <glyph glyph-name="L" unicode="L" horiz-adv-x="1009" 
d="M948 0h-825v1443h50v-1396h775v-47z" />
    <glyph glyph-name="M" unicode="M" horiz-adv-x="1576" 
d="M1450 0h-49v1328h-4l-584 -1327h-53l-584 1327h-4v-1328h-49v1443h53l609 -1380h4l606 1380h55v-1443z" />
    <glyph glyph-name="N" unicode="N" horiz-adv-x="1315" 
d="M123 0v1443h55l958 -1348h4v1348h50v-1443h-46l-967 1359h-4v-1359h-50z" />
    <glyph glyph-name="O" unicode="O" horiz-adv-x="1398" 
d="M1162 1262q172 -200 172 -540q0 -341 -172 -542q-172 -200 -464 -200t-464 200q-172 201 -172 542q0 340 172 540q172 201 464 201q291 0 464 -201zM271 1228q-159 -187 -159 -506q0 -318 159 -507q159 -188 427 -188q267 0 427 188q159 189 159 507t-159 506t-427 188
q-269 0 -427 -188z" />
    <glyph glyph-name="P" unicode="P" horiz-adv-x="1087" 
d="M571 1443q212 0 338 -114q125 -114 125 -307t-126 -307t-338 -114h-397v-601h-50v1443h448zM173 648h394q192 0 304 100q113 101 113 274q0 174 -112 274q-113 100 -305 100h-394v-748z" />
    <glyph glyph-name="Q" unicode="Q" horiz-adv-x="1398" 
d="M1155 -182l-166 227q-130 -65 -291 -65q-293 0 -465 200q-171 201 -171 542q0 340 172 540q172 201 464 201q291 0 464 -201q172 -200 172 -540q0 -464 -303 -654l183 -250h-59zM961 85l-201 275h59l183 -252q281 174 281 614q0 317 -159 506q-159 188 -426 188
q-268 0 -427 -188q-159 -189 -159 -506q0 -318 159 -506q159 -189 427 -189q145 0 263 58z" />
    <glyph glyph-name="R" unicode="R" horiz-adv-x="1124" 
d="M173 676h397q193 0 303 96q111 97 111 264q0 170 -110 265t-305 95h-396v-720zM173 0h-50v1443h448q216 0 340 -109q124 -108 124 -298q0 -158 -92 -262q-92 -106 -255 -134l381 -640h-57l-376 632q-36 -2 -66 -2h-397v-630z" />
    <glyph glyph-name="S" unicode="S" horiz-adv-x="1114" 
d="M101 382q8 -156 140 -256q131 -100 329 -100q193 0 317 100q122 99 122 251q0 120 -85 193t-277 121l-167 42q-202 50 -295 134q-94 83 -94 215q0 163 136 273q134 108 325 108q200 0 337 -104q135 -103 142 -257h-50q-7 135 -129 225t-300 90q-172 0 -290 -94
q-121 -97 -121 -241q0 -114 86 -186q84 -70 269 -116l165 -41q207 -52 301 -135q97 -86 97 -225q0 -175 -136 -286q-137 -113 -355 -113q-219 0 -364 113t-153 289h50z" />
    <glyph glyph-name="T" unicode="T" horiz-adv-x="1117" 
d="M534 0v1396h-521v47h1091v-47h-521v-1396h-49z" />
    <glyph glyph-name="U" unicode="U" horiz-adv-x="1307" 
d="M173 500q0 -218 130 -346q129 -127 349 -127q221 0 350 127q130 128 130 346v943h50v-944q0 -237 -143 -378q-144 -141 -387 -141t-386 141t-143 378v944h50v-943z" />
    <glyph glyph-name="V" unicode="V" horiz-adv-x="1203" 
d="M575 0l-556 1443h55l524 -1372h4l525 1372h54l-555 -1443h-51z" />
    <glyph glyph-name="W" unicode="W" horiz-adv-x="1777" 
d="M487 0h-41l-406 1443h52l374 -1344h4l396 1344h43l395 -1344h5l374 1344h51l-406 -1443h-40l-398 1338h-5z" />
    <glyph glyph-name="X" unicode="X" horiz-adv-x="1190" 
d="M41 1443h60l493 -680h1l494 680h59l-523 -721l522 -722h-60l-492 680h-1l-495 -680h-59z" />
    <glyph glyph-name="Y" unicode="Y" horiz-adv-x="1148" 
d="M549 0v631l-529 812h60l492 -758h4l491 758h59l-527 -812v-631h-50z" />
    <glyph glyph-name="Z" unicode="Z" horiz-adv-x="1147" 
d="M63 42l954 1350v4h-925v47h989v-43l-953 -1349v-4h954v-47h-1019v42z" />
    <glyph glyph-name="bracketleft" unicode="[" horiz-adv-x="556" 
d="M494 1443v-45h-297v-1589h312v-44h-361v1678h346z" />
    <glyph glyph-name="backslash" unicode="\" horiz-adv-x="497" 
d="M0 1443h49l448 -1775h-48z" />
    <glyph glyph-name="bracketright" unicode="]" horiz-adv-x="556" 
d="M406 -235h-361v44h312v1589h-297v45h346v-1678z" />
    <glyph glyph-name="asciicircum" unicode="^" horiz-adv-x="749" 
d="M106 825h-55l302 596h41l302 -596h-55l-266 530h-3z" />
    <glyph glyph-name="underscore" unicode="_" horiz-adv-x="801" 
d="M-66 -196v44h933v-44h-933z" />
    <glyph glyph-name="grave" unicode="`" horiz-adv-x="686" 
d="M455 1254l-246 303h63l236 -303h-53z" />
    <glyph glyph-name="a" unicode="a" horiz-adv-x="1021" 
d="M738 138q120 107 120 258v182l-381 -29q-338 -26 -338 -263q0 -111 88 -183q87 -73 221 -73q169 0 290 108zM189 69q-100 84 -100 217q0 276 380 306l389 30v97q0 153 -86 240q-87 87 -239 87q-151 0 -244 -74t-114 -209h-47q17 153 126 241t279 88q173 0 274 -99
q100 -100 100 -271v-722h-49v245h-1q-39 -116 -153 -188q-115 -73 -259 -73q-157 0 -256 85z" />
    <glyph glyph-name="b" unicode="b" horiz-adv-x="1116" 
d="M334 75q-115 91 -154 244h-2v-319h-49v1506h49v-745h2q38 150 151 240q114 91 267 91q200 0 326 -153q126 -154 126 -400t-126 -401q-126 -154 -325 -154q-151 0 -265 91zM295 903q-117 -143 -117 -366q0 -222 116 -364q117 -142 299 -142q181 0 295 141q113 141 113 367
q0 225 -113 366t-294 141q-182 0 -299 -143z" />
    <glyph glyph-name="c" unicode="c" horiz-adv-x="1019" 
d="M907 760q-26 126 -127 205q-104 81 -247 81q-193 0 -306 -138q-113 -137 -113 -370t112 -370q113 -137 307 -137q145 0 247 77q100 75 125 199h50q-26 -145 -140 -233q-116 -90 -282 -90q-215 0 -342 150q-127 149 -127 404q0 254 127 404t342 150q163 0 281 -94
q116 -93 143 -238h-50z" />
    <glyph glyph-name="d" unicode="d" horiz-adv-x="1126" 
d="M193 138q-129 155 -129 400q0 246 129 400q128 154 330 154q156 0 274 -97q114 -93 146 -234h2v745h50v-1506h-46v322h-2q-35 -146 -149 -240q-119 -98 -275 -98q-202 0 -330 154zM229 905q-115 -141 -115 -366q0 -226 115 -367t296 -141q184 0 302 141q118 142 118 366
t-118 366t-302 142q-181 0 -296 -141z" />
    <glyph glyph-name="e" unicode="e" horiz-adv-x="1056" 
d="M238 918q-114 -127 -123 -337h825q0 207 -112 336q-113 129 -296 129q-180 0 -294 -128zM976 299q-28 -140 -141 -225q-119 -90 -295 -90q-219 0 -346 146q-130 148 -130 408q0 250 128 402t340 152q205 0 332 -143q126 -143 126 -375v-38h-876v-2q0 -237 117 -372
q115 -132 310 -132q156 0 261 78q98 72 123 191h51z" />
    <glyph glyph-name="f" unicode="f" horiz-adv-x="509" 
d="M169 1031h-150v45h150v169q0 240 223 240q47 0 74 -10v-46q-30 10 -73 10q-174 0 -174 -201v-162h237v-45h-237v-1031h-50v1031z" />
    <glyph glyph-name="g" unicode="g" horiz-adv-x="1106" 
d="M820 172q116 142 116 366t-116 366t-300 142q-181 0 -293 -141q-113 -141 -113 -368q0 -225 113 -365q112 -141 293 -141q184 0 300 141zM263 -289q-109 63 -133 168h53q21 -83 117 -134q99 -53 244 -53q175 0 282 81q110 83 110 225v318h-2q-33 -142 -144 -234
q-117 -97 -272 -97q-202 0 -328 154q-126 153 -126 399t127 400q126 154 327 154q156 0 273 -98q111 -93 146 -239h2v321h46v-1076q0 -165 -125 -261q-121 -93 -319 -93q-167 0 -278 65z" />
    <glyph glyph-name="h" unicode="h" horiz-adv-x="1075" 
d="M129 1506h49v-684h2q35 120 139 195q105 75 244 75q178 0 288 -108q110 -109 110 -289v-695h-50v693q0 163 -98 259q-97 94 -256 94q-166 0 -272 -112q-107 -112 -107 -289v-645h-49v1506z" />
    <glyph glyph-name="i" unicode="i" horiz-adv-x="309" 
d="M129 1076h49v-1076h-49v1076zM119 1380q-14 14 -14 34t14 34q15 14 35 14t34 -14t14 -34q0 -19 -14 -34q-14 -14 -34 -14t-35 14z" />
    <glyph glyph-name="j" unicode="j" horiz-adv-x="309" 
d="M179 -80q0 -139 -67 -202q-63 -60 -196 -60h-29v45h27q113 0 164 50q52 50 52 163v1160h49v-1156zM120 1380q-14 14 -14 34t14 34q15 14 35 14t34 -14t14 -34q0 -19 -14 -34q-14 -14 -34 -14t-35 14z" />
    <glyph glyph-name="k" unicode="k" horiz-adv-x="913" 
d="M825 1076h70l-517 -463l519 -613h-65l-493 583l-161 -142v-441h-49v1506h49v-1003h2z" />
    <glyph glyph-name="l" unicode="l" horiz-adv-x="309" 
d="M129 1506h49v-1506h-49v1506z" />
    <glyph glyph-name="m" unicode="m" horiz-adv-x="1628" 
d="M119 1076h46v-254h2q29 119 113 192q89 78 217 78q129 0 221 -80q87 -76 109 -191h2q25 113 114 189q97 82 229 82q154 0 248 -101t94 -270v-721h-49v710q0 156 -81 246q-80 90 -219 90q-145 0 -235 -106q-89 -106 -89 -276v-664h-49v708q0 151 -85 245q-83 93 -214 93
q-145 0 -234 -112q-91 -113 -91 -301v-633h-49v1076z" />
    <glyph glyph-name="n" unicode="n" horiz-adv-x="1063" 
d="M119 1076h46v-254h2q35 121 138 195q105 75 244 75q179 0 289 -107q111 -109 111 -289v-696h-49v694q0 161 -100 258q-98 94 -258 94q-165 0 -269 -112q-105 -112 -105 -288v-646h-49v1076z" />
    <glyph glyph-name="o" unicode="o" horiz-adv-x="1078" 
d="M195 134q-131 151 -131 404t131 405q130 149 343 149t343 -149q131 -152 131 -405t-131 -404q-130 -150 -343 -150q-214 0 -343 150zM846 168q117 138 117 370q0 233 -117 371q-116 137 -308 137t-307 -137q-117 -138 -117 -371t117 -370q115 -137 307 -137t308 137z" />
    <glyph glyph-name="p" unicode="p" horiz-adv-x="1106" 
d="M914 938q126 -154 126 -400q0 -247 -126 -400q-126 -154 -328 -154q-155 0 -272 97q-111 92 -144 234h-2v-655h-49v1416h46v-321h2q34 145 146 239q117 98 273 98q201 0 328 -154zM878 172q113 140 113 365q0 226 -113 367q-114 142 -295 142q-183 0 -299 -142t-116 -366
t116 -366q116 -141 299 -141q181 0 295 141z" />
    <glyph glyph-name="q" unicode="q" horiz-adv-x="1116" 
d="M798 994q114 -94 149 -239h2v321h46v-1416h-50v655h-2q-32 -141 -146 -234q-119 -97 -274 -97q-202 0 -330 154q-129 154 -129 400q0 245 129 400q128 154 330 154q156 0 275 -98zM827 172q118 142 118 366t-118 366t-302 142q-181 0 -296 -142t-115 -367
q0 -224 115 -365t296 -141q184 0 302 141z" />
    <glyph glyph-name="r" unicode="r" horiz-adv-x="603" 
d="M119 1076h46v-223h2q72 239 297 239q59 0 108 -21v-51q-50 25 -116 25q-132 0 -211 -106q-77 -103 -77 -269v-670h-49v1076z" />
    <glyph glyph-name="s" unicode="s" horiz-adv-x="905" 
d="M197 1013q104 79 256 79q161 0 263 -89q101 -88 115 -239h-48q-14 126 -99 203q-90 79 -231 79q-129 0 -219 -66q-94 -68 -94 -171q0 -85 58 -135q56 -47 181 -76l167 -40q160 -39 231 -104q71 -66 71 -175q0 -131 -110 -213t-281 -82q-169 0 -283 94q-111 91 -119 226
h50q10 -115 108 -194q100 -80 243 -80q145 0 242 68q100 69 100 178q0 93 -62 148t-205 89l-169 39q-138 33 -203 92q-68 63 -68 164q0 124 106 205z" />
    <glyph glyph-name="t" unicode="t" horiz-adv-x="527" 
d="M228 1364v-288h228v-45h-228v-796q0 -102 39 -146q38 -44 124 -44l83 1v-46l-86 -1q-110 0 -159 55q-50 55 -50 180v797h-160v45h160v288h49z" />
    <glyph glyph-name="u" unicode="u" horiz-adv-x="1063" 
d="M943 0h-46v251h-2q-33 -114 -142 -190q-112 -77 -248 -77q-175 0 -283 106q-110 107 -110 285v701h49v-694q0 -164 98 -259q95 -92 252 -92q163 0 271 107q111 111 111 289v649h50v-1076z" />
    <glyph glyph-name="v" unicode="v" horiz-adv-x="888" 
d="M478 0h-68l-408 1076h53l388 -1028h2l388 1028h53z" />
    <glyph glyph-name="w" unicode="w" horiz-adv-x="1406" 
d="M1087 0h-66l-317 1016h-2l-317 -1016h-66l-317 1076h55l294 -1021h2l317 1021h66l317 -1021h2l294 1021h55z" />
    <glyph glyph-name="x" unicode="x" horiz-adv-x="869" 
d="M433 506l-370 -506h-61l403 548l-402 528h62l369 -489h2l369 489h62l-402 -527l401 -549h-60l-370 506h-3z" />
    <glyph glyph-name="y" unicode="y" horiz-adv-x="888" 
d="M131 -334v47q23 -9 53 -9q70 0 116 47q45 45 89 158l28 72l-415 1095h54l387 -1029h2l388 1029h54l-417 -1101q-74 -195 -130 -256q-56 -62 -162 -62q-26 0 -47 9z" />
    <glyph glyph-name="z" unicode="z" horiz-adv-x="910" 
d="M57 47l734 982v2h-734v45h794v-47l-736 -982v-2h736v-45h-794v47z" />
    <glyph glyph-name="braceleft" unicode="{" horiz-adv-x="682" 
d="M145 620q87 -8 127 -63q39 -54 39 -165v-412q0 -242 255 -242h71v-45h-48q-176 0 -252 72q-75 73 -75 243v349q0 126 -39 176t-135 50v91q96 0 135 51t39 178v292q0 167 74 236q75 70 253 70h48v-46h-71q-132 0 -193 -59q-62 -58 -62 -182v-347q0 -110 -39 -164
q-40 -55 -127 -63v-20z" />
    <glyph glyph-name="bar" unicode="|" horiz-adv-x="329" 
d="M140 -332v1775h47v-1775h-47z" />
    <glyph glyph-name="braceright" unicode="}" horiz-adv-x="683" 
d="M535 640q-87 8 -126 63q-40 54 -40 164v347q0 124 -62 182q-62 59 -193 59h-71v46h48q178 0 253 -70q74 -69 74 -236v-292q0 -127 39 -178t135 -51v-91q-96 0 -135 -50t-39 -176v-349q0 -170 -75 -243q-76 -72 -252 -72h-48v45h71q255 0 255 242v412q0 111 40 165
q39 55 126 63v20z" />
    <glyph glyph-name="asciitilde" unicode="~" horiz-adv-x="1179" 
d="M361 791q-75 0 -122 -64q-48 -64 -50 -167h-48q0 125 61 201q60 77 159 77q91 0 229 -124q124 -113 212 -113q75 0 128 70t57 174h49q0 -122 -68 -206q-69 -85 -167 -85q-64 0 -112 25q-48 24 -130 99q-123 113 -198 113z" />
    <glyph glyph-name="uni00A0" unicode="&#xa0;" horiz-adv-x="381" 
 />
    <glyph glyph-name="exclamdown" unicode="&#xa1;" horiz-adv-x="500" 
d="M223 695h52l1 -1031h-54zM208 1018q-17 17 -17 41t17 41t41 17t41 -17t17 -41t-17 -41q-17 -18 -41 -18t-41 18z" />
    <glyph glyph-name="cent" unicode="&#xa2;" horiz-adv-x="1179" 
d="M1070 461q-23 -142 -148 -231q-120 -86 -286 -93v-224h-49v225q-211 8 -343 154q-139 151 -139 400q0 247 139 399q133 146 343 154v207h49v-207q165 -7 286 -95q125 -93 150 -237h-50q-26 129 -144 210q-115 77 -268 77q-197 0 -324 -135q-132 -140 -132 -373
q0 -234 132 -375q126 -135 324 -135q153 0 267 74q120 77 143 205h50z" />
    <glyph glyph-name="sterling" unicode="&#xa3;" horiz-adv-x="1179" 
d="M1122 46v-46h-1066v48q369 95 369 358q0 105 -68 284h-257v46h240q-86 222 -86 358q0 171 116 274q119 105 329 105q211 0 326 -60v-49q-114 63 -324 63q-190 0 -296 -94q-101 -90 -101 -240q0 -124 88 -357h468v-46h-451q64 -168 64 -284q0 -147 -102 -245
q-78 -76 -199 -111v-4h950z" />
    <glyph glyph-name="currency" unicode="&#xa4;" horiz-adv-x="1179" 
d="M356 422q96 -97 232 -97q137 0 234 98q96 96 96 232q0 137 -96 234q-97 97 -234 97q-136 0 -232 -97q-97 -97 -97 -234q0 -136 97 -233zM871 903q93 -106 93 -248t-95 -248l169 -167l-35 -34l-167 168q-106 -95 -248 -95q-140 0 -247 94l-168 -167l-34 34l167 168
q-93 106 -93 247q0 143 94 248l-168 167l34 34l167 -167q107 94 248 94q142 0 248 -93l167 166l35 -34z" />
    <glyph glyph-name="yen" unicode="&#xa5;" horiz-adv-x="1179" 
d="M614 391v-391h-50v391h-359v45h359v220h-359v44h331l-500 743h60l491 -730h4l491 730h59l-499 -743h330v-44h-358v-220h358v-45h-358z" />
    <glyph glyph-name="brokenbar" unicode="&#xa6;" horiz-adv-x="329" 
d="M140 746v697h47v-697h-47zM140 -332v703h47v-703h-47z" />
    <glyph glyph-name="section" unicode="&#xa7;" horiz-adv-x="943" 
d="M499 323q139 2 226 72q88 69 88 176q0 94 -70 153q-69 57 -223 92l-77 17q-139 -1 -226 -71q-88 -69 -88 -176q0 -94 70 -152q70 -59 223 -94zM213 -163q-105 72 -118 189h49q15 -97 107 -156q91 -59 226 -59q134 0 222 65q88 64 88 164q0 171 -270 230l-106 24
q-172 39 -252 108q-81 70 -81 179q0 106 74 179t204 95v3q-250 67 -250 258q0 120 102 198q101 77 257 77q158 0 263 -71t119 -189h-50q-14 97 -106 156q-91 59 -226 59q-134 0 -221 -65q-88 -65 -88 -164q0 -171 270 -230l106 -25q171 -38 251 -107t80 -179
q0 -106 -75 -180q-74 -73 -205 -95v-3q253 -65 253 -257q0 -120 -101 -198q-102 -78 -258 -78q-159 0 -264 72z" />
    <glyph glyph-name="dieresis" unicode="&#xa8;" horiz-adv-x="686" 
d="M164 1270q-16 16 -16 38t16 37q16 16 39 16q22 0 38 -16q16 -15 16 -37t-16 -38t-38 -16t-39 16zM443 1270q-16 16 -16 38t16 37q16 16 38 16q23 0 39 -16q16 -15 16 -37t-16 -38q-17 -16 -39 -16t-38 16z" />
    <glyph glyph-name="copyright" unicode="&#xa9;" horiz-adv-x="1739" 
d="M327 81q-221 220 -221 545q0 326 221 546q219 218 542 218q324 0 543 -218q220 -219 220 -546q0 -325 -220 -545q-220 -219 -543 -219t-542 219zM1378 113q207 206 207 513q0 308 -207 514q-205 204 -509 204q-303 0 -509 -204q-207 -206 -207 -514q0 -307 207 -513
q206 -205 509 -205t509 205zM1166 803q-26 95 -103 153q-83 62 -201 62q-152 0 -247 -102q-99 -105 -99 -283q0 -179 98 -287q96 -104 248 -104q124 0 206 59q75 55 96 145h48q-24 -112 -114 -179q-94 -69 -236 -69q-172 0 -281 116q-112 120 -112 319q0 198 112 315
q108 114 281 114q139 0 238 -78q92 -72 113 -181h-47z" />
    <glyph glyph-name="ordfeminine" unicode="&#xaa;" horiz-adv-x="877" 
d="M226 671q67 -56 175 -56q130 0 223 82q93 81 93 196v151l-294 -25q-265 -22 -265 -202q0 -90 68 -146zM190 640q-79 67 -79 176q0 218 302 243l303 24v88q0 111 -70 177q-70 65 -190 65q-113 0 -183 -53q-65 -48 -82 -129h-46q16 99 93 158q84 65 219 65q142 0 224 -76
q83 -76 83 -206v-594h-45v193h-5q-31 -87 -120 -142q-89 -56 -198 -56q-128 0 -206 67z" />
    <glyph glyph-name="guillemotleft" unicode="&#xab;" horiz-adv-x="1150" 
d="M622 565l369 -407h-62l-377 408v4l377 408h62l-369 -407v-6zM226 565l370 -407h-63l-376 408v4l376 408h63l-370 -407v-6z" />
    <glyph glyph-name="logicalnot" unicode="&#xac;" horiz-adv-x="1179" 
d="M1071 183h-48v494h-917v46h965v-540z" />
    <glyph glyph-name="registered" unicode="&#xae;" horiz-adv-x="1247" 
d="M271 608q-145 144 -145 351q0 208 145 352q144 144 351 144q208 0 353 -144q144 -144 144 -352q0 -207 -144 -351q-145 -145 -353 -145q-207 0 -351 145zM944 638q131 131 131 321t-131 321t-322 131q-190 0 -321 -131t-131 -321t131 -321t321 -131t322 131zM436 706v541
h197q77 0 125 -43q50 -44 50 -121q0 -65 -40 -109q-37 -41 -90 -47l157 -221h-53l-153 215h-149v-215h-44zM480 961h140q70 0 109 35q36 33 36 88t-38 88q-39 34 -107 34h-140v-245z" />
    <glyph glyph-name="macron" unicode="&#xaf;" horiz-adv-x="814" 
d="M698 1305h-584v43h584v-43z" />
    <glyph glyph-name="degree" unicode="&#xb0;" horiz-adv-x="550" 
d="M130 1098q-60 59 -60 144q0 84 60 144q59 60 143 60q85 0 145 -60t60 -144t-60 -144q-61 -60 -145 -60t-143 60zM389 1126q48 48 48 116t-48 115q-48 48 -116 48q-67 0 -115 -48t-48 -115q0 -68 48 -116t115 -48q68 0 116 48z" />
    <glyph glyph-name="plusminus" unicode="&#xb1;" horiz-adv-x="1179" 
d="M103 113v46h970v-46h-970zM612 321h-47v367h-462v45h462v344h47v-344h461v-45h-461v-367z" />
    <glyph glyph-name="uni00B2" unicode="&#xb2;" horiz-adv-x="550" 
d="M67 1588q1 83 60 137q58 54 146 54q89 0 146 -51q58 -51 58 -130q0 -89 -138 -232l-202 -215v-2h362v-42h-430v35l239 253q121 129 121 200q0 62 -44 102q-45 40 -113 40q-67 0 -112 -42q-44 -42 -46 -107v-1h-47v1z" />
    <glyph glyph-name="uni00B3" unicode="&#xb3;" horiz-adv-x="552" 
d="M188 1470h76q71 0 115 38q45 38 45 98q0 55 -44 93q-45 38 -112 38q-66 0 -110 -37t-48 -94h-46q4 76 61 124q58 49 145 49q86 0 144 -48q58 -49 58 -121q0 -61 -37 -103t-102 -54v-2q77 -4 123 -49q45 -45 45 -114q0 -82 -65 -137q-66 -54 -165 -54q-96 0 -159 52
q-61 50 -63 127h47q2 -58 51 -97q49 -40 124 -40q78 0 129 43q51 42 51 106q0 66 -49 104q-50 38 -137 38h-77v40z" />
    <glyph glyph-name="acute" unicode="&#xb4;" horiz-adv-x="686" 
d="M176 1254l236 303h63l-246 -303h-53z" />
    <glyph glyph-name="paragraph" unicode="&#xb6;" horiz-adv-x="1155" 
d="M682 -146v721h-20q-210 0 -343 123q-131 122 -131 309q0 197 128 316q129 120 347 120h69v-1589h-50zM914 1443h50v-1589h-50v1589z" />
    <glyph glyph-name="periodcentered" unicode="&#xb7;" horiz-adv-x="488" 
d="M203 555q-17 17 -17 40q0 24 17 41t40 17q24 0 41 -17q16 -17 16 -41q0 -23 -16 -40q-17 -17 -41 -17q-23 0 -40 17z" />
    <glyph glyph-name="cedilla" unicode="&#xb8;" horiz-adv-x="686" 
d="M238 -149l69 155l44 -6l-59 -140q94 0 150 -42t56 -112q0 -74 -60 -121q-60 -46 -156 -47q-76 0 -122 17v43q45 -17 121 -17q72 0 122 36q49 36 49 88q0 113 -164 113h-50v33z" />
    <glyph glyph-name="uni00B9" unicode="&#xb9;" horiz-adv-x="416" 
d="M231 1721h-2l-179 -118v49l180 119h48v-664h-47v614z" />
    <glyph glyph-name="ordmasculine" unicode="&#xba;" horiz-adv-x="976" 
d="M248 724q89 -106 238 -106t239 106q91 107 91 288q0 183 -91 291q-90 107 -239 107t-238 -107q-90 -108 -90 -291q0 -181 90 -288zM212 691q-102 119 -102 321q0 203 103 323q102 119 273 119q172 0 275 -119q103 -120 103 -323q0 -201 -103 -321q-103 -119 -275 -119
t-274 119z" />
    <glyph glyph-name="guillemotright" unicode="&#xbb;" horiz-adv-x="1150" 
d="M157 978h63l376 -408v-4l-376 -408h-63l370 407v6zM552 978h63l376 -408v-4l-376 -408h-63l370 407v6z" />
    <glyph glyph-name="onequarter" unicode="&#xbc;" horiz-adv-x="1374" 
d="M1183 160h-339v44q122 192 318 460h69v-462h102v-42h-102v-160h-48v160zM894 202h290v418h-2q-173 -236 -288 -417v-1zM232 1393h-2l-179 -118v49l180 119h48v-664h-47v614zM88 1l1081 1443h59l-1081 -1443h-59z" />
    <glyph glyph-name="onehalf" unicode="&#xbd;" horiz-adv-x="1393" 
d="M911 481q1 83 60 137q58 54 146 54q89 0 146 -51q58 -51 58 -130q0 -89 -138 -232l-202 -215v-2h362v-42h-430v35l239 253q121 129 121 200q0 62 -44 102q-45 40 -113 40q-67 0 -112 -42q-44 -42 -46 -107v-1h-47v1zM232 1393h-2l-179 -118v49l180 119h48v-664h-47v614z
M88 1l1081 1443h59l-1081 -1443h-59z" />
    <glyph glyph-name="threequarters" unicode="&#xbe;" horiz-adv-x="1428" 
d="M179 1142h76q71 0 115 38q45 38 45 98q0 55 -44 93q-45 38 -112 38q-66 0 -110 -37t-48 -94h-46q4 76 61 124q58 49 145 49q86 0 144 -48q58 -49 58 -121q0 -61 -37 -103t-102 -54v-2q77 -4 123 -49q45 -45 45 -114q0 -82 -65 -137q-66 -54 -165 -54q-96 0 -159 52
q-61 50 -63 127h47q2 -58 51 -97q49 -40 124 -40q78 0 129 43q51 42 51 106q0 66 -49 104q-50 38 -137 38h-77v40zM1237 160h-339v44q122 192 318 460h69v-462h102v-42h-102v-160h-48v160zM948 202h290v418h-2q-173 -236 -288 -417v-1zM179 1l1081 1443h59l-1081 -1443h-59z
" />
    <glyph glyph-name="questiondown" unicode="&#xbf;" horiz-adv-x="911" 
d="M848 -7q-10 -154 -118 -255q-109 -102 -267 -102q-164 0 -273 101q-109 100 -109 250q0 98 49 175t165 160q105 75 142 133q36 57 36 148v97h49v-99q0 -99 -40 -165t-151 -148q-199 -146 -199 -299q0 -134 96 -221q95 -86 235 -86q136 0 230 85q94 86 107 226h48z
M451 1018q-17 17 -17 41t17 41t40 17q24 0 41 -17t17 -41t-17 -41q-17 -18 -41 -18q-23 0 -40 18z" />
    <glyph glyph-name="Agrave" unicode="&#xc0;" horiz-adv-x="1201" 
d="M935 501h-671l-190 -501h-55l555 1443h51l555 -1443h-56zM282 547h635l-315 827h-5zM278 1841h66l294 -287h-57z" />
    <glyph glyph-name="Aacute" unicode="&#xc1;" horiz-adv-x="1201" 
d="M935 501h-671l-190 -501h-55l555 1443h51l555 -1443h-56zM282 547h635l-315 827h-5zM561 1554l293 287h66l-303 -287h-56z" />
    <glyph glyph-name="Acircumflex" unicode="&#xc2;" horiz-adv-x="1201" 
d="M935 501h-671l-190 -501h-55l555 1443h51l555 -1443h-56zM282 547h635l-315 827h-5zM622 1841l266 -287h-59l-229 249h-2l-229 -249h-59l266 287h46z" />
    <glyph glyph-name="Atilde" unicode="&#xc3;" horiz-adv-x="1201" 
d="M935 501h-671l-190 -501h-55l555 1443h51l555 -1443h-56zM282 547h635l-315 827h-5zM589 1636q-78 84 -127 84q-97 0 -97 -158h-45q0 92 35 145q37 56 107 56q69 0 147 -83q78 -84 127 -84q97 0 97 158h45q0 -93 -35 -146q-37 -56 -107 -56q-69 0 -147 84z" />
    <glyph glyph-name="Adieresis" unicode="&#xc4;" horiz-adv-x="1201" 
d="M935 501h-671l-190 -501h-55l555 1443h51l555 -1443h-56zM282 547h635l-315 827h-5zM421 1572q-16 16 -16 38t16 37q16 16 39 16q22 0 38 -16q16 -15 16 -37t-16 -38t-38 -16t-39 16zM700 1572q-16 16 -16 38t16 37q16 16 38 16q23 0 39 -16q16 -15 16 -37t-16 -38
q-17 -16 -39 -16t-38 16z" />
    <glyph glyph-name="Aring" unicode="&#xc5;" horiz-adv-x="1201" 
d="M935 501h-671l-190 -501h-55l555 1443h51l555 -1443h-56zM282 547h635l-315 827h-5zM482 1555q-48 49 -48 117t48 116q49 49 117 49q67 0 116 -49q48 -48 48 -116t-48 -117q-49 -49 -116 -49q-68 0 -117 49zM689 1582q36 37 36 90t-36 90q-37 37 -90 37q-54 0 -90 -37
q-37 -37 -37 -90t37 -90q36 -37 90 -37q53 0 90 37z" />
    <glyph glyph-name="AE" unicode="&#xc6;" horiz-adv-x="1878" 
d="M342 458h667v939h-191zM1009 411h-689l-208 -411h-55l733 1443h985v-47h-718v-633h681v-46h-681v-670h718v-47h-766v411z" />
    <glyph glyph-name="Ccedilla" unicode="&#xc7;" horiz-adv-x="1303" 
d="M1200 979q-20 184 -166 310q-148 127 -343 127q-266 0 -423 -184q-156 -185 -156 -500q0 -324 158 -515q157 -190 421 -190q203 0 346 114q145 116 163 299h49q-17 -199 -170 -327q-151 -128 -372 -133l-51 -120q94 0 150 -42t56 -112q0 -74 -60 -121q-60 -46 -156 -47
q-76 0 -122 17v43q45 -17 121 -17q72 0 122 36q49 36 49 88q0 113 -164 113h-50v33l58 130q-274 11 -436 214t-162 537q0 337 170 534q169 197 459 197q215 0 377 -140q162 -141 181 -344h-49z" />
    <glyph glyph-name="Egrave" unicode="&#xc8;" horiz-adv-x="1050" 
d="M215 1841h66l294 -287h-57zM949 0h-826v1443h826v-47h-776v-632h740v-46h-740v-671h776v-47z" />
    <glyph glyph-name="Eacute" unicode="&#xc9;" horiz-adv-x="1050" 
d="M498 1554l293 287h66l-303 -287h-56zM949 0h-826v1443h826v-47h-776v-632h740v-46h-740v-671h776v-47z" />
    <glyph glyph-name="Ecircumflex" unicode="&#xca;" horiz-adv-x="1050" 
d="M559 1841l266 -287h-59l-229 249h-2l-229 -249h-59l266 287h46zM949 0h-826v1443h826v-47h-776v-632h740v-46h-740v-671h776v-47z" />
    <glyph glyph-name="Edieresis" unicode="&#xcb;" horiz-adv-x="1050" 
d="M358 1572q-16 16 -16 38t16 37q16 16 39 16q22 0 38 -16q16 -15 16 -37t-16 -38t-38 -16t-39 16zM637 1572q-16 16 -16 38t16 37q16 16 38 16q23 0 39 -16q16 -15 16 -37t-16 -38q-17 -16 -39 -16t-38 16zM949 0h-826v1443h826v-47h-776v-632h740v-46h-740v-671h776v-47z
" />
    <glyph glyph-name="Igrave" unicode="&#xcc;" horiz-adv-x="298" 
d="M124 0v1443h50v-1443h-50zM-172 1841h66l294 -287h-57z" />
    <glyph glyph-name="Iacute" unicode="&#xcd;" horiz-adv-x="298" 
d="M123 0v1443h50v-1443h-50zM110 1554l293 287h66l-303 -287h-56z" />
    <glyph glyph-name="Icircumflex" unicode="&#xce;" horiz-adv-x="298" 
d="M124 0v1443h50v-1443h-50zM172 1841l266 -287h-59l-229 249h-2l-229 -249h-59l266 287h46z" />
    <glyph glyph-name="Idieresis" unicode="&#xcf;" horiz-adv-x="298" 
d="M124 0v1443h50v-1443h-50zM-29 1572q-16 16 -16 38t16 37q16 16 39 16q22 0 38 -16q16 -15 16 -37t-16 -38t-38 -16t-39 16zM250 1572q-16 16 -16 38t16 37q16 16 38 16q23 0 39 -16q16 -15 16 -37t-16 -38q-17 -16 -39 -16t-38 16z" />
    <glyph glyph-name="Eth" unicode="&#xd0;" horiz-adv-x="1383" 
d="M559 47q308 0 475 175q166 175 166 500q0 324 -166 499q-167 175 -475 175h-384v-632h382v-47h-382v-670h384zM560 1443q330 0 510 -188t180 -533q0 -346 -180 -534t-510 -188h-436v717h-110v47h110v679h436z" />
    <glyph glyph-name="Ntilde" unicode="&#xd1;" horiz-adv-x="1315" 
d="M646 1636q-78 84 -127 84q-97 0 -97 -158h-45q0 92 35 145q37 56 107 56q69 0 147 -83q78 -84 127 -84q97 0 97 158h45q0 -93 -35 -146q-37 -56 -107 -56q-69 0 -147 84zM123 0v1443h55l958 -1348h4v1348h50v-1443h-46l-967 1359h-4v-1359h-50z" />
    <glyph glyph-name="Ograve" unicode="&#xd2;" horiz-adv-x="1398" 
d="M377 1841h66l294 -287h-57zM1162 1262q172 -200 172 -540q0 -341 -172 -542q-172 -200 -464 -200t-464 200q-172 201 -172 542q0 340 172 540q172 201 464 201q291 0 464 -201zM271 1228q-159 -187 -159 -506q0 -318 159 -507q159 -188 427 -188q267 0 427 188
q159 189 159 507t-159 506t-427 188q-269 0 -427 -188z" />
    <glyph glyph-name="Oacute" unicode="&#xd3;" horiz-adv-x="1398" 
d="M660 1554l293 287h66l-303 -287h-56zM1162 1262q172 -200 172 -540q0 -341 -172 -542q-172 -200 -464 -200t-464 200q-172 201 -172 542q0 340 172 540q172 201 464 201q291 0 464 -201zM271 1228q-159 -187 -159 -506q0 -318 159 -507q159 -188 427 -188q267 0 427 188
q159 189 159 507t-159 506t-427 188q-269 0 -427 -188z" />
    <glyph glyph-name="Ocircumflex" unicode="&#xd4;" horiz-adv-x="1398" 
d="M721 1841l266 -287h-59l-229 249h-2l-229 -249h-59l266 287h46zM1162 1262q172 -200 172 -540q0 -341 -172 -542q-172 -200 -464 -200t-464 200q-172 201 -172 542q0 340 172 540q172 201 464 201q291 0 464 -201zM271 1228q-159 -187 -159 -506q0 -318 159 -507
q159 -188 427 -188q267 0 427 188q159 189 159 507t-159 506t-427 188q-269 0 -427 -188z" />
    <glyph glyph-name="Otilde" unicode="&#xd5;" horiz-adv-x="1398" 
d="M1162 1262q172 -200 172 -540q0 -341 -172 -542q-172 -200 -464 -200t-464 200q-172 201 -172 542q0 340 172 540q172 201 464 201q291 0 464 -201zM271 1228q-159 -187 -159 -506q0 -318 159 -507q159 -188 427 -188q267 0 427 188q159 189 159 507t-159 506t-427 188
q-269 0 -427 -188zM688 1636q-78 84 -127 84q-97 0 -97 -158h-45q0 92 35 145q37 56 107 56q69 0 147 -83q78 -84 127 -84q97 0 97 158h45q0 -93 -35 -146q-37 -56 -107 -56q-69 0 -147 84z" />
    <glyph glyph-name="Odieresis" unicode="&#xd6;" horiz-adv-x="1398" 
d="M520 1572q-16 16 -16 38t16 37q16 16 39 16q22 0 38 -16q16 -15 16 -37t-16 -38t-38 -16t-39 16zM799 1572q-16 16 -16 38t16 37q16 16 38 16q23 0 39 -16q16 -15 16 -37t-16 -38q-17 -16 -39 -16t-38 16zM1162 1262q172 -200 172 -540q0 -341 -172 -542
q-172 -200 -464 -200t-464 200q-172 201 -172 542q0 340 172 540q172 201 464 201q291 0 464 -201zM271 1228q-159 -187 -159 -506q0 -318 159 -507q159 -188 427 -188q267 0 427 188q159 189 159 507t-159 506t-427 188q-269 0 -427 -188z" />
    <glyph glyph-name="multiply" unicode="&#xd7;" horiz-adv-x="1179" 
d="M263 220l-34 32l326 327l-327 327l35 34l325 -328l327 326l33 -32l-325 -327l325 -325l-34 -34l-325 326z" />
    <glyph glyph-name="Oslash" unicode="&#xd8;" horiz-adv-x="1398" 
d="M317 167q152 -140 381 -140q267 0 427 188q159 189 159 507q0 306 -149 494zM1106 1249q-156 167 -408 167q-269 0 -427 -188q-159 -187 -159 -506q0 -333 174 -523zM1167 1256q167 -200 167 -534q0 -341 -172 -542q-172 -200 -464 -200q-248 0 -412 147l-173 -222
l-37 25l178 228q-192 201 -192 564q0 340 172 540q172 201 464 201q270 0 439 -174l151 194l36 -25z" />
    <glyph glyph-name="Ugrave" unicode="&#xd9;" horiz-adv-x="1305" 
d="M331 1841h66l294 -287h-57zM173 500q0 -218 130 -346q129 -127 349 -127q221 0 350 127q130 128 130 346v943h50v-944q0 -237 -143 -378q-144 -141 -387 -141t-386 141t-143 378v944h50v-943z" />
    <glyph glyph-name="Uacute" unicode="&#xda;" horiz-adv-x="1305" 
d="M614 1554l293 287h66l-303 -287h-56zM173 500q0 -218 130 -346q129 -127 349 -127q221 0 350 127q130 128 130 346v943h50v-944q0 -237 -143 -378q-144 -141 -387 -141t-386 141t-143 378v944h50v-943z" />
    <glyph glyph-name="Ucircumflex" unicode="&#xdb;" horiz-adv-x="1305" 
d="M675 1841l266 -287h-59l-229 249h-2l-229 -249h-59l266 287h46zM173 500q0 -218 130 -346q129 -127 349 -127q221 0 350 127q130 128 130 346v943h50v-944q0 -237 -143 -378q-144 -141 -387 -141t-386 141t-143 378v944h50v-943z" />
    <glyph glyph-name="Udieresis" unicode="&#xdc;" horiz-adv-x="1305" 
d="M474 1572q-16 16 -16 38t16 37q16 16 39 16q22 0 38 -16q16 -15 16 -37t-16 -38t-38 -16t-39 16zM753 1572q-16 16 -16 38t16 37q16 16 38 16q23 0 39 -16q16 -15 16 -37t-16 -38q-17 -16 -39 -16t-38 16zM173 500q0 -218 130 -346q129 -127 349 -127q221 0 350 127
q130 128 130 346v943h50v-944q0 -237 -143 -378q-144 -141 -387 -141t-386 141t-143 378v944h50v-943z" />
    <glyph glyph-name="Yacute" unicode="&#xdd;" horiz-adv-x="1148" 
d="M549 0v631l-529 812h60l492 -758h4l491 758h59l-527 -812v-631h-50zM535 1554l293 287h66l-303 -287h-56z" />
    <glyph glyph-name="Thorn" unicode="&#xde;" horiz-adv-x="1202" 
d="M213 1443v-291h413q205 0 325 -106q122 -108 122 -294t-120 -292t-327 -106h-413v-354h-50v1443h50zM213 401h411q188 0 294 95q105 94 105 256t-105 257q-107 96 -294 96h-411v-704z" />
    <glyph glyph-name="germandbls" unicode="&#xdf;" horiz-adv-x="1047" 
d="M119 0v1064q0 177 97 275q96 97 271 97q168 0 272 -92q103 -91 103 -240q0 -125 -80 -223q-77 -94 -189 -119v-3q170 -14 279 -114q111 -103 111 -256q0 -174 -127 -291q-127 -118 -316 -118q-87 0 -179 17v49q77 -20 178 -20q165 0 279 104q116 105 116 259
q0 150 -123 246q-124 95 -319 95h-109v47h108q131 0 226 97t95 229q0 127 -90 207t-233 80q-151 0 -236 -87t-85 -240v-1063h-49z" />
    <glyph glyph-name="agrave" unicode="&#xe0;" horiz-adv-x="1021" 
d="M738 138q120 107 120 258v182l-381 -29q-338 -26 -338 -263q0 -111 88 -183q87 -73 221 -73q169 0 290 108zM189 69q-100 84 -100 217q0 276 380 306l389 30v97q0 153 -86 240q-87 87 -239 87q-151 0 -244 -74t-114 -209h-47q17 153 126 241t279 88q173 0 274 -99
q100 -100 100 -271v-722h-49v245h-1q-39 -116 -153 -188q-115 -73 -259 -73q-157 0 -256 85zM527 1254l-246 303h63l236 -303h-53z" />
    <glyph glyph-name="aacute" unicode="&#xe1;" horiz-adv-x="1021" 
d="M738 138q120 107 120 258v182l-381 -29q-338 -26 -338 -263q0 -111 88 -183q87 -73 221 -73q169 0 290 108zM189 69q-100 84 -100 217q0 276 380 306l389 30v97q0 153 -86 240q-87 87 -239 87q-151 0 -244 -74t-114 -209h-47q17 153 126 241t279 88q173 0 274 -99
q100 -100 100 -271v-722h-49v245h-1q-39 -116 -153 -188q-115 -73 -259 -73q-157 0 -256 85zM484 1254l236 303h63l-246 -303h-53z" />
    <glyph glyph-name="acircumflex" unicode="&#xe2;" horiz-adv-x="1021" 
d="M738 138q120 107 120 258v182l-381 -29q-338 -26 -338 -263q0 -111 88 -183q87 -73 221 -73q169 0 290 108zM189 69q-100 84 -100 217q0 276 380 306l389 30v97q0 153 -86 240q-87 87 -239 87q-151 0 -244 -74t-114 -209h-47q17 153 126 241t279 88q173 0 274 -99
q100 -100 100 -271v-722h-49v245h-1q-39 -116 -153 -188q-115 -73 -259 -73q-157 0 -256 85zM819 1254h-56l-230 264h-2l-230 -264h-56l265 303h44z" />
    <glyph glyph-name="atilde" unicode="&#xe3;" horiz-adv-x="1021" 
d="M738 138q120 107 120 258v182l-381 -29q-338 -26 -338 -263q0 -111 88 -183q87 -73 221 -73q169 0 290 108zM189 69q-100 84 -100 217q0 276 380 306l389 30v97q0 153 -86 240q-87 87 -239 87q-151 0 -244 -74t-114 -209h-47q17 153 126 241t279 88q173 0 274 -99
q100 -100 100 -271v-722h-49v245h-1q-39 -116 -153 -188q-115 -73 -259 -73q-157 0 -256 85zM522 1338q-78 84 -127 84q-97 0 -97 -158h-45q0 92 35 145q37 56 107 56q69 0 147 -83q78 -84 127 -84q97 0 97 158h45q0 -93 -35 -146q-37 -56 -107 -56q-69 0 -147 84z" />
    <glyph glyph-name="adieresis" unicode="&#xe4;" horiz-adv-x="1021" 
d="M738 138q120 107 120 258v182l-381 -29q-338 -26 -338 -263q0 -111 88 -183q87 -73 221 -73q169 0 290 108zM189 69q-100 84 -100 217q0 276 380 306l389 30v97q0 153 -86 240q-87 87 -239 87q-151 0 -244 -74t-114 -209h-47q17 153 126 241t279 88q173 0 274 -99
q100 -100 100 -271v-722h-49v245h-1q-39 -116 -153 -188q-115 -73 -259 -73q-157 0 -256 85zM354 1270q-16 16 -16 38t16 37q16 16 39 16q22 0 38 -16q16 -15 16 -37t-16 -38t-38 -16t-39 16zM633 1270q-16 16 -16 38t16 37q16 16 38 16q23 0 39 -16q16 -15 16 -37t-16 -38
q-17 -16 -39 -16t-38 16z" />
    <glyph glyph-name="aring" unicode="&#xe5;" horiz-adv-x="1021" 
d="M738 138q120 107 120 258v182l-381 -29q-338 -26 -338 -263q0 -111 88 -183q87 -73 221 -73q169 0 290 108zM189 69q-100 84 -100 217q0 276 380 306l389 30v97q0 153 -86 240q-87 87 -239 87q-151 0 -244 -74t-114 -209h-47q17 153 126 241t279 88q173 0 274 -99
q100 -100 100 -271v-722h-49v245h-1q-39 -116 -153 -188q-115 -73 -259 -73q-157 0 -256 85zM415 1298q-48 49 -48 117t48 116q49 49 117 49q67 0 116 -49q48 -48 48 -116t-48 -117q-49 -49 -116 -49q-68 0 -117 49zM622 1325q36 37 36 90t-36 90q-37 37 -90 37
q-54 0 -90 -37q-37 -37 -37 -90t37 -90q36 -37 90 -37q53 0 90 37z" />
    <glyph glyph-name="ae" unicode="&#xe6;" horiz-adv-x="1848" 
d="M1060 67q-115 85 -164 244h-4q-38 -150 -159 -239q-120 -88 -283 -88q-161 0 -261 83t-100 215q0 263 375 287l394 27v141q0 146 -88 228q-88 81 -242 81q-148 0 -243 -75t-114 -208h-48q16 150 127 240q110 89 278 89q159 0 260 -81q103 -84 110 -227h5q44 137 152 220
q116 88 276 88q206 0 329 -139q122 -138 122 -370v-40h-875v-7q0 -230 117 -368t311 -138q153 0 256 77q97 73 122 192h51q-28 -140 -140 -225q-118 -90 -290 -90q-161 0 -274 83zM1032 919q-115 -125 -124 -331h824q0 206 -109 332q-111 126 -293 126q-183 0 -298 -127z
M739 138q119 108 119 263v150l-384 -26q-335 -21 -335 -243q0 -110 87 -181t225 -71q169 0 288 108z" />
    <glyph glyph-name="ccedilla" unicode="&#xe7;" horiz-adv-x="1019" 
d="M907 760q-26 126 -127 205q-104 81 -247 81q-193 0 -306 -138q-113 -137 -113 -370t112 -370q113 -137 307 -137q145 0 247 77q100 75 125 199h50q-25 -141 -134 -229q-111 -89 -272 -94l-52 -124q94 0 150 -42t56 -112q0 -74 -60 -121q-60 -46 -156 -47q-76 0 -122 17
v43q45 -17 121 -17q72 0 122 36q49 36 49 88q0 113 -164 113h-50v33l60 134q-203 11 -321 159t-118 394q0 254 127 404t342 150q163 0 281 -94q116 -93 143 -238h-50z" />
    <glyph glyph-name="egrave" unicode="&#xe8;" horiz-adv-x="1056" 
d="M527 1254l-246 303h63l236 -303h-53zM238 918q-114 -127 -123 -337h825q0 207 -112 336q-113 129 -296 129q-180 0 -294 -128zM976 299q-28 -140 -141 -225q-119 -90 -295 -90q-219 0 -346 146q-130 148 -130 408q0 250 128 402t340 152q205 0 332 -143
q126 -143 126 -375v-38h-876v-2q0 -237 117 -372q115 -132 310 -132q156 0 261 78q98 72 123 191h51z" />
    <glyph glyph-name="eacute" unicode="&#xe9;" horiz-adv-x="1056" 
d="M484 1254l236 303h63l-246 -303h-53zM238 918q-114 -127 -123 -337h825q0 207 -112 336q-113 129 -296 129q-180 0 -294 -128zM976 299q-28 -140 -141 -225q-119 -90 -295 -90q-219 0 -346 146q-130 148 -130 408q0 250 128 402t340 152q205 0 332 -143
q126 -143 126 -375v-38h-876v-2q0 -237 117 -372q115 -132 310 -132q156 0 261 78q98 72 123 191h51z" />
    <glyph glyph-name="ecircumflex" unicode="&#xea;" horiz-adv-x="1056" 
d="M819 1254h-56l-230 264h-2l-230 -264h-56l265 303h44zM238 918q-114 -127 -123 -337h825q0 207 -112 336q-113 129 -296 129q-180 0 -294 -128zM976 299q-28 -140 -141 -225q-119 -90 -295 -90q-219 0 -346 146q-130 148 -130 408q0 250 128 402t340 152q205 0 332 -143
q126 -143 126 -375v-38h-876v-2q0 -237 117 -372q115 -132 310 -132q156 0 261 78q98 72 123 191h51z" />
    <glyph glyph-name="edieresis" unicode="&#xeb;" horiz-adv-x="1056" 
d="M238 918q-114 -127 -123 -337h825q0 207 -112 336q-113 129 -296 129q-180 0 -294 -128zM976 299q-28 -140 -141 -225q-119 -90 -295 -90q-219 0 -346 146q-130 148 -130 408q0 250 128 402t340 152q205 0 332 -143q126 -143 126 -375v-38h-876v-2q0 -237 117 -372
q115 -132 310 -132q156 0 261 78q98 72 123 191h51zM354 1270q-16 16 -16 38t16 37q16 16 39 16q22 0 38 -16q16 -15 16 -37t-16 -38t-38 -16t-39 16zM633 1270q-16 16 -16 38t16 37q16 16 38 16q23 0 39 -16q16 -15 16 -37t-16 -38q-17 -16 -39 -16t-38 16z" />
    <glyph glyph-name="igrave" unicode="&#xec;" horiz-adv-x="309" 
d="M150 1254l-246 303h63l236 -303h-53zM130 1076h49v-1076h-49v1076z" />
    <glyph glyph-name="iacute" unicode="&#xed;" horiz-adv-x="309" 
d="M106 1254l236 303h63l-246 -303h-53zM129 1076h49v-1076h-49v1076z" />
    <glyph glyph-name="icircumflex" unicode="&#xee;" horiz-adv-x="309" 
d="M442 1254h-56l-230 264h-2l-230 -264h-56l265 303h44zM130 1076h49v-1076h-49v1076z" />
    <glyph glyph-name="idieresis" unicode="&#xef;" horiz-adv-x="309" 
d="M130 1076h49v-1076h-49v1076zM-23 1270q-16 16 -16 38t16 37q16 16 39 16q22 0 38 -16q16 -15 16 -37t-16 -38t-38 -16t-39 16zM256 1270q-16 16 -16 38t16 37q16 16 38 16q23 0 39 -16q16 -15 16 -37t-16 -38q-17 -16 -39 -16t-38 16z" />
    <glyph glyph-name="eth" unicode="&#xf0;" horiz-adv-x="1114" 
d="M197 137q-132 154 -132 399q0 224 132 370q131 146 333 146q277 0 396 -243h4q-59 297 -236 477l-292 -126l-16 40l277 118q-82 75 -243 160h79q136 -73 208 -142l272 115l16 -39l-256 -108q257 -275 257 -749q0 -261 -124 -416q-125 -155 -334 -155t-341 153zM233 874
q-118 -133 -118 -337q0 -224 118 -366q118 -141 305 -141q181 0 295 138t114 358t-113 350t-303 130q-181 0 -298 -132z" />
    <glyph glyph-name="ntilde" unicode="&#xf1;" horiz-adv-x="1063" 
d="M526 1338q-78 84 -127 84q-97 0 -97 -158h-45q0 92 35 145q37 56 107 56q69 0 147 -83q78 -84 127 -84q97 0 97 158h45q0 -93 -35 -146q-37 -56 -107 -56q-69 0 -147 84zM119 1076h46v-254h2q35 121 138 195q105 75 244 75q179 0 289 -107q111 -109 111 -289v-696h-49
v694q0 161 -100 258q-98 94 -258 94q-165 0 -269 -112q-105 -112 -105 -288v-646h-49v1076z" />
    <glyph glyph-name="ograve" unicode="&#xf2;" horiz-adv-x="1078" 
d="M533 1253l-246 303h63l236 -303h-53zM195 134q-131 151 -131 404t131 405q130 149 343 149t343 -149q131 -152 131 -405t-131 -404q-130 -150 -343 -150q-214 0 -343 150zM846 168q117 138 117 370q0 233 -117 371q-116 137 -308 137t-307 -137q-117 -138 -117 -371
t117 -370q115 -137 307 -137t308 137z" />
    <glyph glyph-name="oacute" unicode="&#xf3;" horiz-adv-x="1078" 
d="M490 1253l236 303h63l-246 -303h-53zM195 134q-131 151 -131 404t131 405q130 149 343 149t343 -149q131 -152 131 -405t-131 -404q-130 -150 -343 -150q-214 0 -343 150zM846 168q117 138 117 370q0 233 -117 371q-116 137 -308 137t-307 -137q-117 -138 -117 -371
t117 -370q115 -137 307 -137t308 137z" />
    <glyph glyph-name="ocircumflex" unicode="&#xf4;" horiz-adv-x="1078" 
d="M825 1253h-56l-230 264h-2l-230 -264h-56l265 303h44zM195 134q-131 151 -131 404t131 405q130 149 343 149t343 -149q131 -152 131 -405t-131 -404q-130 -150 -343 -150q-214 0 -343 150zM846 168q117 138 117 370q0 233 -117 371q-116 137 -308 137t-307 -137
q-117 -138 -117 -371t117 -370q115 -137 307 -137t308 137z" />
    <glyph glyph-name="otilde" unicode="&#xf5;" horiz-adv-x="1078" 
d="M527 1337q-78 84 -127 84q-97 0 -97 -158h-45q0 92 35 145q37 56 107 56q69 0 147 -83q78 -84 127 -84q97 0 97 158h45q0 -93 -35 -146q-37 -56 -107 -56q-69 0 -147 84zM195 134q-131 151 -131 404t131 405q130 149 343 149t343 -149q131 -152 131 -405t-131 -404
q-130 -150 -343 -150q-214 0 -343 150zM846 168q117 138 117 370q0 233 -117 371q-116 137 -308 137t-307 -137q-117 -138 -117 -371t117 -370q115 -137 307 -137t308 137z" />
    <glyph glyph-name="odieresis" unicode="&#xf6;" horiz-adv-x="1078" 
d="M360 1269q-16 16 -16 38t16 37q16 16 39 16q22 0 38 -16q16 -15 16 -37t-16 -38t-38 -16t-39 16zM639 1269q-16 16 -16 38t16 37q16 16 38 16q23 0 39 -16q16 -15 16 -37t-16 -38q-17 -16 -39 -16t-38 16zM195 134q-131 151 -131 404t131 405q130 149 343 149t343 -149
q131 -152 131 -405t-131 -404q-130 -150 -343 -150q-214 0 -343 150zM846 168q117 138 117 370q0 233 -117 371q-116 137 -308 137t-307 -137q-117 -138 -117 -371t117 -370q115 -137 307 -137t308 137z" />
    <glyph glyph-name="divide" unicode="&#xf7;" horiz-adv-x="1179" 
d="M540 862q-21 21 -21 49q0 30 21 50q20 20 49 20t50 -20q20 -20 20 -50q0 -29 -20 -49q-21 -21 -50 -21q-28 0 -49 21zM540 173q-21 21 -21 49q0 30 21 50q20 20 49 20t50 -20q20 -20 20 -50q0 -29 -20 -49q-21 -21 -50 -21q-28 0 -49 21zM103 555v45h970v-45h-970z" />
    <glyph glyph-name="oslash" unicode="&#xf8;" horiz-adv-x="1078" 
d="M283 117q104 -86 255 -86q192 0 308 137q117 138 117 370q0 230 -114 367zM818 938q-111 108 -280 108q-192 0 -307 -137q-117 -138 -117 -371q0 -251 135 -391zM878 945q134 -151 134 -407q0 -253 -131 -404q-130 -150 -343 -150q-165 0 -284 93l-125 -174l-37 26
l128 178q-156 151 -156 431q0 253 131 405q130 149 343 149q185 0 308 -114l115 159l37 -25z" />
    <glyph glyph-name="ugrave" unicode="&#xf9;" horiz-adv-x="1063" 
d="M522 1253l-246 303h63l236 -303h-53zM943 0h-46v251h-2q-33 -114 -142 -190q-112 -77 -248 -77q-175 0 -283 106q-110 107 -110 285v701h49v-694q0 -164 98 -259q95 -92 252 -92q163 0 271 107q111 111 111 289v649h50v-1076z" />
    <glyph glyph-name="uacute" unicode="&#xfa;" horiz-adv-x="1063" 
d="M479 1253l236 303h63l-246 -303h-53zM943 0h-46v251h-2q-33 -114 -142 -190q-112 -77 -248 -77q-175 0 -283 106q-110 107 -110 285v701h49v-694q0 -164 98 -259q95 -92 252 -92q163 0 271 107q111 111 111 289v649h50v-1076z" />
    <glyph glyph-name="ucircumflex" unicode="&#xfb;" horiz-adv-x="1063" 
d="M814 1253h-56l-230 264h-2l-230 -264h-56l265 303h44zM943 0h-46v251h-2q-33 -114 -142 -190q-112 -77 -248 -77q-175 0 -283 106q-110 107 -110 285v701h49v-694q0 -164 98 -259q95 -92 252 -92q163 0 271 107q111 111 111 289v649h50v-1076z" />
    <glyph glyph-name="udieresis" unicode="&#xfc;" horiz-adv-x="1063" 
d="M943 0h-46v251h-2q-33 -114 -142 -190q-112 -77 -248 -77q-175 0 -283 106q-110 107 -110 285v701h49v-694q0 -164 98 -259q95 -92 252 -92q163 0 271 107q111 111 111 289v649h50v-1076zM349 1269q-16 16 -16 38t16 37q16 16 39 16q22 0 38 -16q16 -15 16 -37t-16 -38
t-38 -16t-39 16zM628 1269q-16 16 -16 38t16 37q16 16 38 16q23 0 39 -16q16 -15 16 -37t-16 -38q-17 -16 -39 -16t-38 16z" />
    <glyph glyph-name="yacute" unicode="&#xfd;" horiz-adv-x="888" 
d="M131 -334v47q23 -9 53 -9q70 0 116 47q45 45 89 158l28 72l-415 1095h54l387 -1029h2l388 1029h54l-417 -1101q-74 -195 -130 -256q-56 -62 -162 -62q-26 0 -47 9zM396 1253l236 303h63l-246 -303h-53z" />
    <glyph glyph-name="thorn" unicode="&#xfe;" horiz-adv-x="1116" 
d="M924 938q126 -153 126 -400t-126 -400q-126 -154 -328 -154q-144 0 -256 83q-111 82 -157 223h-5v-683h-49v1869h47v-701h5q44 145 156 231t259 86q202 0 328 -154zM887 170q113 141 113 367t-113 367q-113 142 -294 142q-183 0 -299 -142t-116 -366q0 -223 116 -366
q117 -142 299 -142t294 140z" />
    <glyph glyph-name="ydieresis" unicode="&#xff;" horiz-adv-x="888" 
d="M131 -334v47q23 -9 53 -9q70 0 116 47q45 45 89 158l28 72l-415 1095h54l387 -1029h2l388 1029h54l-417 -1101q-74 -195 -130 -256q-56 -62 -162 -62q-26 0 -47 9zM266 1269q-16 16 -16 38t16 37q16 16 39 16q22 0 38 -16q16 -15 16 -37t-16 -38t-38 -16t-39 16z
M545 1269q-16 16 -16 38t16 37q16 16 38 16q23 0 39 -16q16 -15 16 -37t-16 -38q-17 -16 -39 -16t-38 16z" />
    <glyph glyph-name="Amacron" unicode="&#x100;" horiz-adv-x="1201" 
d="M935 501h-671l-190 -501h-55l555 1443h51l555 -1443h-56zM282 547h635l-315 827h-5zM881 1616h-564v43h564v-43z" />
    <glyph glyph-name="amacron" unicode="&#x101;" horiz-adv-x="1021" 
d="M738 138q120 107 120 258v182l-381 -29q-338 -26 -338 -263q0 -111 88 -183q87 -73 221 -73q169 0 290 108zM189 69q-100 84 -100 217q0 276 380 306l389 30v97q0 153 -86 240q-87 87 -239 87q-151 0 -244 -74t-114 -209h-47q17 153 126 241t279 88q173 0 274 -99
q100 -100 100 -271v-722h-49v245h-1q-39 -116 -153 -188q-115 -73 -259 -73q-157 0 -256 85zM817 1305h-584v43h584v-43z" />
    <glyph glyph-name="Abreve" unicode="&#x102;" horiz-adv-x="1201" 
d="M935 501h-671l-190 -501h-55l555 1443h51l555 -1443h-56zM282 547h635l-315 827h-5zM387 1771q0 -75 58 -125q59 -50 154 -50t154 50q58 50 58 125h45q0 -99 -73 -159q-70 -58 -184 -58t-184 58q-73 60 -73 159h45z" />
    <glyph glyph-name="abreve" unicode="&#x103;" horiz-adv-x="1021" 
d="M738 138q120 107 120 258v182l-381 -29q-338 -26 -338 -263q0 -111 88 -183q87 -73 221 -73q169 0 290 108zM189 69q-100 84 -100 217q0 276 380 306l389 30v97q0 153 -86 240q-87 87 -239 87q-151 0 -244 -74t-114 -209h-47q17 153 126 241t279 88q173 0 274 -99
q100 -100 100 -271v-722h-49v245h-1q-39 -116 -153 -188q-115 -73 -259 -73q-157 0 -256 85zM319 1490q0 -88 58 -141t155 -53t155 53t58 141h45q0 -112 -73 -176q-71 -61 -185 -61t-184 61q-74 64 -74 176h45z" />
    <glyph glyph-name="Aogonek" unicode="&#x104;" horiz-adv-x="1201" 
d="M1019 -356q-52 51 -52 131q0 134 154 237l-186 488h-671l-190 -500h-55l555 1443h51l554 -1445q-163 -91 -163 -219q0 -62 42 -100q41 -39 107 -39h15v-45q-2 -1 -25 -1q-83 0 -136 50zM282 547h635l-315 826h-5z" />
    <glyph glyph-name="aogonek" unicode="&#x105;" horiz-adv-x="1021" 
d="M746 -356q-52 51 -52 131q0 134 164 240v230h-1q-39 -116 -153 -188q-115 -73 -259 -73q-157 0 -256 85q-100 84 -100 217q0 276 380 306l389 30v97q0 153 -86 240q-87 87 -239 87q-151 0 -244 -74t-114 -209h-47q17 153 126 241t279 88q173 0 274 -99q100 -100 100 -271
v-725q-164 -102 -164 -218q0 -62 42 -100q41 -39 107 -39h15v-45q-2 -1 -25 -1q-83 0 -136 50zM738 138q120 107 120 258v182l-381 -29q-338 -26 -338 -263q0 -111 88 -183q87 -73 221 -73q169 0 290 108z" />
    <glyph glyph-name="Cacute" unicode="&#x106;" horiz-adv-x="1303" 
d="M654 1554l293 287h66l-303 -287h-56zM233 184q-171 204 -171 548q0 337 170 534q169 197 459 197q215 0 377 -140q162 -141 181 -344h-49q-20 184 -166 310q-148 127 -343 127q-266 0 -423 -184q-156 -185 -156 -500q0 -324 158 -515q157 -190 421 -190q203 0 346 114
q145 116 163 299h49q-17 -203 -175 -332q-156 -128 -383 -128q-287 0 -458 204z" />
    <glyph glyph-name="cacute" unicode="&#x107;" horiz-adv-x="1019" 
d="M907 760q-26 126 -127 205q-104 81 -247 81q-193 0 -306 -138q-113 -137 -113 -370t112 -370q113 -137 307 -137q145 0 247 77q100 75 125 199h50q-26 -145 -140 -233q-116 -90 -282 -90q-215 0 -342 150q-127 149 -127 404q0 254 127 404t342 150q163 0 281 -94
q116 -93 143 -238h-50zM485 1254l236 303h63l-246 -303h-53z" />
    <glyph glyph-name="Ccircumflex" unicode="&#x108;" horiz-adv-x="1303" 
d="M233 184q-171 204 -171 548q0 337 170 534q169 197 459 197q215 0 377 -140q162 -141 181 -344h-49q-20 184 -166 310q-148 127 -343 127q-266 0 -423 -184q-156 -185 -156 -500q0 -324 158 -515q157 -190 421 -190q203 0 346 114q145 116 163 299h49q-17 -203 -175 -332
q-156 -128 -383 -128q-287 0 -458 204zM715 1841l266 -287h-59l-229 249h-2l-229 -249h-59l266 287h46z" />
    <glyph glyph-name="ccircumflex" unicode="&#x109;" horiz-adv-x="1019" 
d="M820 1254h-56l-230 264h-2l-230 -264h-56l265 303h44zM907 760q-26 126 -127 205q-104 81 -247 81q-193 0 -306 -138q-113 -137 -113 -370t112 -370q113 -137 307 -137q145 0 247 77q100 75 125 199h50q-26 -145 -140 -233q-116 -90 -282 -90q-215 0 -342 150
q-127 149 -127 404q0 254 127 404t342 150q163 0 281 -94q116 -93 143 -238h-50z" />
    <glyph glyph-name="Cdotaccent" unicode="&#x10a;" horiz-adv-x="1303" 
d="M647 1575q-19 19 -19 45q0 25 19 44t45 19t45 -19t19 -44q0 -26 -19 -45t-45 -19t-45 19zM233 184q-171 204 -171 548q0 337 170 534q169 197 459 197q215 0 377 -140q162 -141 181 -344h-49q-20 184 -166 310q-148 127 -343 127q-266 0 -423 -184q-156 -185 -156 -500
q0 -324 158 -515q157 -190 421 -190q203 0 346 114q145 116 163 299h49q-17 -203 -175 -332q-156 -128 -383 -128q-287 0 -458 204z" />
    <glyph glyph-name="cdotaccent" unicode="&#x10b;" horiz-adv-x="1019" 
d="M907 760q-26 126 -127 205q-104 81 -247 81q-193 0 -306 -138q-113 -137 -113 -370t112 -370q113 -137 307 -137q145 0 247 77q100 75 125 199h50q-26 -145 -140 -233q-116 -90 -282 -90q-215 0 -342 150q-127 149 -127 404q0 254 127 404t342 150q163 0 281 -94
q116 -93 143 -238h-50zM488 1273q-19 20 -19 45q0 26 19 45t45 19t46 -19q19 -19 19 -45t-19 -45q-20 -19 -46 -19q-25 0 -45 19z" />
    <glyph glyph-name="Ccaron" unicode="&#x10c;" horiz-adv-x="1303" 
d="M233 184q-171 204 -171 548q0 337 170 534q169 197 459 197q215 0 377 -140q162 -141 181 -344h-49q-20 184 -166 310q-148 127 -343 127q-266 0 -423 -184q-156 -185 -156 -500q0 -324 158 -515q157 -190 421 -190q203 0 346 114q145 116 163 299h49q-17 -203 -175 -332
q-156 -128 -383 -128q-287 0 -458 204zM403 1841h59l229 -250h2l229 250h59l-266 -287h-46z" />
    <glyph glyph-name="ccaron" unicode="&#x10d;" horiz-adv-x="1019" 
d="M511 1254l-265 303h56l230 -264h2l230 264h56l-265 -303h-44zM907 760q-26 126 -127 205q-104 81 -247 81q-193 0 -306 -138q-113 -137 -113 -370t112 -370q113 -137 307 -137q145 0 247 77q100 75 125 199h50q-26 -145 -140 -233q-116 -90 -282 -90q-215 0 -342 150
q-127 149 -127 404q0 254 127 404t342 150q163 0 281 -94q116 -93 143 -238h-50z" />
    <glyph glyph-name="Dcaron" unicode="&#x10e;" horiz-adv-x="1313" 
d="M263 1841h59l229 -250h2l229 250h59l-266 -287h-46zM559 1443q330 0 510 -188t180 -533q0 -346 -180 -534t-510 -188h-436v1443h436zM174 47h384q308 0 475 175q166 175 166 500q0 324 -166 499q-167 175 -475 175h-384v-1349z" />
    <glyph glyph-name="dcaron" unicode="&#x10f;" horiz-adv-x="1209" 
d="M1238 1476l-10 -355h-37v355h47zM193 138q-129 155 -129 400q0 246 129 400q128 154 330 154q156 0 274 -97q114 -93 146 -234h2v745h50v-1506h-46v322h-2q-35 -146 -149 -240q-119 -98 -275 -98q-202 0 -330 154zM229 905q-115 -141 -115 -366q0 -226 115 -367t296 -141
q184 0 302 141q118 142 118 366t-118 366t-302 142q-181 0 -296 -141z" />
    <glyph glyph-name="Dcroat" unicode="&#x110;" horiz-adv-x="1367" 
d="M601 47q308 0 475 175q166 175 166 500q0 324 -166 499q-167 175 -475 175h-384v-632h382v-47h-382v-670h384zM602 1443q330 0 510 -188t180 -533q0 -346 -180 -534t-510 -188h-436v717h-110v47h110v679h436z" />
    <glyph glyph-name="dcroat" unicode="&#x111;" horiz-adv-x="1128" 
d="M831 172q116 142 116 366q0 223 -116 366q-117 142 -300 142t-299 -142q-117 -142 -117 -366q0 -223 117 -366q116 -142 299 -142q184 0 300 142zM1103 1282h-107v-1282h-47v300h-5q-44 -145 -156 -230q-112 -86 -259 -86q-205 0 -334 155q-130 154 -130 398t130 400
q130 155 334 155q144 0 256 -83q111 -83 157 -224h5v497h-298v44h298v184h49v-184h107v-44z" />
    <glyph glyph-name="Emacron" unicode="&#x112;" horiz-adv-x="1050" 
d="M949 0h-826v1443h826v-47h-776v-632h740v-46h-740v-671h776v-47zM818 1616h-564v43h564v-43z" />
    <glyph glyph-name="emacron" unicode="&#x113;" horiz-adv-x="1056" 
d="M238 918q-114 -127 -123 -337h825q0 207 -112 336q-113 129 -296 129q-180 0 -294 -128zM976 299q-28 -140 -141 -225q-119 -90 -295 -90q-219 0 -346 146q-130 148 -130 408q0 250 128 402t340 152q205 0 332 -143q126 -143 126 -375v-38h-876v-2q0 -237 117 -372
q115 -132 310 -132q156 0 261 78q98 72 123 191h51zM817 1305h-584v43h584v-43z" />
    <glyph glyph-name="Ebreve" unicode="&#x114;" horiz-adv-x="1050" 
d="M949 0h-826v1443h826v-47h-776v-632h740v-46h-740v-671h776v-47zM324 1771q0 -75 58 -125q59 -50 154 -50t154 50q58 50 58 125h45q0 -99 -73 -159q-70 -58 -184 -58t-184 58q-73 60 -73 159h45z" />
    <glyph glyph-name="ebreve" unicode="&#x115;" horiz-adv-x="1056" 
d="M238 918q-114 -127 -123 -337h825q0 207 -112 336q-113 129 -296 129q-180 0 -294 -128zM976 299q-28 -140 -141 -225q-119 -90 -295 -90q-219 0 -346 146q-130 148 -130 408q0 250 128 402t340 152q205 0 332 -143q126 -143 126 -375v-38h-876v-2q0 -237 117 -372
q115 -132 310 -132q156 0 261 78q98 72 123 191h51zM319 1490q0 -88 58 -141t155 -53t155 53t58 141h45q0 -112 -73 -176q-71 -61 -185 -61t-184 61q-74 64 -74 176h45z" />
    <glyph glyph-name="Edotaccent" unicode="&#x116;" horiz-adv-x="1050" 
d="M491 1575q-19 19 -19 45q0 25 19 44t45 19t45 -19t19 -44q0 -26 -19 -45t-45 -19t-45 19zM949 0h-826v1443h826v-47h-776v-632h740v-46h-740v-671h776v-47z" />
    <glyph glyph-name="edotaccent" unicode="&#x117;" horiz-adv-x="1056" 
d="M487 1273q-19 20 -19 45q0 26 19 45t45 19t46 -19q19 -19 19 -45t-19 -45q-20 -19 -46 -19q-25 0 -45 19zM238 918q-114 -127 -123 -337h825q0 207 -112 336q-113 129 -296 129q-180 0 -294 -128zM976 299q-28 -140 -141 -225q-119 -90 -295 -90q-219 0 -346 146
q-130 148 -130 408q0 250 128 402t340 152q205 0 332 -143q126 -143 126 -375v-38h-876v-2q0 -237 117 -372q115 -132 310 -132q156 0 261 78q98 72 123 191h51z" />
    <glyph glyph-name="Eogonek" unicode="&#x118;" horiz-adv-x="1050" 
d="M123 0v1443h826v-47h-776v-632h740v-46h-740v-671h776v-44q-166 -93 -166 -222q0 -62 42 -101q41 -40 107 -40h17v-45l-27 -1q-83 0 -136 51t-53 131q0 125 136 224h-746z" />
    <glyph glyph-name="eogonek" unicode="&#x119;" horiz-adv-x="1056" 
d="M718 -406q-80 0 -134 54t-54 135q0 122 123 210v2q-41 -11 -113 -11q-221 0 -348 148q-128 149 -128 406q0 250 128 402t340 152q205 0 332 -143q126 -143 126 -375v-38h-876v-2q0 -234 114 -369t313 -135q151 0 254 73q104 72 130 196h51q-34 -169 -190 -263
q-207 -124 -207 -250q0 -64 42 -105t107 -41q16 0 17 1v-46zM238 919q-114 -128 -123 -338h825q0 208 -113 336q-113 129 -295 129q-180 0 -294 -127z" />
    <glyph glyph-name="Ecaron" unicode="&#x11a;" horiz-adv-x="1050" 
d="M247 1841h59l229 -250h2l229 250h59l-266 -287h-46zM949 0h-826v1443h826v-47h-776v-632h740v-46h-740v-671h776v-47z" />
    <glyph glyph-name="ecaron" unicode="&#x11b;" horiz-adv-x="1056" 
d="M510 1254l-265 303h56l230 -264h2l230 264h56l-265 -303h-44zM238 918q-114 -127 -123 -337h825q0 207 -112 336q-113 129 -296 129q-180 0 -294 -128zM976 299q-28 -140 -141 -225q-119 -90 -295 -90q-219 0 -346 146q-130 148 -130 408q0 250 128 402t340 152
q205 0 332 -143q126 -143 126 -375v-38h-876v-2q0 -237 117 -372q115 -132 310 -132q156 0 261 78q98 72 123 191h51z" />
    <glyph glyph-name="Gcircumflex" unicode="&#x11c;" horiz-adv-x="1332" 
d="M707 1841l266 -287h-59l-229 249h-2l-229 -249h-59l266 287h46zM1258 564q0 -272 -153 -428q-154 -156 -421 -156q-276 0 -449 209q-173 208 -173 542q0 329 171 531q171 201 451 201q213 0 369 -118q155 -118 195 -309h-49q-42 172 -183 276t-332 104q-258 0 -415 -188
t-157 -497q0 -313 159 -509q159 -195 413 -195q244 0 385 143q140 143 140 392v100h-531v46h580v-144z" />
    <glyph glyph-name="gcircumflex" unicode="&#x11d;" horiz-adv-x="1106" 
d="M845 1254h-56l-230 264h-2l-230 -264h-56l265 303h44zM820 172q116 142 116 366t-116 366t-300 142q-181 0 -293 -141q-113 -141 -113 -368q0 -225 113 -365q112 -141 293 -141q184 0 300 141zM263 -289q-109 63 -133 168h53q21 -83 117 -134q99 -53 244 -53
q175 0 282 81q110 83 110 225v318h-2q-33 -142 -144 -234q-117 -97 -272 -97q-202 0 -328 154q-126 153 -126 399t127 400q126 154 327 154q156 0 273 -98q111 -93 146 -239h2v321h46v-1076q0 -165 -125 -261q-121 -93 -319 -93q-167 0 -278 65z" />
    <glyph glyph-name="Gbreve" unicode="&#x11e;" horiz-adv-x="1332" 
d="M1258 564q0 -272 -153 -428q-154 -156 -421 -156q-276 0 -449 209q-173 208 -173 542q0 329 171 531q171 201 451 201q213 0 369 -118q155 -118 195 -309h-49q-42 172 -183 276t-332 104q-258 0 -415 -188t-157 -497q0 -313 159 -509q159 -195 413 -195q244 0 385 143
q140 143 140 392v100h-531v46h580v-144zM472 1771q0 -75 58 -125q59 -50 154 -50t154 50q58 50 58 125h45q0 -99 -73 -159q-70 -58 -184 -58t-184 58q-73 60 -73 159h45z" />
    <glyph glyph-name="gbreve" unicode="&#x11f;" horiz-adv-x="1106" 
d="M345 1490q0 -88 58 -141t155 -53t155 53t58 141h45q0 -112 -73 -176q-71 -61 -185 -61t-184 61q-74 64 -74 176h45zM820 172q116 142 116 366t-116 366t-300 142q-181 0 -293 -141q-113 -141 -113 -368q0 -225 113 -365q112 -141 293 -141q184 0 300 141zM263 -289
q-109 63 -133 168h53q21 -83 117 -134q99 -53 244 -53q175 0 282 81q110 83 110 225v318h-2q-33 -142 -144 -234q-117 -97 -272 -97q-202 0 -328 154q-126 153 -126 399t127 400q126 154 327 154q156 0 273 -98q111 -93 146 -239h2v321h46v-1076q0 -165 -125 -261
q-121 -93 -319 -93q-167 0 -278 65z" />
    <glyph glyph-name="Gdotaccent" unicode="&#x120;" horiz-adv-x="1332" 
d="M639 1575q-19 19 -19 45q0 25 19 44t45 19t45 -19t19 -44q0 -26 -19 -45t-45 -19t-45 19zM1258 564q0 -272 -153 -428q-154 -156 -421 -156q-276 0 -449 209q-173 208 -173 542q0 329 171 531q171 201 451 201q213 0 369 -118q155 -118 195 -309h-49q-42 172 -183 276
t-332 104q-258 0 -415 -188t-157 -497q0 -313 159 -509q159 -195 413 -195q244 0 385 143q140 143 140 392v100h-531v46h580v-144z" />
    <glyph glyph-name="gdotaccent" unicode="&#x121;" horiz-adv-x="1106" 
d="M513 1273q-19 20 -19 45q0 26 19 45t45 19t46 -19q19 -19 19 -45t-19 -45q-20 -19 -46 -19q-25 0 -45 19zM820 172q116 142 116 366t-116 366t-300 142q-181 0 -293 -141q-113 -141 -113 -368q0 -225 113 -365q112 -141 293 -141q184 0 300 141zM263 -289
q-109 63 -133 168h53q21 -83 117 -134q99 -53 244 -53q175 0 282 81q110 83 110 225v318h-2q-33 -142 -144 -234q-117 -97 -272 -97q-202 0 -328 154q-126 153 -126 399t127 400q126 154 327 154q156 0 273 -98q111 -93 146 -239h2v321h46v-1076q0 -165 -125 -261
q-121 -93 -319 -93q-167 0 -278 65z" />
    <glyph glyph-name="uni0122" unicode="&#x122;" horiz-adv-x="1332" 
d="M569 -480l102 338h57l-113 -338h-46zM1258 564q0 -272 -153 -428q-154 -156 -421 -156q-276 0 -449 209q-173 208 -173 542q0 329 171 531q171 201 451 201q213 0 369 -118q155 -118 195 -309h-49q-42 172 -183 276t-332 104q-258 0 -415 -188t-157 -497q0 -313 159 -509
q159 -195 413 -195q244 0 385 143q140 143 140 392v100h-531v46h580v-144z" />
    <glyph glyph-name="uni0123" unicode="&#x123;" horiz-adv-x="1106" 
d="M426 -833l102 338h57l-113 -338h-46zM820 172q116 142 116 366t-116 366t-300 142q-181 0 -293 -141q-113 -141 -113 -368q0 -225 113 -365q112 -141 293 -141q184 0 300 141zM263 -289q-109 63 -133 168h53q21 -83 117 -134q99 -53 244 -53q175 0 282 81q110 83 110 225
v318h-2q-33 -142 -144 -234q-117 -97 -272 -97q-202 0 -328 154q-126 153 -126 399t127 400q126 154 327 154q156 0 273 -98q111 -93 146 -239h2v321h46v-1076q0 -165 -125 -261q-121 -93 -319 -93q-167 0 -278 65z" />
    <glyph glyph-name="Hcircumflex" unicode="&#x124;" horiz-adv-x="1296" 
d="M1121 0v718h-948v-718h-50v1443h50v-678h948v678h50v-1443h-50zM670 1841l266 -287h-59l-229 249h-2l-229 -249h-59l266 287h46z" />
    <glyph glyph-name="hcircumflex" unicode="&#x125;" horiz-adv-x="1075" 
d="M130 1506h49v-684h2q35 120 139 195q105 75 244 75q178 0 288 -108q110 -109 110 -289v-695h-50v693q0 163 -98 259q-97 94 -256 94q-166 0 -272 -112q-107 -112 -107 -289v-645h-49v1506zM178 1904l266 -287h-59l-229 249h-2l-229 -249h-59l266 287h46z" />
    <glyph glyph-name="Hbar" unicode="&#x126;" horiz-adv-x="1373" 
d="M1159 1135h-948v-370h948v370zM1353 1135h-144v-1135h-50v718h-948v-718h-50v1135h-143v46h143v262h50v-262h948v262h50v-262h144v-46z" />
    <glyph glyph-name="hbar" unicode="&#x127;" horiz-adv-x="1152" 
d="M221 831q39 120 142 191q102 70 237 70q177 0 287 -105q112 -106 112 -283v-704h-49v694q0 158 -102 257q-100 95 -252 95q-162 0 -269 -111q-110 -114 -110 -293v-642h-50v1280h-148v44h148v186h50v-186h297v-44h-297v-449h4z" />
    <glyph glyph-name="Itilde" unicode="&#x128;" horiz-adv-x="298" 
d="M124 0v1443h50v-1443h-50zM139 1636q-78 84 -127 84q-97 0 -97 -158h-45q0 92 35 145q37 56 107 56q69 0 147 -83q78 -84 127 -84q97 0 97 158h45q0 -93 -35 -146q-37 -56 -107 -56q-69 0 -147 84z" />
    <glyph glyph-name="itilde" unicode="&#x129;" horiz-adv-x="309" 
d="M130 1076h49v-1076h-49v1076zM144 1338q-78 84 -127 84q-97 0 -97 -158h-45q0 92 35 145q37 56 107 56q69 0 147 -83q78 -84 127 -84q97 0 97 158h45q0 -93 -35 -146q-37 -56 -107 -56q-69 0 -147 84z" />
    <glyph glyph-name="Imacron" unicode="&#x12a;" horiz-adv-x="298" 
d="M124 0v1443h50v-1443h-50zM431 1616h-564v43h564v-43z" />
    <glyph glyph-name="imacron" unicode="&#x12b;" horiz-adv-x="309" 
d="M130 1076h49v-1076h-49v1076zM440 1305h-584v43h584v-43z" />
    <glyph glyph-name="Ibreve" unicode="&#x12c;" horiz-adv-x="298" 
d="M124 0v1443h50v-1443h-50zM-63 1771q0 -75 58 -125q59 -50 154 -50t154 50q58 50 58 125h45q0 -99 -73 -159q-70 -58 -184 -58t-184 58q-73 60 -73 159h45z" />
    <glyph glyph-name="ibreve" unicode="&#x12d;" horiz-adv-x="309" 
d="M130 1076h49v-1076h-49v1076zM-58 1490q0 -88 58 -141t155 -53t155 53t58 141h45q0 -112 -73 -176q-71 -61 -185 -61t-184 61q-74 64 -74 176h45z" />
    <glyph glyph-name="Iogonek" unicode="&#x12e;" horiz-adv-x="298" 
d="M13 -356q-52 51 -52 131q0 135 163 240v1428h50v-1447q-164 -102 -164 -217q0 -62 42 -100q41 -39 107 -39h15v-45q-2 -1 -25 -1q-83 0 -136 50z" />
    <glyph glyph-name="iogonek" unicode="&#x12f;" horiz-adv-x="309" 
d="M120 1380q-14 14 -14 34t14 34q15 14 35 14t34 -14t14 -34q0 -19 -14 -34q-14 -14 -34 -14t-35 14zM18 -356q-52 51 -52 131q0 135 164 240v1061h49v-1079q-164 -103 -164 -218q0 -62 42 -100q41 -39 107 -39h15v-45q-2 -1 -25 -1q-83 0 -136 50z" />
    <glyph glyph-name="Idotaccent" unicode="&#x130;" horiz-adv-x="298" 
d="M123 0v1443h50v-1443h-50zM103 1575q-19 19 -19 45q0 25 19 44t45 19t45 -19t19 -44q0 -26 -19 -45t-45 -19t-45 19z" />
    <glyph glyph-name="dotlessi" unicode="&#x131;" horiz-adv-x="309" 
d="M129 1076h49v-1076h-49v1076z" />
    <glyph glyph-name="IJ" unicode="&#x132;" horiz-adv-x="1231" 
d="M123 0v1443h50v-1443h-50zM387 315q7 -128 98 -209q92 -80 230 -80q159 0 250 95t91 263v1059h50v-1062q0 -185 -104 -293q-105 -109 -287 -109q-160 0 -266 94t-111 242h49z" />
    <glyph glyph-name="ij" unicode="&#x133;" horiz-adv-x="618" 
d="M129 1076h49v-1076h-49v1076zM119 1380q-14 14 -14 34t14 34q15 14 35 14t34 -14t14 -34q0 -19 -14 -34q-14 -14 -34 -14t-35 14zM487 -80q0 -139 -67 -202q-63 -60 -196 -60h-29v45h27q113 0 164 50q52 50 52 163v1160h49v-1156zM428 1380q-14 14 -14 34t14 34
q15 14 35 14t34 -14t14 -34q0 -19 -14 -34q-14 -14 -34 -14t-35 14z" />
    <glyph glyph-name="Jcircumflex" unicode="&#x134;" horiz-adv-x="933" 
d="M89 315q7 -128 98 -209q92 -80 230 -80q159 0 250 95t91 263v1059h50v-1062q0 -185 -104 -293q-105 -109 -287 -109q-160 0 -266 94t-111 242h49zM806 1841l266 -287h-59l-229 249h-2l-229 -249h-59l266 287h46z" />
    <glyph glyph-name="jcircumflex" unicode="&#x135;" horiz-adv-x="309" 
d="M179 -80q0 -139 -67 -202q-63 -60 -196 -60h-29v45h27q113 0 164 50q52 50 52 163v1160h49v-1156zM441 1254h-56l-230 264h-2l-230 -264h-56l265 303h44z" />
    <glyph glyph-name="uni0136" unicode="&#x136;" horiz-adv-x="1107" 
d="M123 0v1443h50v-836h4l784 836h64l-594 -635l664 -808h-64l-636 773l-222 -237v-536h-50zM409 -480l102 338h57l-113 -338h-46z" />
    <glyph glyph-name="uni0137" unicode="&#x137;" horiz-adv-x="913" 
d="M825 1076h70l-517 -463l519 -613h-65l-493 583l-161 -142v-441h-49v1506h49v-1003h2zM351 -480l102 338h57l-113 -338h-46z" />
    <glyph glyph-name="Lacute" unicode="&#x139;" horiz-adv-x="1009" 
d="M110 1554l293 287h66l-303 -287h-56zM948 0h-825v1443h50v-1396h775v-47z" />
    <glyph glyph-name="lacute" unicode="&#x13a;" horiz-adv-x="309" 
d="M116 1617l293 287h66l-303 -287h-56zM129 1506h49v-1506h-49v1506z" />
    <glyph glyph-name="uni013B" unicode="&#x13b;" horiz-adv-x="1009" 
d="M421 -480l102 338h57l-113 -338h-46zM948 0h-825v1443h50v-1396h775v-47z" />
    <glyph glyph-name="uni013C" unicode="&#x13c;" horiz-adv-x="309" 
d="M39 -480l102 338h57l-113 -338h-46zM129 1506h49v-1506h-49v1506z" />
    <glyph glyph-name="Lcaron" unicode="&#x13d;" horiz-adv-x="1009" 
d="M456 1443l-12 -355h-37v355h49zM948 0h-825v1443h50v-1396h775v-47z" />
    <glyph glyph-name="lcaron" unicode="&#x13e;" horiz-adv-x="393" 
d="M422 1476l-11 -355h-36v355h47zM129 1506h49v-1506h-49v1506z" />
    <glyph glyph-name="Lslash" unicode="&#x141;" horiz-adv-x="1046" 
d="M985 47v-47h-825v721l-128 -71v47l128 71v675h50v-648l406 224v-47l-406 -224v-701h775z" />
    <glyph glyph-name="lslash" unicode="&#x142;" horiz-adv-x="312" 
d="M297 848l-118 -73v-775h-49v745l-116 -71v51l116 71v710h49v-680l118 73v-51z" />
    <glyph glyph-name="Nacute" unicode="&#x143;" horiz-adv-x="1315" 
d="M618 1554l293 287h66l-303 -287h-56zM123 0v1443h55l958 -1348h4v1348h50v-1443h-46l-967 1359h-4v-1359h-50z" />
    <glyph glyph-name="nacute" unicode="&#x144;" horiz-adv-x="1063" 
d="M489 1254l236 303h63l-246 -303h-53zM119 1076h46v-254h2q35 121 138 195q105 75 244 75q179 0 289 -107q111 -109 111 -289v-696h-49v694q0 161 -100 258q-98 94 -258 94q-165 0 -269 -112q-105 -112 -105 -288v-646h-49v1076z" />
    <glyph glyph-name="uni0145" unicode="&#x145;" horiz-adv-x="1315" 
d="M541 -480l102 338h57l-113 -338h-46zM123 0v1443h55l958 -1348h4v1348h50v-1443h-46l-967 1359h-4v-1359h-50z" />
    <glyph glyph-name="uni0146" unicode="&#x146;" horiz-adv-x="1063" 
d="M404 -480l102 338h57l-113 -338h-46zM119 1076h46v-254h2q35 121 138 195q105 75 244 75q179 0 289 -107q111 -109 111 -289v-696h-49v694q0 161 -100 258q-98 94 -258 94q-165 0 -269 -112q-105 -112 -105 -288v-646h-49v1076z" />
    <glyph glyph-name="Ncaron" unicode="&#x147;" horiz-adv-x="1315" 
d="M367 1841h59l229 -250h2l229 250h59l-266 -287h-46zM123 0v1443h55l958 -1348h4v1348h50v-1443h-46l-967 1359h-4v-1359h-50z" />
    <glyph glyph-name="ncaron" unicode="&#x148;" horiz-adv-x="1063" 
d="M515 1254l-265 303h56l230 -264h2l230 264h56l-265 -303h-44zM119 1076h46v-254h2q35 121 138 195q105 75 244 75q179 0 289 -107q111 -109 111 -289v-696h-49v694q0 161 -100 258q-98 94 -258 94q-165 0 -269 -112q-105 -112 -105 -288v-646h-49v1076z" />
    <glyph glyph-name="Omacron" unicode="&#x14c;" horiz-adv-x="1398" 
d="M1162 1262q172 -200 172 -540q0 -341 -172 -542q-172 -200 -464 -200t-464 200q-172 201 -172 542q0 340 172 540q172 201 464 201q291 0 464 -201zM271 1228q-159 -187 -159 -506q0 -318 159 -507q159 -188 427 -188q267 0 427 188q159 189 159 507t-159 506t-427 188
q-269 0 -427 -188zM980 1616h-564v43h564v-43z" />
    <glyph glyph-name="omacron" unicode="&#x14d;" horiz-adv-x="1078" 
d="M823 1304h-584v43h584v-43zM195 134q-131 151 -131 404t131 405q130 149 343 149t343 -149q131 -152 131 -405t-131 -404q-130 -150 -343 -150q-214 0 -343 150zM846 168q117 138 117 370q0 233 -117 371q-116 137 -308 137t-307 -137q-117 -138 -117 -371t117 -370
q115 -137 307 -137t308 137z" />
    <glyph glyph-name="Obreve" unicode="&#x14e;" horiz-adv-x="1398" 
d="M1162 1262q172 -200 172 -540q0 -341 -172 -542q-172 -200 -464 -200t-464 200q-172 201 -172 542q0 340 172 540q172 201 464 201q291 0 464 -201zM271 1228q-159 -187 -159 -506q0 -318 159 -507q159 -188 427 -188q267 0 427 188q159 189 159 507t-159 506t-427 188
q-269 0 -427 -188zM486 1771q0 -75 58 -125q59 -50 154 -50t154 50q58 50 58 125h45q0 -99 -73 -159q-70 -58 -184 -58t-184 58q-73 60 -73 159h45z" />
    <glyph glyph-name="obreve" unicode="&#x14f;" horiz-adv-x="1078" 
d="M325 1489q0 -88 58 -141t155 -53t155 53t58 141h45q0 -112 -73 -176q-71 -61 -185 -61t-184 61q-74 64 -74 176h45zM195 134q-131 151 -131 404t131 405q130 149 343 149t343 -149q131 -152 131 -405t-131 -404q-130 -150 -343 -150q-214 0 -343 150zM846 168
q117 138 117 370q0 233 -117 371q-116 137 -308 137t-307 -137q-117 -138 -117 -371t117 -370q115 -137 307 -137t308 137z" />
    <glyph glyph-name="Ohungarumlaut" unicode="&#x150;" horiz-adv-x="1398" 
d="M806 1554l294 287h65l-303 -287h-56zM552 1554l293 287h66l-303 -287h-56zM1162 1262q172 -200 172 -540q0 -341 -172 -542q-172 -200 -464 -200t-464 200q-172 201 -172 542q0 340 172 540q172 201 464 201q291 0 464 -201zM271 1228q-159 -187 -159 -506
q0 -318 159 -507q159 -188 427 -188q267 0 427 188q159 189 159 507t-159 506t-427 188q-269 0 -427 -188z" />
    <glyph glyph-name="ohungarumlaut" unicode="&#x151;" horiz-adv-x="1078" 
d="M857 1556h62l-245 -303h-52zM634 1556h62l-245 -303h-52zM195 134q-131 151 -131 404t131 405q130 149 343 149t343 -149q131 -152 131 -405t-131 -404q-130 -150 -343 -150q-214 0 -343 150zM846 168q117 138 117 370q0 233 -117 371q-116 137 -308 137t-307 -137
q-117 -138 -117 -371t117 -370q115 -137 307 -137t308 137z" />
    <glyph glyph-name="OE" unicode="&#x152;" horiz-adv-x="2167" 
d="M273 1228q-161 -189 -161 -506t161 -506q160 -189 431 -189t431 189q161 188 161 506q0 317 -161 506q-161 188 -431 188q-271 0 -431 -188zM1296 414q-65 -208 -219 -321q-155 -113 -373 -113q-297 0 -469 199q-173 200 -173 543t173 542q172 199 469 199
q218 0 373 -113q154 -113 219 -320v413h797v-47h-747v-632h711v-46h-711v-671h747v-47h-797v414z" />
    <glyph glyph-name="oe" unicode="&#x153;" horiz-adv-x="1955" 
d="M1136 94q-123 108 -146 275h-5q-23 -172 -145 -279q-124 -109 -302 -109q-216 0 -345 149q-129 150 -129 404q0 255 130 405q129 150 344 150q177 0 301 -108q122 -107 146 -276h5q23 168 144 276q124 111 297 111q205 0 332 -143q126 -142 126 -374v-40h-876v-2
q0 -226 116 -364q117 -139 311 -139q155 0 260 78q98 72 124 191h51q-28 -140 -141 -225q-119 -90 -294 -90q-178 0 -304 110zM1839 580q0 206 -114 336q-113 130 -294 130q-178 0 -293 -128q-115 -129 -124 -338h825zM231 164q115 -137 307 -137t308 137q117 139 117 370
q0 233 -117 372q-116 137 -308 137t-307 -137q-117 -139 -117 -372q0 -232 117 -370z" />
    <glyph glyph-name="Racute" unicode="&#x154;" horiz-adv-x="1124" 
d="M444 1554l293 287h66l-303 -287h-56zM173 676h397q193 0 303 96q111 97 111 264q0 170 -110 265t-305 95h-396v-720zM173 0h-50v1443h448q216 0 340 -109q124 -108 124 -298q0 -158 -92 -262q-92 -106 -255 -134l381 -640h-57l-376 632q-36 -2 -66 -2h-397v-630z" />
    <glyph glyph-name="racute" unicode="&#x155;" horiz-adv-x="603" 
d="M285 1254l236 303h63l-246 -303h-53zM119 1076h46v-223h2q72 239 297 239q59 0 108 -21v-51q-50 25 -116 25q-132 0 -211 -106q-77 -103 -77 -269v-670h-49v1076z" />
    <glyph glyph-name="uni0156" unicode="&#x156;" horiz-adv-x="1124" 
d="M173 676h397q193 0 303 96q111 97 111 264q0 170 -110 265t-305 95h-396v-720zM173 0h-50v1443h448q216 0 340 -109q124 -108 124 -298q0 -158 -92 -262q-92 -106 -255 -134l381 -640h-57l-376 632q-36 -2 -66 -2h-397v-630zM367 -480l102 338h57l-113 -338h-46z" />
    <glyph glyph-name="uni0157" unicode="&#x157;" horiz-adv-x="603" 
d="M119 1076h46v-223h2q72 239 297 239q59 0 108 -21v-51q-50 25 -116 25q-132 0 -211 -106q-77 -103 -77 -269v-670h-49v1076zM29 -480l102 338h57l-113 -338h-46z" />
    <glyph glyph-name="Rcaron" unicode="&#x158;" horiz-adv-x="1124" 
d="M173 676h397q193 0 303 96q111 97 111 264q0 170 -110 265t-305 95h-396v-720zM173 0h-50v1443h448q216 0 340 -109q124 -108 124 -298q0 -158 -92 -262q-92 -106 -255 -134l381 -640h-57l-376 632q-36 -2 -66 -2h-397v-630zM193 1841h59l229 -250h2l229 250h59
l-266 -287h-46z" />
    <glyph glyph-name="rcaron" unicode="&#x159;" horiz-adv-x="603" 
d="M311 1254l-265 303h56l230 -264h2l230 264h56l-265 -303h-44zM119 1076h46v-223h2q72 239 297 239q59 0 108 -21v-51q-50 25 -116 25q-132 0 -211 -106q-77 -103 -77 -269v-670h-49v1076z" />
    <glyph glyph-name="Sacute" unicode="&#x15a;" horiz-adv-x="1114" 
d="M514 1554l293 287h66l-303 -287h-56zM101 382q8 -156 140 -256q131 -100 329 -100q193 0 317 100q122 99 122 251q0 120 -85 193t-277 121l-167 42q-202 50 -295 134q-94 83 -94 215q0 163 136 273q134 108 325 108q200 0 337 -104q135 -103 142 -257h-50
q-7 135 -129 225t-300 90q-172 0 -290 -94q-121 -97 -121 -241q0 -114 86 -186q84 -70 269 -116l165 -41q207 -52 301 -135q97 -86 97 -225q0 -175 -136 -286q-137 -113 -355 -113q-219 0 -364 113t-153 289h50z" />
    <glyph glyph-name="sacute" unicode="&#x15b;" horiz-adv-x="905" 
d="M197 1013q104 79 256 79q161 0 263 -89q101 -88 115 -239h-48q-14 126 -99 203q-90 79 -231 79q-129 0 -219 -66q-94 -68 -94 -171q0 -85 58 -135q56 -47 181 -76l167 -40q160 -39 231 -104q71 -66 71 -175q0 -131 -110 -213t-281 -82q-169 0 -283 94q-111 91 -119 226
h50q10 -115 108 -194q100 -80 243 -80q145 0 242 68q100 69 100 178q0 93 -62 148t-205 89l-169 39q-138 33 -203 92q-68 63 -68 164q0 124 106 205zM405 1254l236 303h63l-246 -303h-53z" />
    <glyph glyph-name="Scircumflex" unicode="&#x15c;" horiz-adv-x="1114" 
d="M101 382q8 -156 140 -256q131 -100 329 -100q193 0 317 100q122 99 122 251q0 120 -85 193t-277 121l-167 42q-202 50 -295 134q-94 83 -94 215q0 163 136 273q134 108 325 108q200 0 337 -104q135 -103 142 -257h-50q-7 135 -129 225t-300 90q-172 0 -290 -94
q-121 -97 -121 -241q0 -114 86 -186q84 -70 269 -116l165 -41q207 -52 301 -135q97 -86 97 -225q0 -175 -136 -286q-137 -113 -355 -113q-219 0 -364 113t-153 289h50zM575 1841l266 -287h-59l-229 249h-2l-229 -249h-59l266 287h46z" />
    <glyph glyph-name="scircumflex" unicode="&#x15d;" horiz-adv-x="905" 
d="M740 1254h-56l-230 264h-2l-230 -264h-56l265 303h44zM197 1013q104 79 256 79q161 0 263 -89q101 -88 115 -239h-48q-14 126 -99 203q-90 79 -231 79q-129 0 -219 -66q-94 -68 -94 -171q0 -85 58 -135q56 -47 181 -76l167 -40q160 -39 231 -104q71 -66 71 -175
q0 -131 -110 -213t-281 -82q-169 0 -283 94q-111 91 -119 226h50q10 -115 108 -194q100 -80 243 -80q145 0 242 68q100 69 100 178q0 93 -62 148t-205 89l-169 39q-138 33 -203 92q-68 63 -68 164q0 124 106 205z" />
    <glyph glyph-name="Scedilla" unicode="&#x15e;" horiz-adv-x="1114" 
d="M661 739q207 -52 301 -135q97 -86 97 -225q0 -171 -131 -282q-132 -113 -344 -117l-51 -120q94 0 150 -42t56 -112q0 -74 -60 -121q-60 -46 -156 -47q-76 0 -122 17v43q45 -17 121 -17q72 0 122 36q49 36 49 88q0 113 -164 113h-50v33l58 130q-208 8 -343 120
q-135 111 -143 281h50q8 -156 140 -256q131 -100 329 -100q193 0 317 100q122 99 122 251q0 120 -85 193t-277 121l-167 42q-202 50 -295 134q-94 83 -94 215q0 163 136 273q134 108 325 108q200 0 337 -104q135 -103 142 -257h-50q-7 135 -129 225t-300 90q-172 0 -290 -94
q-121 -97 -121 -241q0 -114 86 -186q84 -70 269 -116z" />
    <glyph glyph-name="scedilla" unicode="&#x15f;" horiz-adv-x="905" 
d="M546 558q160 -39 231 -104q71 -66 71 -175q0 -127 -105 -209q-104 -81 -269 -86l-52 -124q94 0 150 -42t56 -112q0 -74 -60 -121q-60 -46 -156 -47q-76 0 -122 17v43q45 -17 121 -17q72 0 122 36q49 36 49 88q0 113 -164 113h-50v33l60 134q-159 9 -263 101
q-102 90 -110 218h50q10 -115 108 -194q100 -80 243 -80q145 0 242 68q100 69 100 178q0 93 -62 148t-205 89l-169 39q-138 33 -203 92q-68 63 -68 164q0 124 106 205q104 79 256 79q161 0 263 -89q101 -88 115 -239h-48q-14 126 -99 203q-90 79 -231 79q-129 0 -219 -66
q-94 -68 -94 -171q0 -85 58 -135q56 -47 181 -76z" />
    <glyph glyph-name="Scaron" unicode="&#x160;" horiz-adv-x="1114" 
d="M101 382q8 -156 140 -256q131 -100 329 -100q193 0 317 100q122 99 122 251q0 120 -85 193t-277 121l-167 42q-202 50 -295 134q-94 83 -94 215q0 163 136 273q134 108 325 108q200 0 337 -104q135 -103 142 -257h-50q-7 135 -129 225t-300 90q-172 0 -290 -94
q-121 -97 -121 -241q0 -114 86 -186q84 -70 269 -116l165 -41q207 -52 301 -135q97 -86 97 -225q0 -175 -136 -286q-137 -113 -355 -113q-219 0 -364 113t-153 289h50zM263 1841h59l229 -250h2l229 250h59l-266 -287h-46z" />
    <glyph glyph-name="scaron" unicode="&#x161;" horiz-adv-x="905" 
d="M431 1254l-265 303h56l230 -264h2l230 264h56l-265 -303h-44zM197 1013q104 79 256 79q161 0 263 -89q101 -88 115 -239h-48q-14 126 -99 203q-90 79 -231 79q-129 0 -219 -66q-94 -68 -94 -171q0 -85 58 -135q56 -47 181 -76l167 -40q160 -39 231 -104q71 -66 71 -175
q0 -131 -110 -213t-281 -82q-169 0 -283 94q-111 91 -119 226h50q10 -115 108 -194q100 -80 243 -80q145 0 242 68q100 69 100 178q0 93 -62 148t-205 89l-169 39q-138 33 -203 92q-68 63 -68 164q0 124 106 205z" />
    <glyph glyph-name="uni0162" unicode="&#x162;" horiz-adv-x="1117" 
d="M582 0l-59 -140q94 0 150 -42t56 -112q0 -74 -60 -121q-60 -46 -156 -47q-76 0 -122 17v43q45 -17 121 -17q72 0 122 36q49 36 49 88q0 113 -164 113h-50v33l66 149h-1v1396h-521v47h1091v-47h-521v-1396h-1z" />
    <glyph glyph-name="uni0163" unicode="&#x163;" horiz-adv-x="527" 
d="M315 -140q94 0 150 -42t56 -112q0 -74 -60 -121q-60 -46 -156 -47q-76 0 -122 17v43q45 -17 121 -17q72 0 122 36q49 36 49 88q0 113 -164 113h-50v33l68 153q-150 25 -150 230v797h-160v45h160v288h49v-288h228v-45h-228v-796q0 -102 39 -146q38 -44 124 -44l83 1v-46
l-100 -1z" />
    <glyph glyph-name="Tcaron" unicode="&#x164;" horiz-adv-x="1117" 
d="M270 1841h59l229 -250h2l229 250h59l-266 -287h-46zM534 0v1396h-521v47h1091v-47h-521v-1396h-49z" />
    <glyph glyph-name="tcaron" unicode="&#x165;" horiz-adv-x="637" 
d="M416 1590l-11 -355h-36v355h47zM228 1364v-288h228v-45h-228v-796q0 -102 39 -146q38 -44 124 -44l83 1v-46l-86 -1q-110 0 -159 55q-50 55 -50 180v797h-160v45h160v288h49z" />
    <glyph glyph-name="Tbar" unicode="&#x166;" horiz-adv-x="1120" 
d="M583 1396v-617h302v-45h-302v-734h-49v734h-299v45h299v617h-521v47h1091v-47h-521z" />
    <glyph glyph-name="tbar" unicode="&#x167;" horiz-adv-x="527" 
d="M228 235q0 -102 39 -146q38 -44 124 -44l83 1v-46l-86 -1q-110 0 -159 55q-50 55 -50 180v394h-160v45h160v358h-160v45h160v288h49v-288h228v-45h-228v-358h228v-45h-228v-393z" />
    <glyph glyph-name="Utilde" unicode="&#x168;" horiz-adv-x="1305" 
d="M173 500q0 -218 130 -346q129 -127 349 -127q221 0 350 127q130 128 130 346v943h50v-944q0 -237 -143 -378q-144 -141 -387 -141t-386 141t-143 378v944h50v-943zM642 1636q-78 84 -127 84q-97 0 -97 -158h-45q0 92 35 145q37 56 107 56q69 0 147 -83q78 -84 127 -84
q97 0 97 158h45q0 -93 -35 -146q-37 -56 -107 -56q-69 0 -147 84z" />
    <glyph glyph-name="utilde" unicode="&#x169;" horiz-adv-x="1063" 
d="M943 0h-46v251h-2q-33 -114 -142 -190q-112 -77 -248 -77q-175 0 -283 106q-110 107 -110 285v701h49v-694q0 -164 98 -259q95 -92 252 -92q163 0 271 107q111 111 111 289v649h50v-1076zM516 1337q-78 84 -127 84q-97 0 -97 -158h-45q0 92 35 145q37 56 107 56
q69 0 147 -83q78 -84 127 -84q97 0 97 158h45q0 -93 -35 -146q-37 -56 -107 -56q-69 0 -147 84z" />
    <glyph glyph-name="Umacron" unicode="&#x16a;" horiz-adv-x="1305" 
d="M173 500q0 -218 130 -346q129 -127 349 -127q221 0 350 127q130 128 130 346v943h50v-944q0 -237 -143 -378q-144 -141 -387 -141t-386 141t-143 378v944h50v-943zM934 1616h-564v43h564v-43z" />
    <glyph glyph-name="umacron" unicode="&#x16b;" horiz-adv-x="1063" 
d="M943 0h-46v251h-2q-33 -114 -142 -190q-112 -77 -248 -77q-175 0 -283 106q-110 107 -110 285v701h49v-694q0 -164 98 -259q95 -92 252 -92q163 0 271 107q111 111 111 289v649h50v-1076zM812 1304h-584v43h584v-43z" />
    <glyph glyph-name="Ubreve" unicode="&#x16c;" horiz-adv-x="1305" 
d="M173 500q0 -218 130 -346q129 -127 349 -127q221 0 350 127q130 128 130 346v943h50v-944q0 -237 -143 -378q-144 -141 -387 -141t-386 141t-143 378v944h50v-943zM440 1771q0 -75 58 -125q59 -50 154 -50t154 50q58 50 58 125h45q0 -99 -73 -159q-70 -58 -184 -58
t-184 58q-73 60 -73 159h45z" />
    <glyph glyph-name="ubreve" unicode="&#x16d;" horiz-adv-x="1063" 
d="M943 0h-46v251h-2q-33 -114 -142 -190q-112 -77 -248 -77q-175 0 -283 106q-110 107 -110 285v701h49v-694q0 -164 98 -259q95 -92 252 -92q163 0 271 107q111 111 111 289v649h50v-1076zM314 1489q0 -88 58 -141t155 -53t155 53t58 141h45q0 -112 -73 -176
q-71 -61 -185 -61t-184 61q-74 64 -74 176h45z" />
    <glyph glyph-name="Uring" unicode="&#x16e;" horiz-adv-x="1305" 
d="M535 1555q-48 49 -48 117t48 116q49 49 117 49q67 0 116 -49q48 -48 48 -116t-48 -117q-49 -49 -116 -49q-68 0 -117 49zM742 1582q36 37 36 90t-36 90q-37 37 -90 37q-54 0 -90 -37q-37 -37 -37 -90t37 -90q36 -37 90 -37q53 0 90 37zM173 500q0 -218 130 -346
q129 -127 349 -127q221 0 350 127q130 128 130 346v943h50v-944q0 -237 -143 -378q-144 -141 -387 -141t-386 141t-143 378v944h50v-943z" />
    <glyph glyph-name="uring" unicode="&#x16f;" horiz-adv-x="1063" 
d="M943 0h-46v251h-2q-33 -114 -142 -190q-112 -77 -248 -77q-175 0 -283 106q-110 107 -110 285v701h49v-694q0 -164 98 -259q95 -92 252 -92q163 0 271 107q111 111 111 289v649h50v-1076zM410 1297q-48 49 -48 117t48 116q49 49 117 49q67 0 116 -49q48 -48 48 -116
t-48 -117q-49 -49 -116 -49q-68 0 -117 49zM617 1324q36 37 36 90t-36 90q-37 37 -90 37q-54 0 -90 -37q-37 -37 -37 -90t37 -90q36 -37 90 -37q53 0 90 37z" />
    <glyph glyph-name="Uhungarumlaut" unicode="&#x170;" horiz-adv-x="1305" 
d="M173 500q0 -218 130 -346q129 -127 349 -127q221 0 350 127q130 128 130 346v943h50v-944q0 -237 -143 -378q-144 -141 -387 -141t-386 141t-143 378v944h50v-943zM760 1554l294 287h65l-303 -287h-56zM506 1554l293 287h66l-303 -287h-56z" />
    <glyph glyph-name="uhungarumlaut" unicode="&#x171;" horiz-adv-x="1063" 
d="M846 1556h62l-245 -303h-52zM623 1556h62l-245 -303h-52zM943 0h-46v251h-2q-33 -114 -142 -190q-112 -77 -248 -77q-175 0 -283 106q-110 107 -110 285v701h49v-694q0 -164 98 -259q95 -92 252 -92q163 0 271 107q111 111 111 289v649h50v-1076z" />
    <glyph glyph-name="Uogonek" unicode="&#x172;" horiz-adv-x="1307" 
d="M838 -406q-83 0 -136 50q-53 51 -53 130q0 119 137 219v4q-59 -17 -134 -17q-242 0 -386 140q-143 141 -143 379v944h50v-943q0 -213 132 -343q131 -130 347 -130q215 0 348 130q132 131 132 343v943h50v-944q0 -172 -73 -287q-72 -113 -242 -213q-168 -101 -168 -220
q0 -62 42 -100q41 -39 107 -39h16v-45z" />
    <glyph glyph-name="uogonek" unicode="&#x173;" horiz-adv-x="1063" 
d="M943 -405q-2 -1 -25 -1q-83 0 -136 50q-52 51 -52 131q0 133 166 240v230h-4q-40 -121 -143 -191t-243 -70q-176 0 -285 107t-109 280v705h49v-691q0 -160 96 -257t254 -97q167 0 275 112q107 113 107 289v644h50v-1079q-164 -102 -164 -218q0 -61 41 -100
q42 -39 107 -39h16v-45z" />
    <glyph glyph-name="Wcircumflex" unicode="&#x174;" horiz-adv-x="1777" 
d="M910 1841l266 -287h-59l-229 249h-2l-229 -249h-59l266 287h46zM487 0h-41l-406 1443h52l374 -1344h4l396 1344h43l395 -1344h5l374 1344h51l-406 -1443h-40l-398 1338h-5z" />
    <glyph glyph-name="wcircumflex" unicode="&#x175;" horiz-adv-x="1406" 
d="M990 1254h-56l-230 264h-2l-230 -264h-56l265 303h44zM1087 0h-66l-317 1016h-2l-317 -1016h-66l-317 1076h55l294 -1021h2l317 1021h66l317 -1021h2l294 1021h55z" />
    <glyph glyph-name="Ycircumflex" unicode="&#x176;" horiz-adv-x="1148" 
d="M549 0v631l-529 812h60l492 -758h4l491 758h59l-527 -812v-631h-50zM596 1841l266 -287h-59l-229 249h-2l-229 -249h-59l266 287h46z" />
    <glyph glyph-name="ycircumflex" unicode="&#x177;" horiz-adv-x="888" 
d="M131 -334v47q23 -9 53 -9q70 0 116 47q45 45 89 158l28 72l-415 1095h54l387 -1029h2l388 1029h54l-417 -1101q-74 -195 -130 -256q-56 -62 -162 -62q-26 0 -47 9zM731 1253h-56l-230 264h-2l-230 -264h-56l265 303h44z" />
    <glyph glyph-name="Ydieresis" unicode="&#x178;" horiz-adv-x="1148" 
d="M549 0v631l-529 812h60l492 -758h4l491 758h59l-527 -812v-631h-50zM395 1572q-16 16 -16 38t16 37q16 16 39 16q22 0 38 -16q16 -15 16 -37t-16 -38t-38 -16t-39 16zM674 1572q-16 16 -16 38t16 37q16 16 38 16q23 0 39 -16q16 -15 16 -37t-16 -38q-17 -16 -39 -16
t-38 16z" />
    <glyph glyph-name="Zacute" unicode="&#x179;" horiz-adv-x="1147" 
d="M534 1554l293 287h66l-303 -287h-56zM63 42l954 1350v4h-925v47h989v-43l-953 -1349v-4h954v-47h-1019v42z" />
    <glyph glyph-name="zacute" unicode="&#x17a;" horiz-adv-x="910" 
d="M406 1253l236 303h63l-246 -303h-53zM57 47l734 982v2h-734v45h794v-47l-736 -982v-2h736v-45h-794v47z" />
    <glyph glyph-name="Zdotaccent" unicode="&#x17b;" horiz-adv-x="1147" 
d="M527 1575q-19 19 -19 45q0 25 19 44t45 19t45 -19t19 -44q0 -26 -19 -45t-45 -19t-45 19zM63 42l954 1350v4h-925v47h989v-43l-953 -1349v-4h954v-47h-1019v42z" />
    <glyph glyph-name="zdotaccent" unicode="&#x17c;" horiz-adv-x="910" 
d="M409 1272q-19 20 -19 45q0 26 19 45t45 19t46 -19q19 -19 19 -45t-19 -45q-20 -19 -46 -19q-25 0 -45 19zM57 47l734 982v2h-734v45h794v-47l-736 -982v-2h736v-45h-794v47z" />
    <glyph glyph-name="Zcaron" unicode="&#x17d;" horiz-adv-x="1147" 
d="M63 42l954 1350v4h-925v47h989v-43l-953 -1349v-4h954v-47h-1019v42zM283 1841h59l229 -250h2l229 250h59l-266 -287h-46z" />
    <glyph glyph-name="zcaron" unicode="&#x17e;" horiz-adv-x="910" 
d="M432 1253l-265 303h56l230 -264h2l230 264h56l-265 -303h-44zM57 47l734 982v2h-734v45h794v-47l-736 -982v-2h736v-45h-794v47z" />
    <glyph glyph-name="florin" unicode="&#x192;" horiz-adv-x="1179" 
d="M1132 1381q-52 36 -158 36q-124 0 -194 -72q-71 -72 -98 -228l-53 -308h431v-46h-439l-77 -441q-31 -176 -112 -258q-83 -83 -227 -83q-102 0 -161 35v48q65 -37 159 -37q124 0 194 72q69 73 97 230l76 434h-415v46h423l54 313q31 177 113 259t226 82q108 0 161 -33v-49z
" />
    <glyph glyph-name="Ohorn" unicode="&#x1a0;" horiz-adv-x="1436" 
d="M271 1228q-159 -189 -159 -506t159 -506t427 -189q267 0 427 189q159 189 159 506t-159 506q-160 188 -427 188q-268 0 -427 -188zM1163 179q-170 -199 -465 -199t-465 199q-171 199 -171 542q0 344 171 543q172 199 468 199q159 0 320 -75q162 -75 217 -75
q111 0 111 138v136h48v-140q0 -85 -40 -131q-41 -47 -114 -47q-54 0 -106 26l-4 -4q201 -201 201 -570q0 -343 -171 -542z" />
    <glyph glyph-name="ohorn" unicode="&#x1a1;" horiz-adv-x="1157" 
d="M847 170q116 138 116 368t-116 369q-117 139 -310 139t-308 -138q-116 -139 -116 -370q0 -230 116 -369q115 -138 308 -138t310 139zM883 134q-128 -150 -345 -150t-346 151t-129 404q0 254 130 404q129 149 349 149q148 0 270 -84q123 -85 171 -85q114 0 114 138v135h49
v-138q0 -181 -153 -181q-33 0 -65 13l-4 -3q88 -140 88 -349q0 -253 -129 -404z" />
    <glyph glyph-name="Uhorn" unicode="&#x1af;" horiz-adv-x="1456" 
d="M1182 1315q3 -3 69 -3q78 0 112 37q34 36 34 119v119h49v-128q0 -192 -192 -192q-69 0 -72 3v-771q0 -238 -143 -379q-144 -140 -387 -140q-242 0 -386 140q-143 141 -143 379v944h50v-943q0 -213 132 -343q131 -130 347 -130q217 0 348 130q132 130 132 343v943h50v-128
z" />
    <glyph glyph-name="uhorn" unicode="&#x1b0;" horiz-adv-x="1198" 
d="M892 245q-40 -121 -143 -191t-243 -70q-176 0 -285 107t-109 280v705h49v-691q0 -160 96 -257t254 -97q167 0 275 112q107 113 107 289v644h50v-152q1 -2 57 -2q78 0 112 36t34 119v119h49v-128q0 -192 -192 -192q-57 0 -60 3v-879h-47v245h-4z" />
    <glyph glyph-name="uni01C4" unicode="&#x1c4;" horiz-adv-x="2459" 
d="M559 1443q330 0 510 -188t180 -533q0 -346 -180 -534t-510 -188h-436v1443h436zM174 47h384q308 0 475 175q166 175 166 500q0 324 -166 499q-167 175 -475 175h-384v-1349zM1376 42l954 1350v4h-925v47h989v-43l-953 -1349v-4h954v-47h-1019v42zM1596 1841h59l229 -250
h2l229 250h59l-266 -287h-46z" />
    <glyph glyph-name="uni01C5" unicode="&#x1c5;" horiz-adv-x="2223" 
d="M559 1443q330 0 510 -188t180 -533q0 -346 -180 -534t-510 -188h-436v1443h436zM174 47h384q308 0 475 175q166 175 166 500q0 324 -166 499q-167 175 -475 175h-384v-1349zM1745 1253l-265 303h56l230 -264h2l230 264h56l-265 -303h-44zM1370 47l734 982v2h-734v45h794
v-47l-736 -982v-2h736v-45h-794v47z" />
    <glyph glyph-name="uni01C6" unicode="&#x1c6;" horiz-adv-x="2036" 
d="M193 138q-129 155 -129 400q0 246 129 400q128 154 330 154q156 0 274 -97q114 -93 146 -234h2v745h50v-1506h-46v322h-2q-35 -146 -149 -240q-119 -98 -275 -98q-202 0 -330 154zM229 905q-115 -141 -115 -366q0 -226 115 -367t296 -141q184 0 302 141q118 142 118 366
t-118 366t-302 142q-181 0 -296 -141zM1558 1253l-265 303h56l230 -264h2l230 264h56l-265 -303h-44zM1183 47l734 982v2h-734v45h794v-47l-736 -982v-2h736v-45h-794v47z" />
    <glyph glyph-name="uni01C7" unicode="&#x1c7;" horiz-adv-x="1934" 
d="M1090 315q7 -128 98 -209q92 -80 230 -80q159 0 250 95t91 263v1059h50v-1062q0 -185 -104 -293q-105 -109 -287 -109q-160 0 -266 94t-111 242h49zM948 0h-825v1443h50v-1396h775v-47z" />
    <glyph glyph-name="uni01C8" unicode="&#x1c8;" horiz-adv-x="1310" 
d="M1179 -80q0 -139 -67 -202q-63 -60 -196 -60h-29v45h27q113 0 164 50q52 50 52 163v1160h49v-1156zM1120 1380q-14 14 -14 34t14 34q15 14 35 14t34 -14t14 -34q0 -19 -14 -34q-14 -14 -34 -14t-35 14zM948 0h-825v1443h50v-1396h775v-47z" />
    <glyph glyph-name="uni01C9" unicode="&#x1c9;" horiz-adv-x="618" 
d="M487 -80q0 -139 -67 -202q-63 -60 -196 -60h-29v45h27q113 0 164 50q52 50 52 163v1160h49v-1156zM428 1380q-14 14 -14 34t14 34q15 14 35 14t34 -14t14 -34q0 -19 -14 -34q-14 -14 -34 -14t-35 14zM129 1506h49v-1506h-49v1506z" />
    <glyph glyph-name="uni01CA" unicode="&#x1ca;" horiz-adv-x="2248" 
d="M1404 315q7 -128 98 -209q92 -80 230 -80q159 0 250 95t91 263v1059h50v-1062q0 -185 -104 -293q-105 -109 -287 -109q-160 0 -266 94t-111 242h49zM123 0v1443h55l958 -1348h4v1348h50v-1443h-46l-967 1359h-4v-1359h-50z" />
    <glyph glyph-name="uni01CB" unicode="&#x1cb;" horiz-adv-x="1624" 
d="M1493 -80q0 -139 -67 -202q-63 -60 -196 -60h-29v45h27q113 0 164 50q52 50 52 163v1160h49v-1156zM1434 1380q-14 14 -14 34t14 34q15 14 35 14t34 -14t14 -34q0 -19 -14 -34q-14 -14 -34 -14t-35 14zM123 0v1443h55l958 -1348h4v1348h50v-1443h-46l-967 1359h-4v-1359
h-50z" />
    <glyph glyph-name="uni01CC" unicode="&#x1cc;" horiz-adv-x="1372" 
d="M1241 -80q0 -139 -67 -202q-63 -60 -196 -60h-29v45h27q113 0 164 50q52 50 52 163v1160h49v-1156zM1182 1380q-14 14 -14 34t14 34q15 14 35 14t34 -14t14 -34q0 -19 -14 -34q-14 -14 -34 -14t-35 14zM119 1076h46v-254h2q35 121 138 195q105 75 244 75q179 0 289 -107
q111 -109 111 -289v-696h-49v694q0 161 -100 258q-98 94 -258 94q-165 0 -269 -112q-105 -112 -105 -288v-646h-49v1076z" />
    <glyph glyph-name="uni01CD" unicode="&#x1cd;" horiz-adv-x="1201" 
d="M935 501h-671l-190 -501h-55l555 1443h51l555 -1443h-56zM282 547h635l-315 827h-5zM310 1841h59l229 -250h2l229 250h59l-266 -287h-46z" />
    <glyph glyph-name="uni01CE" unicode="&#x1ce;" horiz-adv-x="1021" 
d="M738 138q120 107 120 258v182l-381 -29q-338 -26 -338 -263q0 -111 88 -183q87 -73 221 -73q169 0 290 108zM189 69q-100 84 -100 217q0 276 380 306l389 30v97q0 153 -86 240q-87 87 -239 87q-151 0 -244 -74t-114 -209h-47q17 153 126 241t279 88q173 0 274 -99
q100 -100 100 -271v-722h-49v245h-1q-39 -116 -153 -188q-115 -73 -259 -73q-157 0 -256 85zM510 1254l-265 303h56l230 -264h2l230 264h56l-265 -303h-44z" />
    <glyph glyph-name="uni01CF" unicode="&#x1cf;" horiz-adv-x="298" 
d="M124 0v1443h50v-1443h-50zM-140 1841h59l229 -250h2l229 250h59l-266 -287h-46z" />
    <glyph glyph-name="uni01D0" unicode="&#x1d0;" horiz-adv-x="309" 
d="M133 1254l-265 303h56l230 -264h2l230 264h56l-265 -303h-44zM130 1076h49v-1076h-49v1076z" />
    <glyph glyph-name="uni01D1" unicode="&#x1d1;" horiz-adv-x="1398" 
d="M409 1841h59l229 -250h2l229 250h59l-266 -287h-46zM1162 1262q172 -200 172 -540q0 -341 -172 -542q-172 -200 -464 -200t-464 200q-172 201 -172 542q0 340 172 540q172 201 464 201q291 0 464 -201zM271 1228q-159 -187 -159 -506q0 -318 159 -507q159 -188 427 -188
q267 0 427 188q159 189 159 507t-159 506t-427 188q-269 0 -427 -188z" />
    <glyph glyph-name="uni01D2" unicode="&#x1d2;" horiz-adv-x="1078" 
d="M516 1253l-265 303h56l230 -264h2l230 264h56l-265 -303h-44zM195 134q-131 151 -131 404t131 405q130 149 343 149t343 -149q131 -152 131 -405t-131 -404q-130 -150 -343 -150q-214 0 -343 150zM846 168q117 138 117 370q0 233 -117 371q-116 137 -308 137t-307 -137
q-117 -138 -117 -371t117 -370q115 -137 307 -137t308 137z" />
    <glyph glyph-name="uni01D3" unicode="&#x1d3;" horiz-adv-x="1305" 
d="M363 1841h59l229 -250h2l229 250h59l-266 -287h-46zM173 500q0 -218 130 -346q129 -127 349 -127q221 0 350 127q130 128 130 346v943h50v-944q0 -237 -143 -378q-144 -141 -387 -141t-386 141t-143 378v944h50v-943z" />
    <glyph glyph-name="uni01D4" unicode="&#x1d4;" horiz-adv-x="1063" 
d="M505 1253l-265 303h56l230 -264h2l230 264h56l-265 -303h-44zM943 0h-46v251h-2q-33 -114 -142 -190q-112 -77 -248 -77q-175 0 -283 106q-110 107 -110 285v701h49v-694q0 -164 98 -259q95 -92 252 -92q163 0 271 107q111 111 111 289v649h50v-1076z" />
    <glyph glyph-name="uni01D5" unicode="&#x1d5;" horiz-adv-x="1305" 
d="M173 500q0 -218 130 -346q129 -127 349 -127q221 0 350 127q130 128 130 346v943h50v-944q0 -237 -143 -378q-144 -141 -387 -141t-386 141t-143 378v944h50v-943zM551 1646q16 -15 16 -37t-16 -37t-38 -15t-37 15q-16 15 -16 37t16 37q15 16 37 16t38 -16zM934 1888v-42
h-564v42h564zM828 1646q16 -15 16 -37t-16 -37q-15 -15 -37 -15t-38 15t-16 37t16 37q16 16 38 16t37 -16z" />
    <glyph glyph-name="uni01D6" unicode="&#x1d6;" horiz-adv-x="1063" 
d="M943 0h-46v251h-2q-33 -114 -142 -190q-112 -77 -248 -77q-175 0 -283 106q-110 107 -110 285v701h49v-694q0 -164 98 -259q95 -92 252 -92q163 0 271 107q111 111 111 289v649h50v-1076zM350 1269q-16 16 -16 38t16 37q16 16 38 16t38 -16q16 -15 16 -37t-16 -38
t-38 -16t-38 16zM628 1269q-16 16 -16 38t16 37q16 16 38 16t38 -16q16 -15 16 -37t-16 -38q-15 -16 -38 -16q-22 0 -38 16zM812 1584h-584v43h584v-43z" />
    <glyph glyph-name="uni01D7" unicode="&#x1d7;" horiz-adv-x="1305" 
d="M822 1957h63l-221 -202h-56zM476 1572q-16 15 -16 37t16 37q15 16 37 16t38 -16q16 -15 16 -37t-16 -37t-38 -15t-37 15zM753 1572q-16 15 -16 37t16 37q16 16 38 16t37 -16q16 -15 16 -37t-16 -37q-15 -15 -37 -15t-38 15zM173 500q0 -218 130 -346q129 -127 349 -127
q221 0 350 127q130 128 130 346v943h50v-944q0 -237 -143 -378q-144 -141 -387 -141t-386 141t-143 378v944h50v-943z" />
    <glyph glyph-name="uni01D8" unicode="&#x1d8;" horiz-adv-x="1063" 
d="M728 1802h66l-252 -291h-54zM349 1269q-16 16 -16 38t16 37q16 16 39 16q22 0 38 -16q16 -15 16 -37t-16 -38t-38 -16t-39 16zM628 1269q-16 16 -16 38t16 37q16 16 38 16q23 0 39 -16q16 -15 16 -37t-16 -38q-17 -16 -39 -16t-38 16zM943 0h-46v251h-2
q-33 -114 -142 -190q-112 -77 -248 -77q-175 0 -283 106q-110 107 -110 285v701h49v-694q0 -164 98 -259q95 -92 252 -92q163 0 271 107q111 111 111 289v649h50v-1076z" />
    <glyph glyph-name="uni01D9" unicode="&#x1d9;" horiz-adv-x="1305" 
d="M364 1957h67l220 -167h2l220 167h67l-265 -202h-46zM551 1646q16 -15 16 -37t-16 -37t-38 -15t-37 15q-16 15 -16 37t16 37q15 16 37 16t38 -16zM828 1646q16 -15 16 -37t-16 -37q-15 -15 -37 -15t-38 15t-16 37t16 37q16 16 38 16t37 -16zM173 500q0 -218 130 -346
q129 -127 349 -127q221 0 350 127q130 128 130 346v943h50v-944q0 -237 -143 -378q-144 -141 -387 -141t-386 141t-143 378v944h50v-943z" />
    <glyph glyph-name="uni01DA" unicode="&#x1da;" horiz-adv-x="1063" 
d="M349 1269q-16 16 -16 38t16 37q16 16 39 16q22 0 38 -16q16 -15 16 -37t-16 -38t-38 -16t-39 16zM628 1269q-16 16 -16 38t16 37q16 16 38 16q23 0 39 -16q16 -15 16 -37t-16 -38q-17 -16 -39 -16t-38 16zM503 1511l-263 291h55l231 -253h2l231 253h55l-263 -291h-48z
M943 0h-46v251h-2q-33 -114 -142 -190q-112 -77 -248 -77q-175 0 -283 106q-110 107 -110 285v701h49v-694q0 -164 98 -259q95 -92 252 -92q163 0 271 107q111 111 111 289v649h50v-1076z" />
    <glyph glyph-name="uni01DB" unicode="&#x1db;" horiz-adv-x="1305" 
d="M640 1755l-221 202h63l214 -202h-56zM476 1572q-16 15 -16 37t16 37q15 16 37 16t38 -16q16 -15 16 -37t-16 -37t-38 -15t-37 15zM753 1572q-16 15 -16 37t16 37q16 16 38 16t37 -16q16 -15 16 -37t-16 -37q-15 -15 -37 -15t-38 15zM173 500q0 -218 130 -346
q129 -127 349 -127q221 0 350 127q130 128 130 346v943h50v-944q0 -237 -143 -378q-144 -141 -387 -141t-386 141t-143 378v944h50v-943z" />
    <glyph glyph-name="uni01DC" unicode="&#x1dc;" horiz-adv-x="1063" 
d="M512 1511l-252 291h66l240 -291h-54zM349 1269q-16 16 -16 38t16 37q16 16 39 16q22 0 38 -16q16 -15 16 -37t-16 -38t-38 -16t-39 16zM628 1269q-16 16 -16 38t16 37q16 16 38 16q23 0 39 -16q16 -15 16 -37t-16 -38q-17 -16 -39 -16t-38 16zM943 0h-46v251h-2
q-33 -114 -142 -190q-112 -77 -248 -77q-175 0 -283 106q-110 107 -110 285v701h49v-694q0 -164 98 -259q95 -92 252 -92q163 0 271 107q111 111 111 289v649h50v-1076z" />
    <glyph glyph-name="uni01DE" unicode="&#x1de;" horiz-adv-x="1201" 
d="M935 501h-671l-190 -501h-55l555 1443h51l555 -1443h-56zM282 547h635l-315 827h-5zM498 1646q16 -15 16 -37t-16 -37t-38 -15t-37 15q-16 15 -16 37t16 37q15 16 37 16t38 -16zM881 1888v-42h-564v42h564zM775 1646q16 -15 16 -37t-16 -37q-15 -15 -37 -15t-38 15
t-16 37t16 37q16 16 38 16t37 -16z" />
    <glyph glyph-name="uni01DF" unicode="&#x1df;" horiz-adv-x="1021" 
d="M738 138q120 107 120 258v182l-381 -29q-338 -26 -338 -263q0 -111 88 -183q87 -73 221 -73q169 0 290 108zM189 69q-100 84 -100 217q0 276 380 306l389 30v97q0 153 -86 240q-87 87 -239 87q-151 0 -244 -74t-114 -209h-47q17 153 126 241t279 88q173 0 274 -99
q100 -100 100 -271v-722h-49v245h-1q-39 -116 -153 -188q-115 -73 -259 -73q-157 0 -256 85zM355 1270q-16 16 -16 38t16 37q16 16 38 16t38 -16q16 -15 16 -37t-16 -38t-38 -16t-38 16zM633 1270q-16 16 -16 38t16 37q16 16 38 16t38 -16q16 -15 16 -37t-16 -38
q-15 -16 -38 -16q-22 0 -38 16zM817 1585h-584v43h584v-43z" />
    <glyph glyph-name="uni01E0" unicode="&#x1e0;" horiz-adv-x="1201" 
d="M935 501h-671l-190 -501h-55l555 1443h51l555 -1443h-56zM282 547h635l-315 827h-5zM554 1574q-19 19 -19 44q0 26 19 45q19 18 45 18t45 -18q19 -19 19 -45q0 -25 -19 -44t-45 -19t-45 19zM881 1846h-564v42h564v-42z" />
    <glyph glyph-name="uni01E1" unicode="&#x1e1;" horiz-adv-x="1021" 
d="M738 138q120 107 120 258v182l-381 -29q-338 -26 -338 -263q0 -111 88 -183q87 -73 221 -73q169 0 290 108zM189 69q-100 84 -100 217q0 276 380 306l389 30v97q0 153 -86 240q-87 87 -239 87q-151 0 -244 -74t-114 -209h-47q17 153 126 241t279 88q173 0 274 -99
q100 -100 100 -271v-722h-49v245h-1q-39 -116 -153 -188q-115 -73 -259 -73q-157 0 -256 85zM487 1273q-19 19 -19 45q0 25 19 44t45 19t45 -19t19 -44q0 -26 -19 -45t-45 -19t-45 19zM817 1585h-584v43h584v-43z" />
    <glyph glyph-name="uni01E2" unicode="&#x1e2;" horiz-adv-x="1889" 
d="M342 458h667v939h-191zM1009 411h-689l-208 -411h-55l733 1443h985v-47h-718v-633h681v-46h-681v-670h718v-47h-766v411zM1592 1616h-564v43h564v-43z" />
    <glyph glyph-name="uni01E3" unicode="&#x1e3;" horiz-adv-x="1848" 
d="M1060 67q-115 85 -164 244h-4q-38 -150 -159 -239q-120 -88 -283 -88q-161 0 -261 83t-100 215q0 263 375 287l394 27v141q0 146 -88 228q-88 81 -242 81q-148 0 -243 -75t-114 -208h-48q16 150 127 240q110 89 278 89q159 0 260 -81q103 -84 110 -227h5q44 137 152 220
q116 88 276 88q206 0 329 -139q122 -138 122 -370v-40h-875v-7q0 -230 117 -368t311 -138q153 0 256 77q97 73 122 192h51q-28 -140 -140 -225q-118 -90 -290 -90q-161 0 -274 83zM1032 919q-115 -125 -124 -331h824q0 206 -109 332q-111 126 -293 126q-183 0 -298 -127z
M739 138q119 108 119 263v150l-384 -26q-335 -21 -335 -243q0 -110 87 -181t225 -71q169 0 288 108zM1218 1305h-584v43h584v-43z" />
    <glyph glyph-name="Gcaron" unicode="&#x1e6;" horiz-adv-x="1332" 
d="M395 1841h59l229 -250h2l229 250h59l-266 -287h-46zM1258 564q0 -272 -153 -428q-154 -156 -421 -156q-276 0 -449 209q-173 208 -173 542q0 329 171 531q171 201 451 201q213 0 369 -118q155 -118 195 -309h-49q-42 172 -183 276t-332 104q-258 0 -415 -188t-157 -497
q0 -313 159 -509q159 -195 413 -195q244 0 385 143q140 143 140 392v100h-531v46h580v-144z" />
    <glyph glyph-name="gcaron" unicode="&#x1e7;" horiz-adv-x="1106" 
d="M536 1254l-265 303h56l230 -264h2l230 264h56l-265 -303h-44zM820 172q116 142 116 366t-116 366t-300 142q-181 0 -293 -141q-113 -141 -113 -368q0 -225 113 -365q112 -141 293 -141q184 0 300 141zM263 -289q-109 63 -133 168h53q21 -83 117 -134q99 -53 244 -53
q175 0 282 81q110 83 110 225v318h-2q-33 -142 -144 -234q-117 -97 -272 -97q-202 0 -328 154q-126 153 -126 399t127 400q126 154 327 154q156 0 273 -98q111 -93 146 -239h2v321h46v-1076q0 -165 -125 -261q-121 -93 -319 -93q-167 0 -278 65z" />
    <glyph glyph-name="uni01E8" unicode="&#x1e8;" horiz-adv-x="1107" 
d="M123 0v1443h50v-836h4l784 836h64l-594 -635l664 -808h-64l-636 773l-222 -237v-536h-50zM235 1841h59l229 -250h2l229 250h59l-266 -287h-46z" />
    <glyph glyph-name="uni01E9" unicode="&#x1e9;" horiz-adv-x="913" 
d="M826 1076h70l-517 -463l519 -613h-65l-493 583l-161 -142v-441h-49v1506h49v-1003h2zM-134 1904h59l229 -250h2l229 250h59l-266 -287h-46z" />
    <glyph glyph-name="uni01EA" unicode="&#x1ea;" horiz-adv-x="1397" 
d="M926 -405q-1 -1 -26 -1q-83 0 -136 50q-52 50 -52 130q0 123 131 219v4q-58 -17 -145 -17q-295 0 -466 199q-170 199 -170 543q0 343 171 542q170 199 465 199q294 0 465 -199t171 -542q0 -309 -135 -495q-83 -113 -269 -223q-169 -104 -169 -225q0 -62 42 -100
q41 -39 107 -39h16v-45zM271 1228q-159 -189 -159 -506t159 -506t427 -189q267 0 427 189q159 189 159 506t-159 506q-160 188 -427 188q-268 0 -427 -188z" />
    <glyph glyph-name="uni01EB" unicode="&#x1eb;" horiz-adv-x="1078" 
d="M697 -406q-80 0 -135 54q-54 54 -54 134q0 123 123 211v4q-39 -13 -93 -13q-217 0 -346 150q-129 151 -129 404t129 404q129 150 346 150t345 -150q129 -151 129 -404q0 -357 -255 -504q-199 -115 -199 -248q0 -64 41 -105q42 -41 107 -41h18v-45zM847 170
q116 138 116 368t-116 369t-309 139t-309 -138q-116 -139 -116 -370q0 -230 116 -369q116 -138 309 -138t309 139z" />
    <glyph glyph-name="uni01EC" unicode="&#x1ec;" horiz-adv-x="1397" 
d="M926 -405q-1 -1 -26 -1q-83 0 -136 50q-52 50 -52 130q0 123 131 219v4q-58 -17 -145 -17q-295 0 -466 199q-170 199 -170 543q0 343 171 542q170 199 465 199q294 0 465 -199t171 -542q0 -309 -135 -495q-83 -113 -269 -223q-169 -104 -169 -225q0 -62 42 -100
q41 -39 107 -39h16v-45zM271 1228q-159 -189 -159 -506t159 -506t427 -189q267 0 427 189q159 189 159 506t-159 506q-160 188 -427 188q-268 0 -427 -188zM980 1616h-564v43h564v-43z" />
    <glyph glyph-name="uni01ED" unicode="&#x1ed;" horiz-adv-x="1078" 
d="M823 1304h-584v43h584v-43zM697 -406q-80 0 -135 54q-54 54 -54 134q0 123 123 211v4q-39 -13 -93 -13q-217 0 -346 150q-129 151 -129 404t129 404q129 150 346 150t345 -150q129 -151 129 -404q0 -357 -255 -504q-199 -115 -199 -248q0 -64 41 -105q42 -41 107 -41h18
v-45zM847 170q116 138 116 368t-116 369t-309 139t-309 -138q-116 -139 -116 -370q0 -230 116 -369q116 -138 309 -138t309 139z" />
    <glyph glyph-name="uni01F1" unicode="&#x1f1;" horiz-adv-x="2459" 
d="M1376 42l954 1350v4h-925v47h989v-43l-953 -1349v-4h954v-47h-1019v42zM559 1443q330 0 510 -188t180 -533q0 -346 -180 -534t-510 -188h-436v1443h436zM174 47h384q308 0 475 175q166 175 166 500q0 324 -166 499q-167 175 -475 175h-384v-1349z" />
    <glyph glyph-name="uni01F2" unicode="&#x1f2;" horiz-adv-x="2223" 
d="M1370 47l734 982v2h-734v45h794v-47l-736 -982v-2h736v-45h-794v47zM559 1443q330 0 510 -188t180 -533q0 -346 -180 -534t-510 -188h-436v1443h436zM174 47h384q308 0 475 175q166 175 166 500q0 324 -166 499q-167 175 -475 175h-384v-1349z" />
    <glyph glyph-name="uni01F3" unicode="&#x1f3;" horiz-adv-x="2036" 
d="M1183 47l734 982v2h-734v45h794v-47l-736 -982v-2h736v-45h-794v47zM193 138q-129 155 -129 400q0 246 129 400q128 154 330 154q156 0 274 -97q114 -93 146 -234h2v745h50v-1506h-46v322h-2q-35 -146 -149 -240q-119 -98 -275 -98q-202 0 -330 154zM229 905
q-115 -141 -115 -366q0 -226 115 -367t296 -141q184 0 302 141q118 142 118 366t-118 366t-302 142q-181 0 -296 -141z" />
    <glyph glyph-name="uni01F4" unicode="&#x1f4;" horiz-adv-x="1332" 
d="M646 1554l293 287h66l-303 -287h-56zM1258 564q0 -272 -153 -428q-154 -156 -421 -156q-276 0 -449 209q-173 208 -173 542q0 329 171 531q171 201 451 201q213 0 369 -118q155 -118 195 -309h-49q-42 172 -183 276t-332 104q-258 0 -415 -188t-157 -497q0 -313 159 -509
q159 -195 413 -195q244 0 385 143q140 143 140 392v100h-531v46h580v-144z" />
    <glyph glyph-name="uni01F5" unicode="&#x1f5;" horiz-adv-x="1106" 
d="M510 1254l236 303h63l-246 -303h-53zM820 172q116 142 116 366t-116 366t-300 142q-181 0 -293 -141q-113 -141 -113 -368q0 -225 113 -365q112 -141 293 -141q184 0 300 141zM263 -289q-109 63 -133 168h53q21 -83 117 -134q99 -53 244 -53q175 0 282 81q110 83 110 225
v318h-2q-33 -142 -144 -234q-117 -97 -272 -97q-202 0 -328 154q-126 153 -126 399t127 400q126 154 327 154q156 0 273 -98q111 -93 146 -239h2v321h46v-1076q0 -165 -125 -261q-121 -93 -319 -93q-167 0 -278 65z" />
    <glyph glyph-name="uni01F8" unicode="&#x1f8;" horiz-adv-x="1315" 
d="M335 1841h66l294 -287h-57zM123 0v1443h55l958 -1348h4v1348h50v-1443h-46l-967 1359h-4v-1359h-50z" />
    <glyph glyph-name="uni01F9" unicode="&#x1f9;" horiz-adv-x="1063" 
d="M532 1254l-246 303h63l236 -303h-53zM119 1076h46v-254h2q35 121 138 195q105 75 244 75q179 0 289 -107q111 -109 111 -289v-696h-49v694q0 161 -100 258q-98 94 -258 94q-165 0 -269 -112q-105 -112 -105 -288v-646h-49v1076z" />
    <glyph glyph-name="Aringacute" unicode="&#x1fa;" horiz-adv-x="1201" 
d="M935 501h-671l-190 -501h-55l555 1443h51l555 -1443h-56zM282 547h635l-315 827h-5zM483 1553q-49 49 -49 116q0 68 49 117q48 49 116 49t116 -49q49 -49 49 -117q0 -67 -49 -116q-48 -49 -116 -49q-67 0 -116 49zM689 1579q36 37 36 90q0 54 -36 91t-90 37t-90 -37
t-36 -91q0 -53 36 -90t90 -37t90 37zM781 2083l-163 -164h-53l154 164h62z" />
    <glyph glyph-name="aringacute" unicode="&#x1fb;" horiz-adv-x="1021" 
d="M738 138q120 107 120 258v182l-381 -29q-338 -26 -338 -263q0 -111 88 -183q87 -73 221 -73q169 0 290 108zM189 69q-100 84 -100 217q0 276 380 306l389 30v97q0 153 -86 240q-87 87 -239 87q-151 0 -244 -74t-114 -209h-47q17 153 126 241t279 88q173 0 274 -99
q100 -100 100 -271v-722h-49v245h-1q-39 -116 -153 -188q-115 -73 -259 -73q-157 0 -256 85zM416 1280q-49 49 -49 116q0 68 49 117t116 49t116 -49t49 -117q0 -67 -49 -116q-48 -49 -116 -49q-67 0 -116 49zM442 1306q37 -37 90 -37t90 37q36 37 36 90t-36 90
q-37 37 -90 37t-90 -37q-36 -37 -36 -90t36 -90zM653 1813h60l-162 -165h-51z" />
    <glyph glyph-name="AEacute" unicode="&#x1fc;" horiz-adv-x="1889" 
d="M1272 1554l293 287h66l-303 -287h-56zM342 458h667v939h-191zM1009 411h-689l-208 -411h-55l733 1443h985v-47h-718v-633h681v-46h-681v-670h718v-47h-766v411z" />
    <glyph glyph-name="aeacute" unicode="&#x1fd;" horiz-adv-x="1848" 
d="M885 1254l236 303h63l-246 -303h-53zM1060 67q-115 85 -164 244h-4q-38 -150 -159 -239q-120 -88 -283 -88q-161 0 -261 83t-100 215q0 263 375 287l394 27v141q0 146 -88 228q-88 81 -242 81q-148 0 -243 -75t-114 -208h-48q16 150 127 240q110 89 278 89q159 0 260 -81
q103 -84 110 -227h5q44 137 152 220q116 88 276 88q206 0 329 -139q122 -138 122 -370v-40h-875v-7q0 -230 117 -368t311 -138q153 0 256 77q97 73 122 192h51q-28 -140 -140 -225q-118 -90 -290 -90q-161 0 -274 83zM1032 919q-115 -125 -124 -331h824q0 206 -109 332
q-111 126 -293 126q-183 0 -298 -127zM739 138q119 108 119 263v150l-384 -26q-335 -21 -335 -243q0 -110 87 -181t225 -71q169 0 288 108z" />
    <glyph glyph-name="Oslashacute" unicode="&#x1fe;" horiz-adv-x="1398" 
d="M761 1554h-56l293 287h66zM317 167q152 -140 381 -140q267 0 427 188q159 189 159 507q0 306 -149 494zM1106 1249q-156 167 -408 167q-269 0 -427 -188q-159 -187 -159 -506q0 -333 174 -523zM1167 1256q167 -200 167 -534q0 -341 -172 -542q-172 -200 -464 -200
q-248 0 -412 147l-173 -222l-37 25l178 228q-192 201 -192 564q0 340 172 540q172 201 464 201q270 0 439 -174l151 194l36 -25z" />
    <glyph glyph-name="oslashacute" unicode="&#x1ff;" horiz-adv-x="1078" 
d="M582 1254h-53l236 303h63zM283 117q104 -86 255 -86q192 0 308 137q117 138 117 370q0 230 -114 367zM818 938q-111 108 -280 108q-192 0 -307 -137q-117 -138 -117 -371q0 -251 135 -391zM878 945q134 -151 134 -407q0 -253 -131 -404q-130 -150 -343 -150
q-165 0 -284 93l-125 -174l-37 26l128 178q-156 151 -156 431q0 253 131 405q130 149 343 149q185 0 308 -114l115 159l37 -25z" />
    <glyph glyph-name="uni0200" unicode="&#x200;" horiz-adv-x="1201" 
d="M935 501h-671l-190 -501h-55l555 1443h51l555 -1443h-56zM282 547h635l-315 827h-5zM386 1841h66l293 -287h-56zM132 1841h65l294 -287h-56z" />
    <glyph glyph-name="uni0201" unicode="&#x201;" horiz-adv-x="1021" 
d="M738 138q120 107 120 258v182l-381 -29q-338 -26 -338 -263q0 -111 88 -183q87 -73 221 -73q169 0 290 108zM189 69q-100 84 -100 217q0 276 380 306l389 30v97q0 153 -86 240q-87 87 -239 87q-151 0 -244 -74t-114 -209h-47q17 153 126 241t279 88q173 0 274 -99
q100 -100 100 -271v-722h-49v245h-1q-39 -116 -153 -188q-115 -73 -259 -73q-157 0 -256 85zM396 1254l-245 303h62l235 -303h-52zM619 1254l-245 303h62l235 -303h-52z" />
    <glyph glyph-name="uni0202" unicode="&#x202;" horiz-adv-x="1201" 
d="M935 501h-671l-190 -501h-55l555 1443h51l555 -1443h-56zM282 547h635l-315 827h-5zM342 1554q0 99 73 159q70 58 184 58t184 -58q73 -60 73 -159h-45q0 75 -58 124q-59 50 -154 50t-154 -50q-58 -49 -58 -124h-45z" />
    <glyph glyph-name="uni0203" unicode="&#x203;" horiz-adv-x="1021" 
d="M738 138q120 107 120 258v182l-381 -29q-338 -26 -338 -263q0 -111 88 -183q87 -73 221 -73q169 0 290 108zM189 69q-100 84 -100 217q0 276 380 306l389 30v97q0 153 -86 240q-87 87 -239 87q-151 0 -244 -74t-114 -209h-47q17 153 126 241t279 88q173 0 274 -99
q100 -100 100 -271v-722h-49v245h-1q-39 -116 -153 -188q-115 -73 -259 -73q-157 0 -256 85zM274 1254q0 111 74 175q70 61 184 61t185 -61q73 -64 73 -175h-45q0 88 -58 140q-58 53 -155 53t-155 -53q-58 -52 -58 -140h-45z" />
    <glyph glyph-name="uni0204" unicode="&#x204;" horiz-adv-x="1050" 
d="M323 1841h66l293 -287h-56zM69 1841h65l294 -287h-56zM949 0h-826v1443h826v-47h-776v-632h740v-46h-740v-671h776v-47z" />
    <glyph glyph-name="uni0205" unicode="&#x205;" horiz-adv-x="1056" 
d="M238 918q-114 -127 -123 -337h825q0 207 -112 336q-113 129 -296 129q-180 0 -294 -128zM976 299q-28 -140 -141 -225q-119 -90 -295 -90q-219 0 -346 146q-130 148 -130 408q0 250 128 402t340 152q205 0 332 -143q126 -143 126 -375v-38h-876v-2q0 -237 117 -372
q115 -132 310 -132q156 0 261 78q98 72 123 191h51zM396 1254l-245 303h62l235 -303h-52zM619 1254l-245 303h62l235 -303h-52z" />
    <glyph glyph-name="uni0206" unicode="&#x206;" horiz-adv-x="1050" 
d="M949 0h-826v1443h826v-47h-776v-632h740v-46h-740v-671h776v-47zM279 1554q0 99 73 159q70 58 184 58t184 -58q73 -60 73 -159h-45q0 75 -58 124q-59 50 -154 50t-154 -50q-58 -49 -58 -124h-45z" />
    <glyph glyph-name="uni0207" unicode="&#x207;" horiz-adv-x="1056" 
d="M238 918q-114 -127 -123 -337h825q0 207 -112 336q-113 129 -296 129q-180 0 -294 -128zM976 299q-28 -140 -141 -225q-119 -90 -295 -90q-219 0 -346 146q-130 148 -130 408q0 250 128 402t340 152q205 0 332 -143q126 -143 126 -375v-38h-876v-2q0 -237 117 -372
q115 -132 310 -132q156 0 261 78q98 72 123 191h51zM274 1254q0 111 74 175q70 61 184 61t185 -61q73 -64 73 -175h-45q0 88 -58 140q-58 53 -155 53t-155 -53q-58 -52 -58 -140h-45z" />
    <glyph glyph-name="uni0208" unicode="&#x208;" horiz-adv-x="298" 
d="M124 0v1443h50v-1443h-50zM-64 1841h66l293 -287h-56zM-318 1841h65l294 -287h-56z" />
    <glyph glyph-name="uni0209" unicode="&#x209;" horiz-adv-x="309" 
d="M130 1076h49v-1076h-49v1076zM19 1254l-245 303h62l235 -303h-52zM242 1254l-245 303h62l235 -303h-52z" />
    <glyph glyph-name="uni020A" unicode="&#x20a;" horiz-adv-x="298" 
d="M124 0v1443h50v-1443h-50zM-108 1554q0 99 73 159q70 58 184 58t184 -58q73 -60 73 -159h-45q0 75 -58 124q-59 50 -154 50t-154 -50q-58 -49 -58 -124h-45z" />
    <glyph glyph-name="uni020B" unicode="&#x20b;" horiz-adv-x="309" 
d="M130 1076h49v-1076h-49v1076zM-103 1254q0 111 74 175q70 61 184 61t185 -61q73 -64 73 -175h-45q0 88 -58 140q-58 53 -155 53t-155 -53q-58 -52 -58 -140h-45z" />
    <glyph glyph-name="uni020C" unicode="&#x20c;" horiz-adv-x="1398" 
d="M485 1841h66l293 -287h-56zM231 1841h65l294 -287h-56zM1162 1262q172 -200 172 -540q0 -341 -172 -542q-172 -200 -464 -200t-464 200q-172 201 -172 542q0 340 172 540q172 201 464 201q291 0 464 -201zM271 1228q-159 -187 -159 -506q0 -318 159 -507
q159 -188 427 -188q267 0 427 188q159 189 159 507t-159 506t-427 188q-269 0 -427 -188z" />
    <glyph glyph-name="uni020D" unicode="&#x20d;" horiz-adv-x="1078" 
d="M195 134q-131 151 -131 404t131 405q130 149 343 149t343 -149q131 -152 131 -405t-131 -404q-130 -150 -343 -150q-214 0 -343 150zM846 168q117 138 117 370q0 233 -117 371q-116 137 -308 137t-307 -137q-117 -138 -117 -371t117 -370q115 -137 307 -137t308 137z
M402 1253l-245 303h62l235 -303h-52zM625 1253l-245 303h62l235 -303h-52z" />
    <glyph glyph-name="uni020E" unicode="&#x20e;" horiz-adv-x="1398" 
d="M441 1554q0 99 73 159q70 58 184 58t184 -58q73 -60 73 -159h-45q0 75 -58 124q-59 50 -154 50t-154 -50q-58 -49 -58 -124h-45zM1162 1262q172 -200 172 -540q0 -341 -172 -542q-172 -200 -464 -200t-464 200q-172 201 -172 542q0 340 172 540q172 201 464 201
q291 0 464 -201zM271 1228q-159 -187 -159 -506q0 -318 159 -507q159 -188 427 -188q267 0 427 188q159 189 159 507t-159 506t-427 188q-269 0 -427 -188z" />
    <glyph glyph-name="uni020F" unicode="&#x20f;" horiz-adv-x="1078" 
d="M195 134q-131 151 -131 404t131 405q130 149 343 149t343 -149q131 -152 131 -405t-131 -404q-130 -150 -343 -150q-214 0 -343 150zM846 168q117 138 117 370q0 233 -117 371q-116 137 -308 137t-307 -137q-117 -138 -117 -371t117 -370q115 -137 307 -137t308 137z
M280 1253q0 111 74 175q70 61 184 61t185 -61q73 -64 73 -175h-45q0 88 -58 140q-58 53 -155 53t-155 -53q-58 -52 -58 -140h-45z" />
    <glyph glyph-name="uni0210" unicode="&#x210;" horiz-adv-x="1124" 
d="M269 1841h66l293 -287h-56zM15 1841h65l294 -287h-56zM173 676h397q193 0 303 96q111 97 111 264q0 170 -110 265t-305 95h-396v-720zM173 0h-50v1443h448q216 0 340 -109q124 -108 124 -298q0 -158 -92 -262q-92 -106 -255 -134l381 -640h-57l-376 632q-36 -2 -66 -2
h-397v-630z" />
    <glyph glyph-name="uni0211" unicode="&#x211;" horiz-adv-x="603" 
d="M120 1076h46v-223h2q72 239 297 239q59 0 108 -21v-51q-50 25 -116 25q-132 0 -211 -106q-77 -103 -77 -269v-670h-49v1076zM198 1254l-245 303h62l235 -303h-52zM421 1254l-245 303h62l235 -303h-52z" />
    <glyph glyph-name="uni0212" unicode="&#x212;" horiz-adv-x="1124" 
d="M173 676h397q193 0 303 96q111 97 111 264q0 170 -110 265t-305 95h-396v-720zM173 0h-50v1443h448q216 0 340 -109q124 -108 124 -298q0 -158 -92 -262q-92 -106 -255 -134l381 -640h-57l-376 632q-36 -2 -66 -2h-397v-630zM225 1554q0 99 73 159q70 58 184 58t184 -58
q73 -60 73 -159h-45q0 75 -58 124q-59 50 -154 50t-154 -50q-58 -49 -58 -124h-45z" />
    <glyph glyph-name="uni0213" unicode="&#x213;" horiz-adv-x="603" 
d="M119 1076h46v-223h2q72 239 297 239q59 0 108 -21v-51q-50 25 -116 25q-132 0 -211 -106q-77 -103 -77 -269v-670h-49v1076zM75 1254q0 111 74 175q70 61 184 61t185 -61q73 -64 73 -175h-45q0 88 -58 140q-58 53 -155 53t-155 -53q-58 -52 -58 -140h-45z" />
    <glyph glyph-name="uni0214" unicode="&#x214;" horiz-adv-x="1305" 
d="M439 1841h66l293 -287h-56zM185 1841h65l294 -287h-56zM173 500q0 -218 130 -346q129 -127 349 -127q221 0 350 127q130 128 130 346v943h50v-944q0 -237 -143 -378q-144 -141 -387 -141t-386 141t-143 378v944h50v-943z" />
    <glyph glyph-name="uni0215" unicode="&#x215;" horiz-adv-x="1063" 
d="M943 0h-46v251h-2q-33 -114 -142 -190q-112 -77 -248 -77q-175 0 -283 106q-110 107 -110 285v701h49v-694q0 -164 98 -259q95 -92 252 -92q163 0 271 107q111 111 111 289v649h50v-1076zM391 1253l-245 303h62l235 -303h-52zM614 1253l-245 303h62l235 -303h-52z" />
    <glyph glyph-name="uni0216" unicode="&#x216;" horiz-adv-x="1305" 
d="M173 500q0 -218 130 -346q129 -127 349 -127q221 0 350 127q130 128 130 346v943h50v-944q0 -237 -143 -378q-144 -141 -387 -141t-386 141t-143 378v944h50v-943zM395 1554q0 99 73 159q70 58 184 58t184 -58q73 -60 73 -159h-45q0 75 -58 124q-59 50 -154 50t-154 -50
q-58 -49 -58 -124h-45z" />
    <glyph glyph-name="uni0217" unicode="&#x217;" horiz-adv-x="1063" 
d="M943 0h-46v251h-2q-33 -114 -142 -190q-112 -77 -248 -77q-175 0 -283 106q-110 107 -110 285v701h49v-694q0 -164 98 -259q95 -92 252 -92q163 0 271 107q111 111 111 289v649h50v-1076zM269 1253q0 111 74 175q70 61 184 61t185 -61q73 -64 73 -175h-45q0 88 -58 140
q-58 53 -155 53t-155 -53q-58 -52 -58 -140h-45z" />
    <glyph glyph-name="uni0218" unicode="&#x218;" horiz-adv-x="1114" 
d="M101 382q8 -156 140 -256q131 -100 329 -100q193 0 317 100q122 99 122 251q0 120 -85 193t-277 121l-167 42q-202 50 -295 134q-94 83 -94 215q0 163 136 273q134 108 325 108q200 0 337 -104q135 -103 142 -257h-50q-7 135 -129 225t-300 90q-172 0 -290 -94
q-121 -97 -121 -241q0 -114 86 -186q84 -70 269 -116l165 -41q207 -52 301 -135q97 -86 97 -225q0 -175 -136 -286q-137 -113 -355 -113q-219 0 -364 113t-153 289h50zM454 -480l102 338h57l-113 -338h-46z" />
    <glyph glyph-name="uni0219" unicode="&#x219;" horiz-adv-x="905" 
d="M197 1013q104 79 256 79q161 0 263 -89q101 -88 115 -239h-48q-14 126 -99 203q-90 79 -231 79q-129 0 -219 -66q-94 -68 -94 -171q0 -85 58 -135q56 -47 181 -76l167 -40q160 -39 231 -104q71 -66 71 -175q0 -131 -110 -213t-281 -82q-169 0 -283 94q-111 91 -119 226
h50q10 -115 108 -194q100 -80 243 -80q145 0 242 68q100 69 100 178q0 93 -62 148t-205 89l-169 39q-138 33 -203 92q-68 63 -68 164q0 124 106 205zM343 -480l102 338h57l-113 -338h-46z" />
    <glyph glyph-name="uni021A" unicode="&#x21a;" horiz-adv-x="1117" 
d="M444 -480l102 338h57l-113 -338h-46zM534 0v1396h-521v47h1091v-47h-521v-1396h-49z" />
    <glyph glyph-name="uni021B" unicode="&#x21b;" horiz-adv-x="527" 
d="M236 -480l102 338h57l-113 -338h-46zM228 1364v-288h228v-45h-228v-796q0 -102 39 -146q38 -44 124 -44l83 1v-46l-86 -1q-110 0 -159 55q-50 55 -50 180v797h-160v45h160v288h49z" />
    <glyph glyph-name="uni021E" unicode="&#x21e;" horiz-adv-x="1296" 
d="M1121 0v718h-948v-718h-50v1443h50v-678h948v678h50v-1443h-50zM358 1841h59l229 -250h2l229 250h59l-266 -287h-46z" />
    <glyph glyph-name="uni021F" unicode="&#x21f;" horiz-adv-x="1075" 
d="M130 1506h49v-684h2q35 120 139 195q105 75 244 75q178 0 288 -108q110 -109 110 -289v-695h-50v693q0 163 -98 259q-97 94 -256 94q-166 0 -272 -112q-107 -112 -107 -289v-645h-49v1506zM-134 1904h59l229 -250h2l229 250h59l-266 -287h-46z" />
    <glyph glyph-name="uni0226" unicode="&#x226;" horiz-adv-x="1201" 
d="M935 501h-671l-190 -501h-55l555 1443h51l555 -1443h-56zM282 547h635l-315 827h-5zM554 1575q-19 19 -19 45q0 25 19 44t45 19t45 -19t19 -44q0 -26 -19 -45t-45 -19t-45 19z" />
    <glyph glyph-name="uni0227" unicode="&#x227;" horiz-adv-x="1021" 
d="M738 138q120 107 120 258v182l-381 -29q-338 -26 -338 -263q0 -111 88 -183q87 -73 221 -73q169 0 290 108zM189 69q-100 84 -100 217q0 276 380 306l389 30v97q0 153 -86 240q-87 87 -239 87q-151 0 -244 -74t-114 -209h-47q17 153 126 241t279 88q173 0 274 -99
q100 -100 100 -271v-722h-49v245h-1q-39 -116 -153 -188q-115 -73 -259 -73q-157 0 -256 85zM487 1273q-19 20 -19 45q0 26 19 45t45 19t46 -19q19 -19 19 -45t-19 -45q-20 -19 -46 -19q-25 0 -45 19z" />
    <glyph glyph-name="uni0228" unicode="&#x228;" horiz-adv-x="1050" 
d="M173 1396v-632h740v-46h-740v-671h776v-47h-390l-59 -140q94 0 150 -42t56 -112q0 -74 -60 -121q-60 -46 -156 -47q-76 0 -122 17v43q45 -17 121 -17q72 0 122 36q49 36 49 88q0 113 -164 113h-50v33l66 149h-389v1443h826v-47h-776z" />
    <glyph glyph-name="uni0229" unicode="&#x229;" horiz-adv-x="1056" 
d="M940 581q0 207 -112 336q-113 129 -296 129q-180 0 -294 -128q-114 -127 -123 -337h825zM114 536v-2q0 -237 117 -372q115 -132 310 -132q156 0 261 78q98 72 123 191h51q-27 -136 -136 -222q-114 -89 -284 -93l-52 -124q94 0 150 -42t56 -112q0 -74 -60 -121
q-60 -46 -156 -47q-76 0 -122 17v43q45 -17 121 -17q72 0 122 36q49 36 49 88q0 113 -164 113h-50v33l60 134q-206 11 -325 155q-121 147 -121 398q0 250 128 402t340 152q205 0 332 -143q126 -143 126 -375v-38h-876z" />
    <glyph glyph-name="uni022A" unicode="&#x22a;" horiz-adv-x="1398" 
d="M1162 1262q172 -200 172 -540q0 -341 -172 -542q-172 -200 -464 -200t-464 200q-172 201 -172 542q0 340 172 540q172 201 464 201q291 0 464 -201zM271 1228q-159 -187 -159 -506q0 -318 159 -507q159 -188 427 -188q267 0 427 188q159 189 159 507t-159 506t-427 188
q-269 0 -427 -188zM597 1646q16 -15 16 -37t-16 -37t-38 -15t-37 15q-16 15 -16 37t16 37q15 16 37 16t38 -16zM980 1888v-42h-564v42h564zM874 1646q16 -15 16 -37t-16 -37q-15 -15 -37 -15t-38 15t-16 37t16 37q16 16 38 16t37 -16z" />
    <glyph glyph-name="uni022B" unicode="&#x22b;" horiz-adv-x="1078" 
d="M361 1269q-16 16 -16 38t16 37q16 16 38 16t38 -16q16 -15 16 -37t-16 -38t-38 -16t-38 16zM639 1269q-16 16 -16 38t16 37q16 16 38 16t38 -16q16 -15 16 -37t-16 -38q-15 -16 -38 -16q-22 0 -38 16zM823 1584h-584v43h584v-43zM195 134q-131 151 -131 404t131 405
q130 149 343 149t343 -149q131 -152 131 -405t-131 -404q-130 -150 -343 -150q-214 0 -343 150zM846 168q117 138 117 370q0 233 -117 371q-116 137 -308 137t-307 -137q-117 -138 -117 -371t117 -370q115 -137 307 -137t308 137z" />
    <glyph glyph-name="uni022C" unicode="&#x22c;" horiz-adv-x="1398" 
d="M688 1627q-63 74 -108 74q-94 0 -94 -131h-45q0 78 35 125q37 49 103 49q65 0 129 -74q63 -75 108 -75q93 0 93 131h45q0 -77 -35 -124q-37 -50 -103 -50q-64 0 -128 75zM980 1846h-564v42h564v-42zM1162 1262q172 -200 172 -540q0 -341 -172 -542q-172 -200 -464 -200
t-464 200q-172 201 -172 542q0 340 172 540q172 201 464 201q291 0 464 -201zM271 1228q-159 -187 -159 -506q0 -318 159 -507q159 -188 427 -188q267 0 427 188q159 189 159 507t-159 506t-427 188q-269 0 -427 -188z" />
    <glyph glyph-name="uni022D" unicode="&#x22d;" horiz-adv-x="1078" 
d="M535 1318q-78 84 -127 84q-97 0 -97 -158h-45q0 92 35 145q37 56 107 56q69 0 147 -83q78 -84 127 -84q97 0 97 158h45q0 -93 -35 -146q-37 -56 -107 -56q-69 0 -147 84zM830 1584h-584v43h584v-43zM195 134q-131 151 -131 404t131 405q130 149 343 149t343 -149
q131 -152 131 -405t-131 -404q-130 -150 -343 -150q-214 0 -343 150zM846 168q117 138 117 370q0 233 -117 371q-116 137 -308 137t-307 -137q-117 -138 -117 -371t117 -370q115 -137 307 -137t308 137z" />
    <glyph glyph-name="uni022E" unicode="&#x22e;" horiz-adv-x="1398" 
d="M653 1575q-19 19 -19 45q0 25 19 44t45 19t45 -19t19 -44q0 -26 -19 -45t-45 -19t-45 19zM1162 1262q172 -200 172 -540q0 -341 -172 -542q-172 -200 -464 -200t-464 200q-172 201 -172 542q0 340 172 540q172 201 464 201q291 0 464 -201zM271 1228q-159 -187 -159 -506
q0 -318 159 -507q159 -188 427 -188q267 0 427 188q159 189 159 507t-159 506t-427 188q-269 0 -427 -188z" />
    <glyph glyph-name="uni022F" unicode="&#x22f;" horiz-adv-x="1078" 
d="M493 1272q-19 20 -19 45q0 26 19 45t45 19t46 -19q19 -19 19 -45t-19 -45q-20 -19 -46 -19q-25 0 -45 19zM195 134q-131 151 -131 404t131 405q130 149 343 149t343 -149q131 -152 131 -405t-131 -404q-130 -150 -343 -150q-214 0 -343 150zM846 168q117 138 117 370
q0 233 -117 371q-116 137 -308 137t-307 -137q-117 -138 -117 -371t117 -370q115 -137 307 -137t308 137z" />
    <glyph glyph-name="uni0230" unicode="&#x230;" horiz-adv-x="1398" 
d="M653 1574q-19 19 -19 44q0 26 19 45q19 18 45 18t45 -18q19 -19 19 -45q0 -25 -19 -44t-45 -19t-45 19zM980 1846h-564v42h564v-42zM1162 1262q172 -200 172 -540q0 -341 -172 -542q-172 -200 -464 -200t-464 200q-172 201 -172 542q0 340 172 540q172 201 464 201
q291 0 464 -201zM271 1228q-159 -187 -159 -506q0 -318 159 -507q159 -188 427 -188q267 0 427 188q159 189 159 507t-159 506t-427 188q-269 0 -427 -188z" />
    <glyph glyph-name="uni0231" unicode="&#x231;" horiz-adv-x="1078" 
d="M195 134q-131 151 -131 404t131 405q130 149 343 149t343 -149q131 -152 131 -405t-131 -404q-130 -150 -343 -150q-214 0 -343 150zM846 168q117 138 117 370q0 233 -117 371q-116 137 -308 137t-307 -137q-117 -138 -117 -371t117 -370q115 -137 307 -137t308 137z
M493 1272q-19 19 -19 45q0 25 19 44t45 19t45 -19t19 -44q0 -26 -19 -45t-45 -19t-45 19zM823 1584h-584v43h584v-43z" />
    <glyph glyph-name="uni0232" unicode="&#x232;" horiz-adv-x="1148" 
d="M549 0v631l-529 812h60l492 -758h4l491 758h59l-527 -812v-631h-50zM855 1616h-564v43h564v-43z" />
    <glyph glyph-name="uni0233" unicode="&#x233;" horiz-adv-x="888" 
d="M131 -334v47q23 -9 53 -9q70 0 116 47q45 45 89 158l28 72l-415 1095h54l387 -1029h2l388 1029h54l-417 -1101q-74 -195 -130 -256q-56 -62 -162 -62q-26 0 -47 9zM729 1304h-584v43h584v-43z" />
    <glyph glyph-name="uni0237" unicode="&#x237;" horiz-adv-x="309" 
d="M179 -80q0 -139 -67 -202q-63 -60 -196 -60h-29v45h27q113 0 164 50q52 50 52 163v1160h49v-1156z" />
    <glyph glyph-name="circumflex" unicode="&#x2c6;" horiz-adv-x="686" 
d="M629 1254h-56l-230 264h-2l-230 -264h-56l265 303h44z" />
    <glyph glyph-name="caron" unicode="&#x2c7;" horiz-adv-x="686" 
d="M320 1254l-265 303h56l230 -264h2l230 264h56l-265 -303h-44z" />
    <glyph glyph-name="breve" unicode="&#x2d8;" horiz-adv-x="814" 
d="M193 1490q0 -88 58 -141t155 -53t155 53t58 141h45q0 -112 -73 -176q-71 -61 -185 -61t-184 61q-74 64 -74 176h45z" />
    <glyph glyph-name="dotaccent" unicode="&#x2d9;" horiz-adv-x="807" 
d="M357 1273q-19 20 -19 45q0 26 19 45t45 19t46 -19q19 -19 19 -45t-19 -45q-20 -19 -46 -19q-25 0 -45 19z" />
    <glyph glyph-name="ring" unicode="&#x2da;" horiz-adv-x="689" 
d="M227 1298q-48 49 -48 117t48 116q49 49 117 49q67 0 116 -49q48 -48 48 -116t-48 -117q-49 -49 -116 -49q-68 0 -117 49zM434 1325q36 37 36 90t-36 90q-37 37 -90 37q-54 0 -90 -37q-37 -37 -37 -90t37 -90q36 -37 90 -37q53 0 90 37z" />
    <glyph glyph-name="ogonek" unicode="&#x2db;" horiz-adv-x="516" 
d="M410 -348q-47 -28 -110 -28q-81 0 -131 47q-49 46 -49 121q0 138 150 230l39 -7q-141 -84 -141 -212q0 -61 37 -97q37 -37 102 -37q64 0 103 27v-44z" />
    <glyph glyph-name="tilde" unicode="&#x2dc;" horiz-adv-x="686" 
d="M332 1338q-78 84 -127 84q-97 0 -97 -158h-45q0 92 35 145q37 56 107 56q69 0 147 -83q78 -84 127 -84q97 0 97 158h45q0 -93 -35 -146q-37 -56 -107 -56q-69 0 -147 84z" />
    <glyph glyph-name="hungarumlaut" unicode="&#x2dd;" horiz-adv-x="815" 
d="M624 1557h62l-245 -303h-52zM401 1557h62l-245 -303h-52z" />
    <glyph glyph-name="gravecomb" unicode="&#x300;" 
d="M-5 1254l-246 303h63l236 -303h-53z" />
    <glyph glyph-name="acutecomb" unicode="&#x301;" 
d="M-48 1254l236 303h63l-246 -303h-53z" />
    <glyph glyph-name="uni0302" unicode="&#x302;" 
d="M287 1254h-56l-230 264h-2l-230 -264h-56l265 303h44z" />
    <glyph glyph-name="tildecomb" unicode="&#x303;" 
d="M-10 1338q-78 84 -127 84q-97 0 -97 -158h-45q0 92 35 145q37 56 107 56q69 0 147 -83q78 -84 127 -84q97 0 97 158h45q0 -93 -35 -146q-37 -56 -107 -56q-69 0 -147 84z" />
    <glyph glyph-name="uni0304" unicode="&#x304;" 
d="M285 1305h-584v43h584v-43z" />
    <glyph glyph-name="uni0306" unicode="&#x306;" 
d="M-213 1490q0 -88 58 -141t155 -53t155 53t58 141h45q0 -112 -73 -176q-71 -61 -185 -61t-184 61q-74 64 -74 176h45z" />
    <glyph glyph-name="uni0307" unicode="&#x307;" 
d="M-45 1273q-19 20 -19 45q0 26 19 45t45 19t46 -19q19 -19 19 -45t-19 -45q-20 -19 -46 -19q-25 0 -45 19z" />
    <glyph glyph-name="uni0308" unicode="&#x308;" 
d="M-178 1270q-16 16 -16 38t16 37q16 16 39 16q22 0 38 -16q16 -15 16 -37t-16 -38t-38 -16t-39 16zM101 1270q-16 16 -16 38t16 37q16 16 38 16q23 0 39 -16q16 -15 16 -37t-16 -38q-17 -16 -39 -16t-38 16z" />
    <glyph glyph-name="hookabovecomb" unicode="&#x309;" 
d="M-115 1485q43 29 105 29q66 0 107 -37q40 -36 40 -94q0 -97 -99 -141l-27 32q80 35 80 107q0 40 -29 65q-30 25 -78 25q-60 0 -99 -31v45z" />
    <glyph glyph-name="uni030A" unicode="&#x30a;" 
d="M-117 1298q-48 49 -48 117t48 116q49 49 117 49q67 0 116 -49q48 -48 48 -116t-48 -117q-49 -49 -116 -49q-68 0 -117 49zM90 1325q36 37 36 90t-36 90q-37 37 -90 37q-54 0 -90 -37q-37 -37 -37 -90t37 -90q36 -37 90 -37q53 0 90 37z" />
    <glyph glyph-name="uni030B" unicode="&#x30b;" 
d="M319 1557h62l-245 -303h-52zM96 1557h62l-245 -303h-52z" />
    <glyph glyph-name="uni030C" unicode="&#x30c;" 
d="M-22 1254l-265 303h56l230 -264h2l230 264h56l-265 -303h-44z" />
    <glyph glyph-name="uni030F" unicode="&#x30f;" 
d="M-136 1254l-245 303h62l235 -303h-52zM87 1254l-245 303h62l235 -303h-52z" />
    <glyph glyph-name="uni0311" unicode="&#x311;" 
d="M-258 1254q0 111 74 175q70 61 184 61t185 -61q73 -64 73 -175h-45q0 88 -58 140q-58 53 -155 53t-155 -53q-58 -52 -58 -140h-45z" />
    <glyph glyph-name="uni031B" unicode="&#x31b;" 
d="M0 1089q3 -3 42 -3q164 0 164 160v114h49v-123q0 -97 -58 -148q-55 -48 -153 -48q-41 0 -44 3v45z" />
    <glyph glyph-name="dotbelowcomb" unicode="&#x323;" 
d="M-45 -249q-19 19 -19 45q0 25 19 44t45 19t45 -19t19 -44q0 -26 -19 -45t-45 -19t-45 19z" />
    <glyph glyph-name="uni0324" unicode="&#x324;" 
d="M-178 -233q-16 16 -16 38t16 37q16 16 39 16q22 0 38 -16q16 -15 16 -37t-16 -38t-38 -16t-39 16zM101 -233q-16 16 -16 38t16 37q16 16 38 16q23 0 39 -16q16 -15 16 -37t-16 -38q-17 -16 -39 -16t-38 16z" />
    <glyph glyph-name="uni0325" unicode="&#x325;" 
d="M-117 -424q-48 49 -48 117t48 116q49 49 117 49q67 0 116 -49q48 -48 48 -116t-48 -117q-49 -49 -116 -49q-68 0 -117 49zM90 -397q36 37 36 90t-36 90q-37 37 -90 37q-54 0 -90 -37q-37 -37 -37 -90t37 -90q36 -37 90 -37q53 0 90 37z" />
    <glyph glyph-name="uni0326" unicode="&#x326;" 
d="M-115 -480l102 338h57l-113 -338h-46z" />
    <glyph glyph-name="uni0327" unicode="&#x327;" 
d="M-90 -149l69 155l44 -6l-59 -140q94 0 150 -42t56 -112q0 -74 -60 -121q-60 -46 -156 -47q-76 0 -122 17v43q45 -17 121 -17q72 0 122 36q49 36 49 88q0 113 -164 113h-50v33z" />
    <glyph glyph-name="uni0328" unicode="&#x328;" 
d="M119 -348q-47 -28 -110 -28q-81 0 -131 47q-49 46 -49 121q0 138 150 230l39 -7q-141 -84 -141 -212q0 -61 37 -97q37 -37 102 -37q64 0 103 27v-44z" />
    <glyph glyph-name="uni032D" unicode="&#x32d;" 
d="M23 -141l266 -287h-59l-229 249h-2l-229 -249h-59l266 287h46z" />
    <glyph glyph-name="uni032E" unicode="&#x32e;" 
d="M-212 -144q0 -75 58 -125q59 -50 154 -50t154 50q58 50 58 125h45q0 -99 -73 -159q-70 -58 -184 -58t-184 58q-73 60 -73 159h45z" />
    <glyph glyph-name="uni0330" unicode="&#x330;" 
d="M-10 -268q-78 84 -127 84q-97 0 -97 -158h-45q0 92 35 145q37 56 107 56q69 0 147 -83q78 -84 127 -84q97 0 97 158h45q0 -93 -35 -146q-37 -56 -107 -56q-69 0 -147 84z" />
    <glyph glyph-name="uni0331" unicode="&#x331;" 
d="M282 -244h-564v43h564v-43z" />
    <glyph glyph-name="uni037E" unicode="&#x37e;" horiz-adv-x="488" 
d="M203 787q-17 17 -17 40q0 24 17 41q17 16 40 16q24 0 41 -16q16 -17 16 -41q0 -23 -16 -40q-17 -17 -41 -17q-23 0 -40 17zM162 -211l56 384h53l-68 -384h-41z" />
    <glyph glyph-name="tonos" unicode="&#x384;" horiz-adv-x="541" 
d="M267 1571h62l-110 -317h-43z" />
    <glyph glyph-name="dieresistonos" unicode="&#x385;" horiz-adv-x="795" 
d="M184 1270q-16 16 -16 38t16 37q16 16 39 16q22 0 38 -16q16 -15 16 -37t-16 -38t-38 -16t-39 16zM532 1270q-16 16 -16 38t16 37q16 16 39 16q22 0 38 -16q16 -15 16 -37t-16 -38t-38 -16t-39 16zM361 1254l54 317h63l-73 -317h-44z" />
    <glyph glyph-name="Alphatonos" unicode="&#x386;" horiz-adv-x="1199" 
d="M934 501h-671l-190 -501h-55l555 1443h51l555 -1443h-56zM281 547h635l-315 827h-5zM143 1101l99 342h63l-117 -342h-45z" />
    <glyph glyph-name="anoteleia" unicode="&#x387;" horiz-adv-x="488" 
d="M203 979q-17 17 -17 40q0 24 17 41t40 17q24 0 41 -17q16 -17 16 -41q0 -23 -16 -40q-17 -17 -41 -17q-23 0 -40 17z" />
    <glyph glyph-name="Epsilontonos" unicode="&#x388;" horiz-adv-x="1227" 
d="M43 1101l99 342h63l-117 -342h-45zM1153 0h-826v1443h826v-47h-776v-632h740v-46h-740v-671h776v-47z" />
    <glyph glyph-name="Etatonos" unicode="&#x389;" horiz-adv-x="1501" 
d="M43 1101l99 342h63l-117 -342h-45zM1325 0v718h-948v-718h-50v1443h50v-678h948v678h50v-1443h-50z" />
    <glyph glyph-name="Iotatonos" unicode="&#x38a;" horiz-adv-x="502" 
d="M327 0v1443h50v-1443h-50zM43 1101l99 342h63l-117 -342h-45z" />
    <glyph glyph-name="Omicrontonos" unicode="&#x38c;" horiz-adv-x="1516" 
d="M1281 1262q172 -200 172 -540q0 -341 -172 -542q-172 -200 -464 -200t-464 200q-172 201 -172 542q0 340 172 540q172 201 464 201q291 0 464 -201zM390 1228q-159 -187 -159 -506q0 -318 159 -507q159 -188 427 -188q267 0 427 188q159 189 159 507t-159 506t-427 188
q-269 0 -427 -188zM41 1101l99 342h63l-117 -342h-45z" />
    <glyph glyph-name="Upsilontonos" unicode="&#x38e;" horiz-adv-x="1433" 
d="M42 1102l99 342h63l-117 -342h-45zM835 0v631l-529 812h60l492 -758h4l491 758h59l-527 -812v-631h-50z" />
    <glyph glyph-name="Omegatonos" unicode="&#x38f;" horiz-adv-x="1585" 
d="M1265 1232q-167 184 -431 184q-265 0 -432 -182q-167 -181 -167 -469q0 -466 475 -690v-75h-528v47h476v4q-473 231 -473 715q0 309 180 503t469 194q288 0 468 -196q178 -194 178 -501q0 -482 -473 -715v-4h476v-47h-528v75q475 224 475 690q0 285 -165 467zM41 1101
l99 342h63l-117 -342h-45z" />
    <glyph glyph-name="iotadieresistonos" unicode="&#x390;" horiz-adv-x="468" 
d="M175 49q-55 58 -55 193v834h49v-833q0 -110 44 -159t144 -49q55 0 89 10l1 -45q-35 -10 -92 -10q-126 0 -180 59zM-54 1270q-16 16 -16 38t16 37q16 16 39 16q22 0 38 -16q16 -15 16 -37t-16 -38t-38 -16t-39 16zM294 1270q-16 16 -16 38t16 37q16 16 39 16q22 0 38 -16
q16 -15 16 -37t-16 -38t-38 -16t-39 16zM123 1254l54 317h63l-73 -317h-44z" />
    <glyph glyph-name="Alpha" unicode="&#x391;" horiz-adv-x="1201" 
d="M935 501h-671l-190 -501h-55l555 1443h51l555 -1443h-56zM282 547h635l-315 827h-5z" />
    <glyph glyph-name="Beta" unicode="&#x392;" horiz-adv-x="1139" 
d="M123 0v1443h464q188 0 305 -96q117 -97 117 -253q0 -133 -79 -226q-78 -92 -214 -119v-4q161 -16 262 -111q108 -100 108 -255q0 -174 -130 -276q-130 -103 -355 -103h-478zM173 765h401q174 0 279 89q106 90 106 239q0 137 -103 221q-103 83 -273 83h-410v-632zM599 46
q204 0 321 91q117 90 117 243q0 157 -122 248q-124 91 -338 91h-404v-673h426z" />
    <glyph glyph-name="Gamma" unicode="&#x393;" horiz-adv-x="973" 
d="M123 0v1443h797v-47h-747v-1396h-50z" />
    <glyph glyph-name="uni0394" unicode="&#x394;" horiz-adv-x="1254" 
d="M40 0v37l560 1406h51l561 -1406v-37h-1172zM101 47h1050v5l-523 1322h-4l-523 -1322v-5z" />
    <glyph glyph-name="Epsilon" unicode="&#x395;" horiz-adv-x="1023" 
d="M949 0h-826v1443h826v-47h-776v-632h740v-46h-740v-671h776v-47z" />
    <glyph glyph-name="Zeta" unicode="&#x396;" horiz-adv-x="1147" 
d="M63 42l954 1350v4h-925v47h989v-43l-953 -1349v-4h954v-47h-1019v42z" />
    <glyph glyph-name="Eta" unicode="&#x397;" horiz-adv-x="1296" 
d="M1121 0v718h-948v-718h-50v1443h50v-678h948v678h50v-1443h-50z" />
    <glyph glyph-name="Theta" unicode="&#x398;" horiz-adv-x="1398" 
d="M345 707v47h706v-47h-706zM1162 1262q173 -200 173 -540q0 -341 -172 -542q-172 -200 -465 -200q-292 0 -464 200q-172 201 -172 542q0 340 172 540q172 201 464 201t464 -201zM271 1228q-159 -187 -159 -506q0 -318 159 -507q159 -188 427 -188t427 188q160 189 160 507
t-160 506q-159 188 -427 188q-269 0 -427 -188z" />
    <glyph glyph-name="Iota" unicode="&#x399;" horiz-adv-x="298" 
d="M123 0v1443h50v-1443h-50z" />
    <glyph glyph-name="Kappa" unicode="&#x39a;" horiz-adv-x="1107" 
d="M123 0v1443h50v-836h4l784 836h64l-594 -635l664 -808h-64l-636 773l-222 -237v-536h-50z" />
    <glyph glyph-name="Lambda" unicode="&#x39b;" horiz-adv-x="1161" 
d="M582 1369h-5l-503 -1369h-55l535 1443h51l535 -1443h-56z" />
    <glyph glyph-name="Mu" unicode="&#x39c;" horiz-adv-x="1576" 
d="M1450 0h-49v1328h-4l-584 -1327h-53l-584 1327h-4v-1328h-49v1443h53l609 -1380h4l606 1380h55v-1443z" />
    <glyph glyph-name="Nu" unicode="&#x39d;" horiz-adv-x="1315" 
d="M123 0v1443h55l958 -1348h4v1348h50v-1443h-46l-967 1359h-4v-1359h-50z" />
    <glyph glyph-name="Xi" unicode="&#x39e;" horiz-adv-x="1154" 
d="M1081 1443v-49h-1009v49h1009zM130 719v49h892v-49h-892zM1081 49v-49h-1009v49h1009z" />
    <glyph glyph-name="Omicron" unicode="&#x39f;" horiz-adv-x="1398" 
d="M1162 1262q172 -200 172 -540q0 -341 -172 -542q-172 -200 -464 -200t-464 200q-172 201 -172 542q0 340 172 540q172 201 464 201q291 0 464 -201zM271 1228q-159 -187 -159 -506q0 -318 159 -507q159 -188 427 -188q267 0 427 188q159 189 159 507t-159 506t-427 188
q-269 0 -427 -188z" />
    <glyph glyph-name="Pi" unicode="&#x3a0;" horiz-adv-x="1276" 
d="M1101 0v1396h-928v-1396h-50v1443h1028v-1443h-50z" />
    <glyph glyph-name="Rho" unicode="&#x3a1;" horiz-adv-x="1087" 
d="M571 1443q212 0 338 -114q125 -114 125 -307t-126 -307t-338 -114h-397v-601h-50v1443h448zM173 648h394q192 0 304 100q113 101 113 274q0 174 -112 274q-113 100 -305 100h-394v-748z" />
    <glyph glyph-name="Sigma" unicode="&#x3a3;" horiz-adv-x="1126" 
d="M127 47h934v-47h-998v42l483 698l-465 659v44h960v-47h-894v-4l457 -648v-4l-477 -689v-4z" />
    <glyph glyph-name="Tau" unicode="&#x3a4;" horiz-adv-x="1117" 
d="M534 0v1396h-521v47h1091v-47h-521v-1396h-49z" />
    <glyph glyph-name="Upsilon" unicode="&#x3a5;" horiz-adv-x="1148" 
d="M549 0v631l-529 812h60l492 -758h4l491 758h59l-527 -812v-631h-50z" />
    <glyph glyph-name="Phi" unicode="&#x3a6;" horiz-adv-x="1511" 
d="M1247 1173q-169 162 -468 164v-1227q299 1 468 164t169 450q0 286 -169 449zM261 274q169 -163 468 -164v1227q-300 -2 -468 -164q-169 -163 -169 -449q0 -287 169 -450zM729 -59v123q-325 1 -506 175t-181 485q0 310 181 485q181 174 506 175v106h50v-106
q324 -2 507 -175q182 -175 182 -485q0 -311 -182 -485q-183 -174 -507 -175v-123h-50z" />
    <glyph glyph-name="Chi" unicode="&#x3a7;" horiz-adv-x="1190" 
d="M41 1443h60l493 -680h1l494 680h59l-523 -721l522 -722h-60l-492 680h-1l-495 -680h-59z" />
    <glyph glyph-name="Psi" unicode="&#x3a8;" horiz-adv-x="1399" 
d="M673 0v357q-281 0 -426 142t-145 417v527h50v-527q0 -251 133 -381q133 -131 388 -131v1039h50v-1039q256 0 389 131q133 130 133 381v527h50v-527q0 -275 -145 -417q-146 -142 -427 -142v-357h-50z" />
    <glyph glyph-name="uni03A9" unicode="&#x3a9;" horiz-adv-x="1503" 
d="M1183 1232q-167 184 -431 184q-265 0 -432 -182q-167 -181 -167 -469q0 -466 475 -690v-75h-528v47h476v4q-473 231 -473 715q0 309 180 503t469 194q288 0 468 -196q178 -194 178 -501q0 -482 -473 -715v-4h476v-47h-528v75q475 224 475 690q0 285 -165 467z" />
    <glyph glyph-name="Iotadieresis" unicode="&#x3aa;" horiz-adv-x="347" 
d="M173 0v1443h50v-1443h-50zM20 1572q-16 16 -16 38t16 37q16 16 39 16q22 0 38 -16q16 -15 16 -37t-16 -38t-38 -16t-39 16zM299 1572q-16 16 -16 38t16 37q16 16 38 16q23 0 39 -16q16 -15 16 -37t-16 -38q-17 -16 -39 -16t-38 16z" />
    <glyph glyph-name="Upsilondieresis" unicode="&#x3ab;" horiz-adv-x="1208" 
d="M609 0v631l-529 812h60l492 -758h4l491 758h59l-527 -812v-631h-50zM455 1572q-16 16 -16 38t16 37q16 16 39 16q22 0 38 -16q16 -15 16 -37t-16 -38t-38 -16t-39 16zM734 1572q-16 16 -16 38t16 37q16 16 38 16q23 0 39 -16q16 -15 16 -37t-16 -38q-17 -16 -39 -16
t-38 16z" />
    <glyph glyph-name="alphatonos" unicode="&#x3ac;" horiz-adv-x="1209" 
d="M811 175q114 145 114 363q0 219 -118 364q-117 144 -288 144q-175 0 -290 -144t-115 -364q0 -222 115 -364q115 -143 295 -143q173 0 287 144zM192 140q-128 157 -128 399q0 240 128 397q129 156 326 156q138 0 255 -93q122 -97 154 -244h2v321h46v-884q0 -82 28 -119
q27 -37 88 -37q34 0 67 9l5 -44q-23 -10 -78 -10q-157 0 -160 190v134h-2q-28 -136 -143 -232q-117 -99 -259 -99q-200 0 -329 156zM599 1571h62l-110 -317h-43z" />
    <glyph glyph-name="epsilontonos" unicode="&#x3ad;" horiz-adv-x="1019" 
d="M570 1571h62l-110 -317h-43zM183 63q-108 79 -108 219q0 106 63 178q63 73 173 93v2q-99 9 -156 74q-58 64 -58 166q0 135 111 216q110 81 293 81q178 0 297 -90t139 -241h-49q-12 124 -122 204q-110 81 -266 81q-160 0 -257 -69t-97 -182q0 -215 310 -215h145v-48h-147
q-154 0 -242 -66q-88 -67 -88 -183q0 -119 95 -185q94 -67 262 -67q156 0 274 76t150 199h51q-29 -141 -163 -231q-133 -91 -309 -91q-193 0 -301 79z" />
    <glyph glyph-name="etatonos" unicode="&#x3ae;" horiz-adv-x="1203" 
d="M1040 -393v1081q0 157 -95 257q-96 101 -245 101q-174 0 -278 -111t-104 -297v-638h-49v884q0 157 -117 157q-43 0 -72 -10v45q33 10 79 10q152 0 155 -201l1 -63h2q40 125 143 198q104 72 245 72q167 0 276 -109q108 -110 108 -278v-1098h-49zM570 1571h62l-110 -317
h-43z" />
    <glyph glyph-name="iotatonos" unicode="&#x3af;" horiz-adv-x="468" 
d="M174 49q-55 58 -55 193v834h49v-833q0 -110 44 -159t144 -49q55 0 89 10l1 -45q-35 -10 -92 -10q-126 0 -180 59zM216 1571h62l-110 -317h-43z" />
    <glyph glyph-name="upsilondieresistonos" unicode="&#x3b0;" horiz-adv-x="1031" 
d="M273 1270q-16 16 -16 38t16 37q16 16 39 16q22 0 38 -16q16 -15 16 -37t-16 -38t-38 -16t-39 16zM621 1270q-16 16 -16 38t16 37q16 16 39 16q22 0 38 -16q16 -15 16 -37t-16 -38t-38 -16t-39 16zM450 1254l54 317h63l-73 -317h-44zM217 94q-105 110 -105 313v669h49
v-666q0 -183 91 -281t259 -98q180 0 282 145q101 144 101 395q0 305 -81 505h51q80 -204 80 -503q0 -274 -115 -431q-116 -158 -319 -158q-190 0 -293 110z" />
    <glyph glyph-name="alpha" unicode="&#x3b1;" horiz-adv-x="1209" 
d="M811 175q114 145 114 363q0 219 -118 364q-117 144 -288 144q-175 0 -290 -144t-115 -364q0 -222 115 -364q115 -143 295 -143q173 0 287 144zM192 140q-128 157 -128 399q0 240 128 397q129 156 326 156q138 0 255 -93q122 -97 154 -244h2v321h46v-884q0 -82 28 -119
q27 -37 88 -37q34 0 67 9l5 -44q-23 -10 -78 -10q-157 0 -160 190v134h-2q-28 -136 -143 -232q-117 -99 -259 -99q-200 0 -329 156z" />
    <glyph glyph-name="beta" unicode="&#x3b2;" horiz-adv-x="1108" 
d="M413 839h149q149 0 240 88q90 87 90 228q0 145 -93 232q-92 88 -246 88q-189 0 -287 -116q-98 -117 -98 -343v-470q0 -236 118 -375q119 -140 322 -140q172 0 278 105q106 104 106 269q0 185 -122 287q-117 99 -321 99h-136v48zM119 1020q0 243 112 373q111 129 319 129
q181 0 286 -100q104 -99 104 -265q0 -126 -68 -216q-73 -95 -201 -122v-2q180 -25 276 -132q95 -106 95 -276q0 -191 -121 -309q-119 -116 -310 -116q-168 0 -285 87q-118 88 -156 244h-2v-708h-49v1413z" />
    <glyph glyph-name="gamma" unicode="&#x3b3;" horiz-adv-x="971" 
d="M783 487q-84 -183 -316 -494v-347h-49v340l-388 1090h54l362 -1025h2q211 285 290 461q88 194 88 403q0 77 -14 161h51q12 -81 12 -161q0 -226 -92 -428z" />
    <glyph glyph-name="delta" unicode="&#x3b4;" horiz-adv-x="1049" 
d="M185 124q-130 140 -130 365q0 231 122 369q119 135 324 145v3q-142 56 -202 119q-60 62 -60 153q0 114 88 179t243 65q181 0 306 -66l-1 -47q-132 67 -305 67q-135 0 -208 -52q-74 -51 -74 -145q0 -86 72 -145q73 -59 273 -136q185 -72 270 -196q85 -125 85 -325
q0 -217 -130 -355q-129 -138 -331 -138q-211 0 -342 140zM824 154q115 125 115 322q0 239 -136 372q-117 114 -287 114q-175 0 -289 -118q-124 -129 -124 -352q0 -204 117 -333t306 -129q183 0 298 124z" />
    <glyph glyph-name="epsilon" unicode="&#x3b5;" horiz-adv-x="1019" 
d="M183 63q-108 79 -108 219q0 106 63 178q63 73 173 93v2q-99 9 -156 74q-58 64 -58 166q0 135 111 216q110 81 293 81q178 0 297 -90t139 -241h-49q-12 124 -122 204q-110 81 -266 81q-160 0 -257 -69t-97 -182q0 -215 310 -215h145v-48h-147q-154 0 -242 -66
q-88 -67 -88 -183q0 -119 95 -185q94 -67 262 -67q156 0 274 76t150 199h51q-29 -141 -163 -231q-133 -91 -309 -91q-193 0 -301 79z" />
    <glyph glyph-name="zeta" unicode="&#x3b6;" horiz-adv-x="838" 
d="M721 -382q55 79 55 179q0 140 -251 232q-261 95 -362 209q-99 112 -99 305q0 242 191 502q186 254 469 411v2h-580v48h670v-48q-312 -170 -504 -416q-196 -253 -196 -498q0 -180 89 -276q90 -98 354 -200q151 -59 212 -123q56 -60 56 -148q0 -108 -61 -190z" />
    <glyph glyph-name="eta" unicode="&#x3b7;" horiz-adv-x="1203" 
d="M1040 -393v1081q0 157 -95 257q-96 101 -245 101q-174 0 -278 -111t-104 -297v-638h-49v884q0 157 -117 157q-43 0 -72 -10v45q33 10 79 10q152 0 155 -201l1 -63h2q40 125 143 198q104 72 245 72q167 0 276 -109q108 -110 108 -278v-1098h-49z" />
    <glyph glyph-name="theta" unicode="&#x3b8;" horiz-adv-x="1092" 
d="M80 755q0 378 118 573q118 194 348 194q229 0 346 -194q118 -195 118 -573q0 -771 -464 -771q-466 0 -466 771zM854 210q106 179 107 524h-831q0 -344 106 -524q107 -179 310 -179t308 179zM961 780q-1 342 -107 519q-105 176 -308 176q-204 0 -310 -176
q-105 -177 -106 -519h831z" />
    <glyph glyph-name="iota" unicode="&#x3b9;" horiz-adv-x="468" 
d="M174 49q-55 58 -55 193v834h49v-833q0 -110 44 -159t144 -49q55 0 89 10l1 -45q-35 -10 -92 -10q-126 0 -180 59z" />
    <glyph glyph-name="kappa" unicode="&#x3ba;" horiz-adv-x="1057" 
d="M119 1076h49v-721h2l536 618q99 113 197 113q47 0 73 -10v-45q-27 10 -68 10q-77 0 -167 -103l-238 -275l484 -663h-62l-455 625l-302 -343v-282h-49v1076z" />
    <glyph glyph-name="lambda" unicode="&#x3bb;" horiz-adv-x="1084" 
d="M489 1046l-81 225q-42 116 -92 160q-48 43 -130 43q-46 0 -73 -10v48q33 10 77 10q99 0 155 -49q57 -51 104 -184l405 -1154q21 -57 48 -78q26 -21 74 -21q37 0 67 9l6 -44q-30 -10 -76 -10q-66 0 -100 27t-61 101l-299 861h-2l-419 -980h-53z" />
    <glyph glyph-name="uni03BC" unicode="&#x3bc;" horiz-adv-x="1189" 
d="M119 1076h49v-683q0 -169 92 -266q91 -96 252 -96q165 0 272 113q106 113 106 288v644h49v-884q0 -156 117 -156q34 0 67 9l5 -44q-23 -10 -78 -10q-156 0 -159 188q0 65 -1 66h-2q-38 -119 -141 -190t-237 -71q-130 0 -223 61q-92 61 -117 163h-2v-601h-49v1469z" />
    <glyph glyph-name="nu" unicode="&#x3bd;" horiz-adv-x="970" 
d="M30 1076h54l362 -1025h2q210 284 289 461q87 193 87 403q0 77 -14 161h51q13 -79 13 -161q0 -227 -90 -426q-83 -183 -312 -489h-60z" />
    <glyph glyph-name="xi" unicode="&#x3be;" horiz-adv-x="869" 
d="M721 -382q55 79 55 179q0 72 -58 126t-192 105q-275 106 -369 193q-93 86 -93 232q0 154 97 250q96 97 267 114v2q-299 77 -299 309q0 129 93 215t260 113v2h-353v48h651v-45l-116 -10q-240 -20 -366 -103q-127 -83 -127 -220q0 -134 117 -209q117 -74 326 -74h89v-48
h-87q-502 0 -502 -347q0 -125 86 -201q87 -77 340 -175q161 -61 223 -122q62 -60 62 -155q0 -108 -61 -190z" />
    <glyph glyph-name="omicron" unicode="&#x3bf;" horiz-adv-x="1069" 
d="M193 133q-129 150 -129 404t129 405q127 150 340 150t341 -150q129 -151 129 -405t-129 -404q-128 -149 -341 -149t-340 149zM836 168q118 139 118 369q0 231 -118 371q-116 138 -303 138t-302 -138q-117 -139 -117 -371q0 -231 116 -370q115 -136 303 -136
q187 0 303 137z" />
    <glyph glyph-name="pi" unicode="&#x3c0;" horiz-adv-x="1278" 
d="M287 1029h-214v47h1128v-47h-219v-838q0 -155 116 -155q34 0 67 9l5 -44q-23 -10 -78 -10q-159 0 -159 195v843h-597v-1028h-49v1028z" />
    <glyph glyph-name="rho" unicode="&#x3c1;" horiz-adv-x="1072" 
d="M843 171q113 141 113 371q0 224 -113 364t-295 140q-195 0 -304 -133q-110 -132 -110 -370q0 -225 115 -368q116 -144 297 -144q185 0 297 140zM84 550q0 250 126 396q125 146 338 146q203 0 330 -155q128 -154 128 -401t-127 -400q-127 -152 -333 -152q-145 0 -262 94
q-116 94 -148 237h-2v-708h-50v943z" />
    <glyph glyph-name="sigma1" unicode="&#x3c2;" horiz-adv-x="1018" 
d="M721 -382q55 79 55 179q0 140 -251 232q-260 95 -362 209q-99 111 -99 302q0 254 127 403t341 149q163 0 281 -93q116 -92 143 -238h-51q-26 126 -127 205q-103 80 -246 80q-193 0 -306 -137q-112 -137 -112 -367q0 -179 90 -275q90 -97 353 -199q151 -59 212 -123
q56 -60 56 -148q0 -108 -61 -190z" />
    <glyph glyph-name="sigma" unicode="&#x3c3;" horiz-adv-x="1195" 
d="M192 133q-128 149 -128 390q0 259 132 406t365 147h558v-47h-377v-3q122 -54 190 -182q67 -128 67 -306q0 -248 -130 -401q-131 -153 -343 -153q-206 0 -334 149zM834 171q118 139 118 365q0 229 -108 360q-107 132 -294 132q-202 0 -319 -136t-117 -369q0 -220 114 -356
q113 -136 297 -136q191 0 309 140z" />
    <glyph glyph-name="tau" unicode="&#x3c4;" horiz-adv-x="971" 
d="M490 49q-55 58 -55 194v786h-376v47h860v-47h-434v-783q0 -112 44 -162q44 -49 145 -49q54 0 86 10l5 -45q-33 -10 -94 -10q-127 0 -181 59z" />
    <glyph glyph-name="upsilon" unicode="&#x3c5;" horiz-adv-x="1031" 
d="M217 94q-105 110 -105 313v669h49v-666q0 -183 91 -281t259 -98q180 0 282 145q101 144 101 395q0 305 -81 505h51q80 -204 80 -503q0 -274 -115 -431q-116 -158 -319 -158q-190 0 -293 110z" />
    <glyph glyph-name="phi" unicode="&#x3c6;" horiz-adv-x="1350" 
d="M650 -16q-274 8 -435 158q-161 149 -161 396q0 249 160 397q160 150 436 157v263h49v-263q276 -7 436 -157q159 -148 159 -397q0 -247 -160 -396q-161 -150 -435 -158v-377h-49v377zM699 28q244 1 395 142t151 368q0 228 -151 369q-150 140 -395 141v-1020zM650 1048
q-245 -1 -396 -141q-150 -141 -150 -369q0 -227 151 -368t395 -142v1020z" />
    <glyph glyph-name="chi" unicode="&#x3c7;" horiz-adv-x="1152" 
d="M584 339l-289 579q-36 72 -68 97q-33 26 -88 26q-39 0 -66 -10v45q32 10 73 10q71 0 113 -33q38 -29 77 -108l282 -560h2l379 691h56l-408 -736l288 -576q33 -67 65 -93q34 -28 86 -28q36 0 67 10l5 -45q-33 -10 -74 -10q-76 0 -120 37q-34 29 -73 108l-278 551h-2
l-375 -687h-56z" />
    <glyph glyph-name="psi" unicode="&#x3c8;" horiz-adv-x="1269" 
d="M606 -16q-236 1 -364 109q-130 109 -130 313v670h49v-674q0 -167 102 -263q115 -108 343 -108v1324h49v-1325q264 5 386 189q92 139 92 357q0 304 -83 500h52q80 -198 80 -496q0 -244 -110 -399q-136 -192 -417 -198v-376h-49v377z" />
    <glyph glyph-name="omega" unicode="&#x3c9;" horiz-adv-x="1445" 
d="M174 116q-89 134 -89 381q0 351 169 579h60q-180 -219 -180 -579q0 -222 77 -346t215 -124q128 0 200 101q71 101 71 282v326h49v-326q0 -181 72 -282q71 -101 199 -101q138 0 215 124t77 346q0 360 -180 579h61q169 -230 169 -579q0 -247 -89 -381q-89 -135 -252 -135
q-111 0 -189 69t-106 192h-2q-28 -124 -106 -192q-78 -69 -190 -69q-163 0 -251 135z" />
    <glyph glyph-name="iotadieresis" unicode="&#x3ca;" horiz-adv-x="468" 
d="M-27 1270q-16 16 -16 38t16 37q16 16 39 16q22 0 38 -16q16 -15 16 -37t-16 -38t-38 -16t-39 16zM252 1270q-16 16 -16 38t16 37q16 16 38 16q23 0 39 -16q16 -15 16 -37t-16 -38q-17 -16 -39 -16t-38 16zM175 49q-55 58 -55 193v834h49v-833q0 -110 44 -159t144 -49
q55 0 89 10l1 -45q-35 -10 -92 -10q-126 0 -180 59z" />
    <glyph glyph-name="upsilondieresis" unicode="&#x3cb;" horiz-adv-x="1031" 
d="M306 1270q-16 16 -16 38t16 37q16 16 39 16q22 0 38 -16q16 -15 16 -37t-16 -38t-38 -16t-39 16zM585 1270q-16 16 -16 38t16 37q16 16 38 16q23 0 39 -16q16 -15 16 -37t-16 -38q-17 -16 -39 -16t-38 16zM217 94q-105 110 -105 313v669h49v-666q0 -183 91 -281t259 -98
q180 0 282 145q101 144 101 395q0 305 -81 505h51q80 -204 80 -503q0 -274 -115 -431q-116 -158 -319 -158q-190 0 -293 110z" />
    <glyph glyph-name="omicrontonos" unicode="&#x3cc;" horiz-adv-x="1069" 
d="M193 133q-129 150 -129 404t129 405q127 150 340 150t341 -150q129 -151 129 -405t-129 -404q-128 -149 -341 -149t-340 149zM836 168q118 139 118 369q0 231 -118 371q-116 138 -303 138t-302 -138q-117 -139 -117 -371q0 -231 116 -370q115 -136 303 -136
q187 0 303 137zM599 1571h62l-110 -317h-43z" />
    <glyph glyph-name="upsilontonos" unicode="&#x3cd;" horiz-adv-x="1031" 
d="M531 1571h62l-110 -317h-43zM217 94q-105 110 -105 313v669h49v-666q0 -183 91 -281t259 -98q180 0 282 145q101 144 101 395q0 305 -81 505h51q80 -204 80 -503q0 -274 -115 -431q-116 -158 -319 -158q-190 0 -293 110z" />
    <glyph glyph-name="omegatonos" unicode="&#x3ce;" horiz-adv-x="1445" 
d="M174 116q-89 134 -89 381q0 351 169 579h60q-180 -219 -180 -579q0 -222 77 -346t215 -124q128 0 200 101q71 101 71 282v326h49v-326q0 -181 72 -282q71 -101 199 -101q138 0 215 124t77 346q0 360 -180 579h61q169 -230 169 -579q0 -247 -89 -381q-89 -135 -252 -135
q-111 0 -189 69t-106 192h-2q-28 -124 -106 -192q-78 -69 -190 -69q-163 0 -251 135zM792 1571h62l-110 -317h-43z" />
    <glyph glyph-name="uni0401" unicode="&#x401;" horiz-adv-x="1043" 
d="M368 1572q-16 16 -16 38t16 37q16 16 39 16q22 0 38 -16q16 -15 16 -37t-16 -38t-38 -16t-39 16zM647 1572q-16 16 -16 38t16 37q16 16 38 16q23 0 39 -16q16 -15 16 -37t-16 -38q-17 -16 -39 -16t-38 16zM959 0h-826v1443h826v-47h-776v-632h740v-46h-740v-671h776v-47z
" />
    <glyph glyph-name="uni0402" unicode="&#x402;" horiz-adv-x="1524" 
d="M951 0v47q30 -9 101 -9q150 0 240 105q89 104 89 273q0 181 -107 287q-106 106 -287 106q-249 0 -396 -176v-633h-49v1396h-520v47h1091v-47h-522v-694h5q152 154 392 154q203 0 323 -120q119 -120 119 -320q0 -190 -104 -308t-272 -118q-70 0 -103 10z" />
    <glyph glyph-name="uni0403" unicode="&#x403;" horiz-adv-x="1011" 
d="M470 1554l293 287h66l-303 -287h-56zM133 0v1443h815v-47h-765v-1396h-50z" />
    <glyph glyph-name="uni0404" unicode="&#x404;" horiz-adv-x="1322" 
d="M1258 428q-17 -197 -175 -323q-156 -125 -382 -125q-287 0 -458 204t-171 548q0 337 170 534q169 197 459 197q215 0 377 -137t181 -335h-49q-20 179 -167 302t-342 123q-260 0 -415 -175q-156 -175 -164 -476h772v-47h-772q3 -317 161 -504q157 -187 418 -187
q202 0 345 111q145 112 163 290h49z" />
    <glyph glyph-name="uni0405" unicode="&#x405;" horiz-adv-x="1134" 
d="M111 382q8 -156 140 -256q131 -100 329 -100q193 0 317 100q122 99 122 251q0 120 -85 193t-277 121l-167 42q-202 50 -295 134q-94 83 -94 215q0 163 136 273q134 108 325 108q200 0 337 -104q135 -103 142 -257h-50q-7 135 -129 225t-300 90q-172 0 -290 -94
q-121 -97 -121 -241q0 -114 86 -186q84 -70 269 -116l165 -41q207 -52 301 -135q97 -86 97 -225q0 -175 -136 -286q-137 -113 -355 -113q-219 0 -364 113t-153 289h50z" />
    <glyph glyph-name="uni0406" unicode="&#x406;" horiz-adv-x="318" 
d="M133 0v1443h50v-1443h-50z" />
    <glyph glyph-name="uni0407" unicode="&#x407;" horiz-adv-x="318" 
d="M134 0v1443h50v-1443h-50zM-19 1572q-16 16 -16 38t16 37q16 16 39 16q22 0 38 -16q16 -15 16 -37t-16 -38t-38 -16t-39 16zM260 1572q-16 16 -16 38t16 37q16 16 38 16q23 0 39 -16q16 -15 16 -37t-16 -38q-17 -16 -39 -16t-38 16z" />
    <glyph glyph-name="uni0408" unicode="&#x408;" horiz-adv-x="953" 
d="M99 315q7 -128 98 -209q92 -80 230 -80q159 0 250 95t91 263v1059h50v-1062q0 -185 -104 -293q-105 -109 -287 -109q-160 0 -266 94t-111 242h49z" />
    <glyph glyph-name="uni0409" unicode="&#x409;" horiz-adv-x="2039" 
d="M340 450q-12 -212 -65 -322q-65 -137 -200 -137q-20 0 -39 5q-20 4 -17 4v47q9 -9 54 -9q191 0 216 419l60 986h768v-603h396q212 0 338 -114q126 -113 126 -306q0 -192 -126 -306t-338 -114h-446v1396h-670zM1510 47q191 0 304 101q114 102 114 272t-114 272
q-114 101 -304 101h-393v-746h393z" />
    <glyph glyph-name="uni040A" unicode="&#x40a;" horiz-adv-x="2083" 
d="M1553 47q192 0 305 94q113 93 113 250q0 150 -113 239q-114 88 -305 88h-393v-671h393zM183 0h-50v1443h50v-678h927v678h50v-678h396q213 0 338 -101q126 -101 126 -273q0 -179 -125 -285q-126 -106 -339 -106h-446v718h-927v-718z" />
    <glyph glyph-name="uni040B" unicode="&#x40b;" horiz-adv-x="1544" 
d="M765 761q-107 -48 -174 -128v-633h-49v1396h-520v47h1091v-47h-522v-693h5q156 153 392 153q195 0 314 -127q119 -126 119 -334v-395h-50v387q0 190 -106 306t-279 116q-113 0 -221 -48z" />
    <glyph glyph-name="uni040C" unicode="&#x40c;" horiz-adv-x="1135" 
d="M555 1554h-56l293 287h66zM1106 0h-76l-843 723h-4v-723h-50v1443h50v-684h4l792 684h73l-814 -699z" />
    <glyph glyph-name="uni040E" unicode="&#x40e;" horiz-adv-x="1114" 
d="M363 1770q0 -83 60 -130q57 -47 152 -47t153 47q59 47 59 130h46q0 -103 -72 -161q-69 -56 -186 -56t-186 56q-72 58 -72 161h46zM208 -4q-22 4 -17 4v47q-4 0 18 -4q22 -5 47 -5q93 0 166 92q52 65 125 225l-517 1088h57l484 -1025h5l452 1025h54l-474 -1072
q-88 -198 -145 -271q-86 -109 -207 -109q-26 0 -48 5z" />
    <glyph glyph-name="uni040F" unicode="&#x40f;" horiz-adv-x="1305" 
d="M133 0v1443h50v-1396h937v1396h50v-1443h-494v-285h-49v285h-494z" />
    <glyph glyph-name="uni0410" unicode="&#x410;" horiz-adv-x="1221" 
d="M945 501h-671l-190 -501h-55l555 1443h51l555 -1443h-56zM292 547h635l-315 827h-5z" />
    <glyph glyph-name="uni0411" unicode="&#x411;" horiz-adv-x="1118" 
d="M927 111q-126 -111 -339 -111h-455v1443h802v-47h-752v-577h405q212 0 338 -111t126 -298q0 -188 -125 -299zM585 47q192 0 305 98t113 265q0 165 -113 264q-114 98 -305 98h-402v-725h402z" />
    <glyph glyph-name="uni0412" unicode="&#x412;" horiz-adv-x="1159" 
d="M133 0v1443h464q188 0 305 -96q117 -97 117 -253q0 -133 -79 -226q-78 -92 -214 -119v-4q161 -16 262 -111q108 -100 108 -255q0 -174 -130 -276q-130 -103 -355 -103h-478zM183 765h401q174 0 279 89q106 90 106 239q0 137 -103 221q-103 83 -273 83h-410v-632zM609 46
q204 0 321 91q117 90 117 243q0 157 -122 248q-124 91 -338 91h-404v-673h426z" />
    <glyph glyph-name="uni0413" unicode="&#x413;" horiz-adv-x="1011" 
d="M133 0v1443h815v-47h-765v-1396h-50z" />
    <glyph glyph-name="uni0414" unicode="&#x414;" horiz-adv-x="1341" 
d="M313 448q-17 -299 -124 -396v-5h899v1349h-718zM60 -286h-49v333h93q138 67 158 407l60 989h816v-1396h189v-333h-49v286h-1218v-286z" />
    <glyph glyph-name="uni0415" unicode="&#x415;" horiz-adv-x="1043" 
d="M959 0h-826v1443h826v-47h-776v-632h740v-46h-740v-671h776v-47z" />
    <glyph glyph-name="uni0416" unicode="&#x416;" horiz-adv-x="1756" 
d="M1736 0h-74l-756 723h-4v-723h-50v723h-4l-757 -723h-73l779 744l-727 699h72l706 -684h4v684h50v-684h4l706 684h69l-726 -698z" />
    <glyph glyph-name="uni0417" unicode="&#x417;" horiz-adv-x="1102" 
d="M357 774h166q192 0 304 90q108 88 108 234q0 135 -104 226q-108 94 -281 94q-160 0 -269 -89q-107 -87 -126 -225h-49q19 159 138 259q122 102 306 102q194 0 317 -107q118 -103 118 -259q0 -132 -83 -223q-84 -92 -234 -120v-4q176 -12 275 -110q97 -96 97 -251
q0 -179 -133 -293q-138 -119 -364 -119q-200 0 -338 112q-134 108 -144 265h50q10 -136 131 -231q125 -99 303 -99q201 0 325 105q120 102 120 260q0 163 -116 249q-119 88 -351 88h-166v46z" />
    <glyph glyph-name="uni0418" unicode="&#x418;" horiz-adv-x="1335" 
d="M1150 1358h-5l-962 -1358h-50v1443h50v-1358h5l962 1358h50v-1443h-50v1358z" />
    <glyph glyph-name="uni0419" unicode="&#x419;" horiz-adv-x="1335" 
d="M455 1770q0 -83 60 -130q57 -47 152 -47t153 47q59 47 59 130h46q0 -103 -72 -161q-69 -56 -186 -56t-186 56q-72 58 -72 161h46zM1150 1358h-5l-962 -1358h-50v1443h50v-1358h5l962 1358h50v-1443h-50v1358z" />
    <glyph glyph-name="uni041A" unicode="&#x41a;" horiz-adv-x="1136" 
d="M1106 0h-76l-843 723h-4v-723h-50v1443h50v-684h4l792 684h73l-814 -699z" />
    <glyph glyph-name="uni041B" unicode="&#x41b;" horiz-adv-x="1258" 
d="M1076 0v1396h-679l-57 -946q-12 -213 -65 -323q-66 -136 -200 -136q-20 0 -39 5q-20 4 -17 4v47q9 -9 54 -9q191 0 216 419l60 986h777v-1443h-50z" />
    <glyph glyph-name="uni041C" unicode="&#x41c;" horiz-adv-x="1596" 
d="M1460 0h-49v1328h-4l-584 -1327h-53l-584 1327h-4v-1328h-49v1443h53l609 -1380h4l606 1380h55v-1443z" />
    <glyph glyph-name="uni041D" unicode="&#x41d;" horiz-adv-x="1316" 
d="M1131 0v718h-948v-718h-50v1443h50v-678h948v678h50v-1443h-50z" />
    <glyph glyph-name="uni041E" unicode="&#x41e;" horiz-adv-x="1418" 
d="M1172 1262q172 -200 172 -540q0 -341 -172 -542q-172 -200 -464 -200t-464 200q-172 201 -172 542q0 340 172 540q172 201 464 201q291 0 464 -201zM281 1228q-159 -187 -159 -506q0 -318 159 -507q159 -188 427 -188q267 0 427 188q159 189 159 507t-159 506t-427 188
q-269 0 -427 -188z" />
    <glyph glyph-name="uni041F" unicode="&#x41f;" horiz-adv-x="1305" 
d="M1121 0v1396h-938v-1396h-50v1443h1037v-1443h-49z" />
    <glyph glyph-name="uni0420" unicode="&#x420;" horiz-adv-x="1107" 
d="M581 1443q212 0 338 -114q125 -114 125 -307t-126 -307t-338 -114h-397v-601h-50v1443h448zM183 648h394q192 0 304 100q113 101 113 274q0 174 -112 274q-113 100 -305 100h-394v-748z" />
    <glyph glyph-name="uni0421" unicode="&#x421;" horiz-adv-x="1322" 
d="M243 184q-171 204 -171 548q0 337 170 534q169 197 459 197q215 0 377 -137t181 -335h-49q-20 179 -167 302t-342 123q-266 0 -423 -184q-156 -185 -156 -500q0 -324 158 -515q157 -190 421 -190q202 0 345 111q145 112 163 290h49q-17 -197 -175 -323
q-156 -125 -382 -125q-287 0 -458 204z" />
    <glyph glyph-name="uni0422" unicode="&#x422;" horiz-adv-x="1137" 
d="M543 0v1396h-521v47h1091v-47h-521v-1396h-49z" />
    <glyph glyph-name="uni0423" unicode="&#x423;" horiz-adv-x="1114" 
d="M208 -4q-22 4 -17 4v47q-4 0 18 -4q22 -5 47 -5q93 0 166 92q52 65 125 225l-517 1088h57l484 -1025h5l452 1025h54l-474 -1072q-88 -198 -145 -271q-86 -109 -207 -109q-26 0 -48 5z" />
    <glyph glyph-name="uni0424" unicode="&#x424;" horiz-adv-x="1498" 
d="M724 1248q-280 0 -446 -143t-166 -383t167 -383q166 -143 445 -144v1053zM1219 1105q-166 143 -445 143v-1053q278 1 445 144q166 143 166 383t-166 383zM724 149q-307 0 -484 154q-178 153 -178 419q0 265 178 419q178 153 484 154v159h50v-159q305 -1 483 -154
q178 -155 178 -419q0 -265 -178 -419t-483 -154v-160h-50v160z" />
    <glyph glyph-name="uni0425" unicode="&#x425;" horiz-adv-x="1210" 
d="M51 1443h60l493 -680h1l494 680h59l-523 -721l522 -722h-60l-492 680h-1l-495 -680h-59z" />
    <glyph glyph-name="uni0426" unicode="&#x426;" horiz-adv-x="1365" 
d="M1301 -285v285h-1168v1443h50v-1396h928v1396h50v-1396h189v-332h-49z" />
    <glyph glyph-name="uni0427" unicode="&#x427;" horiz-adv-x="1185" 
d="M1000 0v753h-3q-160 -165 -429 -165q-206 0 -334 126q-130 127 -130 336v393h49v-385q0 -197 119 -312q114 -111 296 -111q165 0 301 77q89 50 131 106v625h50v-1443h-50z" />
    <glyph glyph-name="uni0428" unicode="&#x428;" horiz-adv-x="1737" 
d="M133 1443h50v-1396h660v1396h49v-1396h660v1396h50v-1443h-1469v1443z" />
    <glyph glyph-name="uni0429" unicode="&#x429;" horiz-adv-x="1806" 
d="M1742 -285v285h-1609v1443h50v-1396h660v1396h49v-1396h660v1396h50v-1396h189v-332h-49z" />
    <glyph glyph-name="uni042A" unicode="&#x42a;" horiz-adv-x="1356" 
d="M383 0v1396h-358v47h407v-603h397q212 0 338 -114q126 -113 126 -306q0 -192 -126 -306t-338 -114h-446zM826 47q191 0 305 101q113 102 113 272t-114 272q-113 101 -304 101h-394v-746h394z" />
    <glyph glyph-name="uni042B" unicode="&#x42b;" horiz-adv-x="1462" 
d="M1277 0v1443h50v-1443h-50zM133 1443h50v-603h397q212 0 338 -114q126 -113 126 -306q0 -192 -126 -306t-338 -114h-447v1443zM577 47q191 0 304 101q113 102 113 272t-113 272q-114 101 -304 101h-394v-746h394z" />
    <glyph glyph-name="uni042C" unicode="&#x42c;" horiz-adv-x="1107" 
d="M133 1443h50v-603h397q212 0 338 -114q126 -113 126 -306q0 -192 -126 -306t-338 -114h-447v1443zM577 47q191 0 304 101q113 102 113 272t-113 272q-114 101 -304 101h-394v-746h394z" />
    <glyph glyph-name="uni042D" unicode="&#x42d;" horiz-adv-x="1334" 
d="M244 104q-161 125 -183 324h51q21 -175 170 -288t356 -113q262 0 417 188q154 187 155 503h-763v47h762q-11 298 -164 474q-154 177 -407 177q-195 0 -348 -123q-155 -124 -178 -302h-51q24 199 192 336q167 136 385 136q288 0 455 -200q167 -199 167 -541
q0 -345 -165 -543q-167 -199 -457 -199q-233 0 -394 124z" />
    <glyph glyph-name="uni042E" unicode="&#x42e;" horiz-adv-x="1813" 
d="M673 177q-165 198 -166 541h-324v-718h-50v1443h50v-678h325q11 325 175 512t440 187q286 0 451 -199q166 -199 166 -543t-165 -544q-166 -199 -452 -199q-285 0 -450 198zM711 1228q-154 -189 -154 -506q0 -318 154 -507q153 -189 412 -189t412 189q154 190 154 507
t-154 506q-153 189 -412 189t-412 -189z" />
    <glyph glyph-name="uni042F" unicode="&#x42f;" horiz-adv-x="1119" 
d="M934 1396h-390q-194 0 -306 -96q-112 -97 -112 -265q0 -167 112 -264q112 -96 306 -96h390v721zM87 0h-56l425 635q-171 22 -272 124q-107 107 -107 276q0 190 124 299t340 109h442v-1443h-49v628h-425z" />
    <glyph glyph-name="uni0430" unicode="&#x430;" horiz-adv-x="1030" 
d="M748 138q120 107 120 258v182l-381 -29q-338 -26 -338 -263q0 -111 88 -183q87 -73 221 -73q169 0 290 108zM199 69q-100 84 -100 217q0 276 380 306l389 30v97q0 153 -86 240q-87 87 -239 87q-151 0 -244 -74t-114 -209h-47q17 153 126 241t279 88q173 0 274 -99
q100 -100 100 -271v-722h-49v245h-1q-39 -116 -153 -188q-115 -73 -259 -73q-157 0 -256 85z" />
    <glyph glyph-name="uni0431" unicode="&#x431;" horiz-adv-x="1114" 
d="M213 138q-124 159 -124 449q0 501 120 699q120 197 427 198q106 0 184 9q97 9 147 30v-43q-46 -21 -142 -32q-90 -10 -190 -10q-252 -1 -362 -147q-108 -145 -137 -513h3q48 142 159 220q112 79 267 79q215 0 344 -148t129 -395q0 -251 -130 -403q-130 -151 -345 -151
q-226 0 -350 158zM872 165q116 139 116 369q0 226 -116 361q-116 136 -309 136q-194 0 -310 -136q-115 -135 -115 -361q0 -231 116 -369q116 -139 309 -139t309 139z" />
    <glyph glyph-name="uni0432" unicode="&#x432;" horiz-adv-x="968" 
d="M178 1030v-450h328q129 0 206 64q76 65 76 172q0 101 -73 157q-73 57 -204 57h-333zM178 534v-489h341q329 0 329 254q0 114 -94 176q-89 59 -247 59h-329zM129 1076h383q150 0 238 -69q87 -70 87 -190q0 -101 -58 -170q-58 -68 -155 -85v-3q116 -9 190 -74
q82 -72 82 -187q0 -146 -98 -223q-97 -75 -279 -75h-390v1076z" />
    <glyph glyph-name="uni0433" unicode="&#x433;" horiz-adv-x="851" 
d="M178 1031v-1031h-49v1076h669v-45h-620z" />
    <glyph glyph-name="uni0434" unicode="&#x434;" horiz-adv-x="1178" 
d="M918 1031h-586q-23 -386 -43 -588q-30 -307 -113 -395v-3h742v986zM24 -285v330h83q103 68 135 404q28 307 44 627h682v-1031h179v-330h-49v285h-1026v-285h-48z" />
    <glyph glyph-name="uni0435" unicode="&#x435;" horiz-adv-x="1076" 
d="M248 918q-114 -127 -123 -337h825q0 207 -112 336q-113 129 -296 129q-180 0 -294 -128zM986 299q-28 -140 -141 -225q-119 -90 -295 -90q-219 0 -346 146q-130 148 -130 408q0 250 128 402t340 152q205 0 332 -143q126 -143 126 -375v-38h-876v-2q0 -237 117 -372
q115 -132 310 -132q156 0 261 78q98 72 123 191h51z" />
    <glyph glyph-name="uni0436" unicode="&#x436;" horiz-adv-x="1383" 
d="M1355 0h-73l-566 539h-3v-539h-49v539h-2l-566 -539h-70l588 559l-560 517h70l538 -498h2v498h49v-498h3l537 498h70l-559 -515z" />
    <glyph glyph-name="uni0437" unicode="&#x437;" horiz-adv-x="926" 
d="M195 63q-104 77 -131 209h49q25 -107 114 -173q99 -73 248 -73q148 0 236 68q90 70 90 190q0 122 -94 187q-88 60 -246 60h-176v45h176q141 0 223 65q80 64 80 172q0 105 -78 168q-79 63 -211 63q-142 0 -234 -75q-84 -69 -110 -184h-49q27 134 121 215q105 90 271 90
q157 0 248 -75t91 -203q0 -98 -66 -168q-63 -66 -162 -85v-4q113 -12 184 -76q81 -73 81 -191q0 -147 -104 -229q-100 -79 -271 -79q-170 0 -280 83z" />
    <glyph glyph-name="uni0438" unicode="&#x438;" horiz-adv-x="1086" 
d="M129 0v1076h49v-997h3l725 997h49v-1076h-49v996h-3l-725 -996h-49z" />
    <glyph glyph-name="uni0439" unicode="&#x439;" horiz-adv-x="1086" 
d="M353 1490q0 -93 57 -145q56 -51 155 -51q98 0 154 52q57 52 57 144h47q0 -111 -69 -174t-189 -63q-121 0 -190 63t-69 174h47zM129 0v1076h49v-997h3l725 997h49v-1076h-49v996h-3l-725 -996h-49z" />
    <glyph glyph-name="uni043A" unicode="&#x43a;" horiz-adv-x="924" 
d="M897 0h-75l-641 539h-3v-539h-49v1076h49v-498h3l612 498h72l-632 -517z" />
    <glyph glyph-name="uni043B" unicode="&#x43b;" horiz-adv-x="1083" 
d="M247 127q-55 -136 -170 -136q-19 0 -38 5q-19 4 -16 4v47q0 -9 54 -9q85 0 129 119q34 93 51 292q24 258 42 627h656v-1076h-49v1031h-561q-25 -438 -40 -588q-20 -219 -58 -316z" />
    <glyph glyph-name="uni043C" unicode="&#x43c;" horiz-adv-x="1360" 
d="M129 0v1076h54l497 -1013h3l492 1013h54v-1076h-49v976h-3l-477 -974h-41l-478 974h-3v-976h-49z" />
    <glyph glyph-name="uni043D" unicode="&#x43d;" horiz-adv-x="1075" 
d="M895 535h-717v-535h-49v1076h49v-496h717v496h50v-1076h-50v535z" />
    <glyph glyph-name="uni043E" unicode="&#x43e;" horiz-adv-x="1098" 
d="M205 134q-131 151 -131 404t131 405q130 149 343 149t343 -149q131 -152 131 -405t-131 -404q-130 -150 -343 -150q-214 0 -343 150zM856 168q117 138 117 370q0 233 -117 371q-116 137 -308 137t-307 -137q-117 -138 -117 -371t117 -370q115 -137 307 -137t308 137z" />
    <glyph glyph-name="uni043F" unicode="&#x43f;" horiz-adv-x="1065" 
d="M885 1031h-707v-1031h-49v1076h806v-1076h-50v1031z" />
    <glyph glyph-name="uni0440" unicode="&#x440;" horiz-adv-x="1126" 
d="M924 938q126 -154 126 -400q0 -247 -126 -400q-126 -154 -328 -154q-155 0 -272 97q-111 92 -144 234h-2v-655h-49v1416h46v-321h2q34 145 146 239q117 98 273 98q201 0 328 -154zM888 172q113 140 113 365q0 226 -113 367q-114 142 -295 142q-183 0 -299 -142t-116 -366
t116 -366q116 -141 299 -141q181 0 295 141z" />
    <glyph glyph-name="uni0441" unicode="&#x441;" horiz-adv-x="1025" 
d="M902 781q-32 118 -130 191q-101 74 -238 74q-193 0 -307 -138q-113 -137 -113 -370t113 -370t307 -137q135 0 234 68q97 66 130 177h51q-34 -132 -145 -211q-113 -81 -270 -81q-215 0 -342 150q-127 149 -127 404q0 254 127 404t341 150q158 0 274 -88q113 -85 146 -223
h-51z" />
    <glyph glyph-name="uni0442" unicode="&#x442;" horiz-adv-x="937" 
d="M896 1031h-404v-1031h-49v1031h-404v45h857v-45z" />
    <glyph glyph-name="uni0443" unicode="&#x443;" horiz-adv-x="927" 
d="M149 -334v47q23 -9 53 -9q70 0 116 47q45 45 89 158l28 72l-415 1095h54l387 -1029h2l388 1029h54l-417 -1101q-74 -195 -130 -256q-56 -62 -162 -62q-26 0 -47 9z" />
    <glyph glyph-name="uni0444" unicode="&#x444;" horiz-adv-x="1364" 
d="M657 1043q-243 -7 -387 -141q-147 -137 -147 -368q0 -230 147 -367q144 -133 387 -141v1017zM1091 902q-143 134 -385 141v-1017q242 8 385 142q147 137 147 367t-147 367zM657 -20q-267 8 -423 153q-160 149 -160 401q0 253 160 402q156 145 423 153v383h49v-383
q267 -8 423 -153q159 -148 159 -401q0 -252 -160 -401q-156 -146 -422 -154v-373h-49v373z" />
    <glyph glyph-name="uni0445" unicode="&#x445;" horiz-adv-x="889" 
d="M443 506l-370 -506h-61l403 548l-402 528h62l369 -489h2l369 489h62l-402 -527l401 -549h-60l-370 506h-3z" />
    <glyph glyph-name="uni0446" unicode="&#x446;" horiz-adv-x="1145" 
d="M1065 -285v285h-936v1076h49v-1031h707v1031h49v-1031h179v-330h-48z" />
    <glyph glyph-name="uni0447" unicode="&#x447;" horiz-adv-x="990" 
d="M810 0v558h-2q-115 -146 -331 -146q-177 0 -279 108q-99 104 -99 278v278h49v-265q0 -163 87 -257q87 -96 242 -96q108 0 199 50q87 47 134 125v443h49v-1076h-49z" />
    <glyph glyph-name="uni0448" unicode="&#x448;" horiz-adv-x="1562" 
d="M129 1076h49v-1031h577v1031h50v-1031h577v1031h49v-1076h-1302v1076z" />
    <glyph glyph-name="uni0449" unicode="&#x449;" horiz-adv-x="1642" 
d="M1562 -285v285h-1433v1076h49v-1031h577v1031h50v-1031h577v1031h49v-1031h180v-330h-49z" />
    <glyph glyph-name="uni044A" unicode="&#x44a;" horiz-adv-x="1105" 
d="M329 0v1031h-290v45h339v-408h295q165 0 263 -90q98 -91 98 -244t-98 -243q-98 -91 -263 -91h-344zM378 622v-577h295q142 0 227 79q84 78 84 210q0 131 -85 210q-84 78 -226 78h-295z" />
    <glyph glyph-name="uni044B" unicode="&#x44b;" horiz-adv-x="1223" 
d="M1043 1076h49v-1076h-49v1076zM178 622v-577h295q142 0 227 79q84 78 84 210q0 131 -85 210q-84 78 -226 78h-295zM129 1076h49v-408h295q164 0 262 -90q99 -91 99 -244q0 -152 -99 -243t-262 -91h-344v1076z" />
    <glyph glyph-name="uni044C" unicode="&#x44c;" horiz-adv-x="905" 
d="M178 622v-577h295q142 0 227 79q84 78 84 210q0 131 -85 210q-84 78 -226 78h-295zM129 1076h49v-408h295q164 0 262 -90q99 -91 99 -244q0 -152 -99 -243t-262 -91h-344v1076z" />
    <glyph glyph-name="uni044D" unicode="&#x44d;" horiz-adv-x="1037" 
d="M128 276q33 -110 133 -177q101 -68 236 -68q193 0 304 137q110 135 110 367h-595v45h594q-11 215 -119 340q-111 126 -294 126q-138 0 -241 -74q-101 -73 -133 -191h-50q33 137 149 223q118 88 275 88q214 0 339 -150q125 -149 125 -404t-124 -404q-125 -150 -340 -150
q-157 0 -272 81q-114 80 -148 211h51z" />
    <glyph glyph-name="uni044E" unicode="&#x44e;" horiz-adv-x="1480" 
d="M602 129q-126 150 -127 406h-297v-535h-49v1076h49v-496h299q12 236 137 373t325 137q212 0 338 -150q127 -151 127 -406t-127 -405q-126 -149 -338 -149q-211 0 -337 149zM1240 164q114 139 114 370q0 233 -114 372q-114 137 -301 137t-300 -137q-114 -139 -114 -372
q0 -232 114 -371q113 -137 300 -137t301 138z" />
    <glyph glyph-name="uni044F" unicode="&#x44f;" horiz-adv-x="935" 
d="M755 494v537h-313q-142 0 -226 -73q-85 -74 -85 -197q0 -121 85 -194t226 -73h313zM755 448h-297l-339 -448h-61l342 451q-147 11 -232 94q-86 82 -86 216q0 145 98 230q97 85 262 85h363v-1076h-50v448z" />
    <glyph glyph-name="uni0451" unicode="&#x451;" horiz-adv-x="1076" 
d="M248 918q-114 -127 -123 -337h825q0 207 -112 336q-113 129 -296 129q-180 0 -294 -128zM986 299q-28 -140 -141 -225q-119 -90 -295 -90q-219 0 -346 146q-130 148 -130 408q0 250 128 402t340 152q205 0 332 -143q126 -143 126 -375v-38h-876v-2q0 -237 117 -372
q115 -132 310 -132q156 0 261 78q98 72 123 191h51zM364 1270q-16 16 -16 38t16 37q16 16 39 16q22 0 38 -16q16 -15 16 -37t-16 -38t-38 -16t-39 16zM643 1270q-16 16 -16 38t16 37q16 16 38 16q23 0 39 -16q16 -15 16 -37t-16 -38q-17 -16 -39 -16t-38 16z" />
    <glyph glyph-name="uni0452" unicode="&#x452;" horiz-adv-x="1133" 
d="M1009 -80q0 -140 -67 -203q-63 -59 -196 -59h-29v45h27q113 0 164 50q52 50 52 163v778q0 158 -102 257q-100 95 -252 95q-162 0 -269 -111q-110 -114 -110 -293v-642h-50v1280h-148v44h148v186h50v-186h297v-44h-297v-449h4q39 120 142 191q102 70 237 70
q177 0 287 -105q112 -106 112 -283v-784z" />
    <glyph glyph-name="uni0453" unicode="&#x453;" horiz-adv-x="851" 
d="M403 1254l236 303h63l-246 -303h-53zM178 1031v-1031h-49v1076h669v-45h-620z" />
    <glyph glyph-name="uni0454" unicode="&#x454;" horiz-adv-x="1056" 
d="M968 276q-35 -132 -146 -211q-113 -81 -270 -81q-215 0 -342 150q-127 149 -127 404q0 254 127 404t342 150q157 0 273 -88q113 -86 146 -223h-50q-32 118 -130 191q-102 74 -239 74q-184 0 -296 -126q-111 -125 -122 -340h594v-45h-595q1 -232 113 -367
q113 -137 306 -137q135 0 234 68q97 66 131 177h51z" />
    <glyph glyph-name="uni0455" unicode="&#x455;" horiz-adv-x="925" 
d="M207 1013q104 79 256 79q161 0 263 -89q101 -88 115 -239h-48q-14 126 -99 203q-90 79 -231 79q-129 0 -219 -66q-94 -68 -94 -171q0 -85 58 -135q56 -47 181 -76l167 -40q160 -39 231 -104q71 -66 71 -175q0 -131 -110 -213t-281 -82q-169 0 -283 94q-111 91 -119 226
h50q10 -115 108 -194q100 -80 243 -80q145 0 242 68q100 69 100 178q0 93 -62 148t-205 89l-169 39q-138 33 -203 92q-68 63 -68 164q0 124 106 205z" />
    <glyph glyph-name="uni0456" unicode="&#x456;" horiz-adv-x="355" 
d="M152 1076h49v-1076h-49v1076zM142 1380q-14 14 -14 34t14 34q15 14 35 14t34 -14t14 -34q0 -19 -14 -34q-14 -14 -34 -14t-35 14z" />
    <glyph glyph-name="uni0457" unicode="&#x457;" horiz-adv-x="329" 
d="M140 1076h49v-1076h-49v1076zM-13 1270q-16 16 -16 38t16 37q16 16 39 16q22 0 38 -16q16 -15 16 -37t-16 -38t-38 -16t-39 16zM266 1270q-16 16 -16 38t16 37q16 16 38 16q23 0 39 -16q16 -15 16 -37t-16 -38q-17 -16 -39 -16t-38 16z" />
    <glyph glyph-name="uni0458" unicode="&#x458;" horiz-adv-x="330" 
d="M189 -80q0 -139 -67 -202q-63 -60 -196 -60h-29v45h27q113 0 164 50q52 50 52 163v1160h49v-1156zM130 1380q-14 14 -14 34t14 34q15 14 35 14t34 -14t14 -34q0 -19 -14 -34q-14 -14 -34 -14t-35 14z" />
    <glyph glyph-name="uni0459" unicode="&#x459;" horiz-adv-x="1678" 
d="M247 127q-55 -136 -170 -136q-19 0 -38 5q-19 4 -16 4v47q0 -9 54 -9q85 0 129 119q34 93 51 292q24 258 42 627h656v-408h295q166 0 263 -90t97 -244q0 -153 -97 -243q-98 -91 -263 -91h-344v1031h-561q-25 -438 -40 -588q-20 -219 -58 -316zM955 622v-577h295
q143 0 227 79q84 78 84 210q0 131 -84 210q-85 78 -227 78h-295z" />
    <glyph glyph-name="uni045A" unicode="&#x45a;" horiz-adv-x="1651" 
d="M925 562v-517h295q142 0 226 71q85 70 85 188q0 119 -85 189q-84 69 -226 69h-295zM875 560h-697v-560h-49v1076h49v-471h697v471h50v-469h295q165 0 263 -82q97 -82 97 -221t-97 -222q-98 -82 -263 -82h-345v560z" />
    <glyph glyph-name="uni045B" unicode="&#x45b;" horiz-adv-x="1133" 
d="M231 831q39 120 142 191q102 70 237 70q177 0 287 -105q112 -106 112 -283v-704h-49v694q0 158 -102 257q-100 95 -252 95q-162 0 -269 -111q-110 -114 -110 -293v-642h-50v1280h-148v44h148v186h50v-186h297v-44h-297v-449h4z" />
    <glyph glyph-name="uni045C" unicode="&#x45c;" horiz-adv-x="924" 
d="M470 1254h-53l236 303h63zM897 0h-75l-641 539h-3v-539h-49v1076h49v-498h3l612 498h72l-632 -517z" />
    <glyph glyph-name="uni045E" unicode="&#x45e;" horiz-adv-x="927" 
d="M272 1490q0 -93 57 -145q56 -51 155 -51q98 0 154 52q57 52 57 144h47q0 -111 -69 -174t-189 -63q-121 0 -190 63t-69 174h47zM149 -334v47q23 -9 53 -9q70 0 116 47q45 45 89 158l28 72l-415 1095h54l387 -1029h2l388 1029h54l-417 -1101q-74 -195 -130 -256
q-56 -62 -162 -62q-26 0 -47 9z" />
    <glyph glyph-name="uni045F" unicode="&#x45f;" horiz-adv-x="1065" 
d="M556 0v-285h-49v285h-378v1076h49v-1031h707v1031h50v-1076h-379z" />
    <glyph glyph-name="uni0490" unicode="&#x490;" horiz-adv-x="1011" 
d="M183 0h-50v1443h766v250h49v-297h-765v-1396z" />
    <glyph glyph-name="uni0491" unicode="&#x491;" horiz-adv-x="851" 
d="M178 1031v-1031h-49v1076h621v250h48v-295h-620z" />
    <glyph glyph-name="uni0E3F" unicode="&#xe3f;" horiz-adv-x="1179" 
d="M561 46q217 0 335 89q117 90 117 254q0 161 -124 253q-125 91 -344 91h-17v-687h33zM484 46v687h-320v-687h320zM164 779h320v618h-320v-618zM528 1397v-618h14q179 0 285 82q109 83 109 231q0 142 -105 224q-104 81 -281 81h-22zM691 757q163 -12 266 -112
q106 -102 106 -257q0 -185 -128 -286q-131 -102 -372 -102h-35v-176h-44v176h-370v1443h370v153h44v-153h24q201 0 317 -93q117 -94 117 -256q0 -137 -80 -224q-77 -83 -215 -108v-5z" />
    <glyph glyph-name="uni1E00" unicode="&#x1e00;" horiz-adv-x="1201" 
d="M935 501h-671l-190 -501h-55l555 1443h51l555 -1443h-56zM282 547h635l-315 827h-5zM482 -424q-48 49 -48 117t48 116q49 49 117 49q67 0 116 -49q48 -48 48 -116t-48 -117q-49 -49 -116 -49q-68 0 -117 49zM689 -397q36 37 36 90t-36 90q-37 37 -90 37q-54 0 -90 -37
q-37 -37 -37 -90t37 -90q36 -37 90 -37q53 0 90 37z" />
    <glyph glyph-name="uni1E01" unicode="&#x1e01;" horiz-adv-x="1021" 
d="M738 138q120 107 120 258v182l-381 -29q-338 -26 -338 -263q0 -111 88 -183q87 -73 221 -73q169 0 290 108zM189 69q-100 84 -100 217q0 276 380 306l389 30v97q0 153 -86 240q-87 87 -239 87q-151 0 -244 -74t-114 -209h-47q17 153 126 241t279 88q173 0 274 -99
q100 -100 100 -271v-722h-49v245h-1q-39 -116 -153 -188q-115 -73 -259 -73q-157 0 -256 85zM401 -424q-48 49 -48 117t48 116q49 49 117 49q67 0 116 -49q48 -48 48 -116t-48 -117q-49 -49 -116 -49q-68 0 -117 49zM608 -397q36 37 36 90t-36 90q-37 37 -90 37
q-54 0 -90 -37q-37 -37 -37 -90t37 -90q36 -37 90 -37q53 0 90 37z" />
    <glyph glyph-name="uni1E02" unicode="&#x1e02;" horiz-adv-x="1139" 
d="M457 1575q-19 19 -19 45q0 25 19 44t45 19t45 -19t19 -44q0 -26 -19 -45t-45 -19t-45 19zM123 0v1443h464q188 0 305 -96q117 -97 117 -253q0 -133 -79 -226q-78 -92 -214 -119v-4q161 -16 262 -111q108 -100 108 -255q0 -174 -130 -276q-130 -103 -355 -103h-478z
M173 765h401q174 0 279 89q106 90 106 239q0 137 -103 221q-103 83 -273 83h-410v-632zM599 46q204 0 321 91q117 90 117 243q0 157 -122 248q-124 91 -338 91h-404v-673h426z" />
    <glyph glyph-name="uni1E03" unicode="&#x1e03;" horiz-adv-x="1116" 
d="M109 1638q-19 19 -19 45q0 25 19 44t45 19t45 -19t19 -44q0 -26 -19 -45t-45 -19t-45 19zM334 75q-115 91 -154 244h-2v-319h-49v1506h49v-745h2q38 150 151 240q114 91 267 91q200 0 326 -153q126 -154 126 -400t-126 -401q-126 -154 -325 -154q-151 0 -265 91zM295 903
q-117 -143 -117 -366q0 -222 116 -364q117 -142 299 -142q181 0 295 141q113 141 113 367q0 225 -113 366t-294 141q-182 0 -299 -143z" />
    <glyph glyph-name="uni1E04" unicode="&#x1e04;" horiz-adv-x="1139" 
d="M457 -249q-19 19 -19 45q0 25 19 44t45 19t45 -19t19 -44q0 -26 -19 -45t-45 -19t-45 19zM123 0v1443h464q188 0 305 -96q117 -97 117 -253q0 -133 -79 -226q-78 -92 -214 -119v-4q161 -16 262 -111q108 -100 108 -255q0 -174 -130 -276q-130 -103 -355 -103h-478z
M173 765h401q174 0 279 89q106 90 106 239q0 137 -103 221q-103 83 -273 83h-410v-632zM599 46q204 0 321 91q117 90 117 243q0 157 -122 248q-124 91 -338 91h-404v-673h426z" />
    <glyph glyph-name="uni1E05" unicode="&#x1e05;" horiz-adv-x="1116" 
d="M549 -249q-19 19 -19 45q0 25 19 44t45 19t45 -19t19 -44q0 -26 -19 -45t-45 -19t-45 19zM334 75q-115 91 -154 244h-2v-319h-49v1506h49v-745h2q38 150 151 240q114 91 267 91q200 0 326 -153q126 -154 126 -400t-126 -401q-126 -154 -325 -154q-151 0 -265 91zM295 903
q-117 -143 -117 -366q0 -222 116 -364q117 -142 299 -142q181 0 295 141q113 141 113 367q0 225 -113 366t-294 141q-182 0 -299 -143z" />
    <glyph glyph-name="uni1E06" unicode="&#x1e06;" horiz-adv-x="1139" 
d="M123 0v1443h464q188 0 305 -96q117 -97 117 -253q0 -133 -79 -226q-78 -92 -214 -119v-4q161 -16 262 -111q108 -100 108 -255q0 -174 -130 -276q-130 -103 -355 -103h-478zM173 765h401q174 0 279 89q106 90 106 239q0 137 -103 221q-103 83 -273 83h-410v-632zM599 46
q204 0 321 91q117 90 117 243q0 157 -122 248q-124 91 -338 91h-404v-673h426zM784 -244h-564v43h564v-43z" />
    <glyph glyph-name="uni1E07" unicode="&#x1e07;" horiz-adv-x="1116" 
d="M876 -244h-564v43h564v-43zM334 75q-115 91 -154 244h-2v-319h-49v1506h49v-745h2q38 150 151 240q114 91 267 91q200 0 326 -153q126 -154 126 -400t-126 -401q-126 -154 -325 -154q-151 0 -265 91zM295 903q-117 -143 -117 -366q0 -222 116 -364q117 -142 299 -142
q181 0 295 141q113 141 113 367q0 225 -113 366t-294 141q-182 0 -299 -143z" />
    <glyph glyph-name="uni1E08" unicode="&#x1e08;" horiz-adv-x="1303" 
d="M710 1554h-56l293 287h66zM1200 979q-20 184 -166 310q-148 127 -343 127q-266 0 -423 -184q-156 -185 -156 -500q0 -324 158 -515q157 -190 421 -190q203 0 346 114q145 116 163 299h49q-17 -199 -170 -327q-151 -128 -372 -133l-51 -120q94 0 150 -42t56 -112
q0 -74 -60 -121q-60 -46 -156 -47q-76 0 -122 17v43q45 -17 121 -17q72 0 122 36q49 36 49 88q0 113 -164 113h-50v33l58 130q-274 11 -436 214t-162 537q0 337 170 534q169 197 459 197q215 0 377 -140q162 -141 181 -344h-49z" />
    <glyph glyph-name="uni1E09" unicode="&#x1e09;" horiz-adv-x="1019" 
d="M538 1254h-53l236 303h63zM907 760q-26 126 -127 205q-104 81 -247 81q-193 0 -306 -138q-113 -137 -113 -370t112 -370q113 -137 307 -137q145 0 247 77q100 75 125 199h50q-25 -141 -134 -229q-111 -89 -272 -94l-52 -124q94 0 150 -42t56 -112q0 -74 -60 -121
q-60 -46 -156 -47q-76 0 -122 17v43q45 -17 121 -17q72 0 122 36q49 36 49 88q0 113 -164 113h-50v33l60 134q-203 11 -321 159t-118 394q0 254 127 404t342 150q163 0 281 -94q116 -93 143 -238h-50z" />
    <glyph glyph-name="uni1E0A" unicode="&#x1e0a;" horiz-adv-x="1313" 
d="M507 1575q-19 19 -19 45q0 25 19 44t45 19t45 -19t19 -44q0 -26 -19 -45t-45 -19t-45 19zM559 1443q330 0 510 -188t180 -533q0 -346 -180 -534t-510 -188h-436v1443h436zM174 47h384q308 0 475 175q166 175 166 500q0 324 -166 499q-167 175 -475 175h-384v-1349z" />
    <glyph glyph-name="uni1E0B" unicode="&#x1e0b;" horiz-adv-x="1126" 
d="M925 1638q-19 19 -19 45q0 25 19 44t45 19t45 -19t19 -44q0 -26 -19 -45t-45 -19t-45 19zM193 138q-129 155 -129 400q0 246 129 400q128 154 330 154q156 0 274 -97q114 -93 146 -234h2v745h50v-1506h-46v322h-2q-35 -146 -149 -240q-119 -98 -275 -98q-202 0 -330 154z
M229 905q-115 -141 -115 -366q0 -226 115 -367t296 -141q184 0 302 141q118 142 118 366t-118 366t-302 142q-181 0 -296 -141z" />
    <glyph glyph-name="uni1E0C" unicode="&#x1e0c;" horiz-adv-x="1313" 
d="M507 -249q-19 19 -19 45q0 25 19 44t45 19t45 -19t19 -44q0 -26 -19 -45t-45 -19t-45 19zM559 1443q330 0 510 -188t180 -533q0 -346 -180 -534t-510 -188h-436v1443h436zM174 47h384q308 0 475 175q166 175 166 500q0 324 -166 499q-167 175 -475 175h-384v-1349z" />
    <glyph glyph-name="uni1E0D" unicode="&#x1e0d;" horiz-adv-x="1126" 
d="M506 -249q-19 19 -19 45q0 25 19 44t45 19t45 -19t19 -44q0 -26 -19 -45t-45 -19t-45 19zM193 138q-129 155 -129 400q0 246 129 400q128 154 330 154q156 0 274 -97q114 -93 146 -234h2v745h50v-1506h-46v322h-2q-35 -146 -149 -240q-119 -98 -275 -98q-202 0 -330 154z
M229 905q-115 -141 -115 -366q0 -226 115 -367t296 -141q184 0 302 141q118 142 118 366t-118 366t-302 142q-181 0 -296 -141z" />
    <glyph glyph-name="uni1E0E" unicode="&#x1e0e;" horiz-adv-x="1313" 
d="M834 -244h-564v43h564v-43zM559 1443q330 0 510 -188t180 -533q0 -346 -180 -534t-510 -188h-436v1443h436zM174 47h384q308 0 475 175q166 175 166 500q0 324 -166 499q-167 175 -475 175h-384v-1349z" />
    <glyph glyph-name="uni1E0F" unicode="&#x1e0f;" horiz-adv-x="1126" 
d="M833 -244h-564v43h564v-43zM193 138q-129 155 -129 400q0 246 129 400q128 154 330 154q156 0 274 -97q114 -93 146 -234h2v745h50v-1506h-46v322h-2q-35 -146 -149 -240q-119 -98 -275 -98q-202 0 -330 154zM229 905q-115 -141 -115 -366q0 -226 115 -367t296 -141
q184 0 302 141q118 142 118 366t-118 366t-302 142q-181 0 -296 -141z" />
    <glyph glyph-name="uni1E10" unicode="&#x1e10;" horiz-adv-x="1313" 
d="M437 -480l102 338h57l-113 -338h-46zM559 1443q330 0 510 -188t180 -533q0 -346 -180 -534t-510 -188h-436v1443h436zM174 47h384q308 0 475 175q166 175 166 500q0 324 -166 499q-167 175 -475 175h-384v-1349z" />
    <glyph glyph-name="uni1E11" unicode="&#x1e11;" horiz-adv-x="1126" 
d="M436 -480l102 338h57l-113 -338h-46zM193 138q-129 155 -129 400q0 246 129 400q128 154 330 154q156 0 274 -97q114 -93 146 -234h2v745h50v-1506h-46v322h-2q-35 -146 -149 -240q-119 -98 -275 -98q-202 0 -330 154zM229 905q-115 -141 -115 -366q0 -226 115 -367
t296 -141q184 0 302 141q118 142 118 366t-118 366t-302 142q-181 0 -296 -141z" />
    <glyph glyph-name="uni1E12" unicode="&#x1e12;" horiz-adv-x="1313" 
d="M559 1443q330 0 510 -188t180 -533q0 -346 -180 -534t-510 -188h-436v1443h436zM174 47h384q308 0 475 175q166 175 166 500q0 324 -166 499q-167 175 -475 175h-384v-1349zM575 -141l266 -287h-59l-229 249h-2l-229 -249h-59l266 287h46z" />
    <glyph glyph-name="uni1E13" unicode="&#x1e13;" horiz-adv-x="1126" 
d="M193 138q-129 155 -129 400q0 246 129 400q128 154 330 154q156 0 274 -97q114 -93 146 -234h2v745h50v-1506h-46v322h-2q-35 -146 -149 -240q-119 -98 -275 -98q-202 0 -330 154zM229 905q-115 -141 -115 -366q0 -226 115 -367t296 -141q184 0 302 141q118 142 118 366
t-118 366t-302 142q-181 0 -296 -141zM574 -141l266 -287h-59l-229 249h-2l-229 -249h-59l266 287h46z" />
    <glyph glyph-name="uni1E14" unicode="&#x1e14;" horiz-adv-x="1050" 
d="M254 1659h564v-43h-564v43zM524 1755l-221 202h63l214 -202h-56zM949 0h-826v1443h826v-47h-776v-632h740v-46h-740v-671h776v-47z" />
    <glyph glyph-name="uni1E15" unicode="&#x1e15;" horiz-adv-x="1056" 
d="M238 918q-114 -127 -123 -337h825q0 207 -112 336q-113 129 -296 129q-180 0 -294 -128zM976 299q-28 -140 -141 -225q-119 -90 -295 -90q-219 0 -346 146q-130 148 -130 408q0 250 128 402t340 152q205 0 332 -143q126 -143 126 -375v-38h-876v-2q0 -237 117 -372
q115 -132 310 -132q156 0 261 78q98 72 123 191h51zM532 1506l-257 307h59l250 -307h-52zM817 1305h-584v43h584v-43z" />
    <glyph glyph-name="uni1E16" unicode="&#x1e16;" horiz-adv-x="1050" 
d="M254 1616v43h564v-43h-564zM706 1957h63l-221 -202h-56zM949 0h-826v1443h826v-47h-776v-632h740v-46h-740v-671h776v-47z" />
    <glyph glyph-name="uni1E17" unicode="&#x1e17;" horiz-adv-x="1056" 
d="M238 918q-114 -127 -123 -337h825q0 207 -112 336q-113 129 -296 129q-180 0 -294 -128zM976 299q-28 -140 -141 -225q-119 -90 -295 -90q-219 0 -346 146q-130 148 -130 408q0 250 128 402t340 152q205 0 332 -143q126 -143 126 -375v-38h-876v-2q0 -237 117 -372
q115 -132 310 -132q156 0 261 78q98 72 123 191h51zM730 1813h59l-257 -307h-52zM817 1305h-584v43h584v-43z" />
    <glyph glyph-name="uni1E18" unicode="&#x1e18;" horiz-adv-x="1050" 
d="M949 0h-826v1443h826v-47h-776v-632h740v-46h-740v-671h776v-47zM559 -141l266 -287h-59l-229 249h-2l-229 -249h-59l266 287h46z" />
    <glyph glyph-name="uni1E19" unicode="&#x1e19;" horiz-adv-x="1056" 
d="M238 918q-114 -127 -123 -337h825q0 207 -112 336q-113 129 -296 129q-180 0 -294 -128zM976 299q-28 -140 -141 -225q-119 -90 -295 -90q-219 0 -346 146q-130 148 -130 408q0 250 128 402t340 152q205 0 332 -143q126 -143 126 -375v-38h-876v-2q0 -237 117 -372
q115 -132 310 -132q156 0 261 78q98 72 123 191h51zM563 -141l266 -287h-59l-229 249h-2l-229 -249h-59l266 287h46z" />
    <glyph glyph-name="uni1E1A" unicode="&#x1e1a;" horiz-adv-x="1050" 
d="M526 -268q-78 84 -127 84q-97 0 -97 -158h-45q0 92 35 145q37 56 107 56q69 0 147 -83q78 -84 127 -84q97 0 97 158h45q0 -93 -35 -146q-37 -56 -107 -56q-69 0 -147 84zM949 0h-826v1443h826v-47h-776v-632h740v-46h-740v-671h776v-47z" />
    <glyph glyph-name="uni1E1B" unicode="&#x1e1b;" horiz-adv-x="1056" 
d="M530 -268q-78 84 -127 84q-97 0 -97 -158h-45q0 92 35 145q37 56 107 56q69 0 147 -83q78 -84 127 -84q97 0 97 158h45q0 -93 -35 -146q-37 -56 -107 -56q-69 0 -147 84zM238 918q-114 -127 -123 -337h825q0 207 -112 336q-113 129 -296 129q-180 0 -294 -128zM976 299
q-28 -140 -141 -225q-119 -90 -295 -90q-219 0 -346 146q-130 148 -130 408q0 250 128 402t340 152q205 0 332 -143q126 -143 126 -375v-38h-876v-2q0 -237 117 -372q115 -132 310 -132q156 0 261 78q98 72 123 191h51z" />
    <glyph glyph-name="uni1E1C" unicode="&#x1e1c;" horiz-adv-x="1050" 
d="M793 1771q0 -99 -73 -159q-70 -58 -184 -58t-184 58q-73 60 -73 159h45q0 -75 58 -125q59 -50 154 -50t154 50q58 50 58 125h45zM173 1396v-632h740v-46h-740v-671h776v-47h-390l-59 -140q94 0 150 -42t56 -112q0 -74 -60 -121q-60 -46 -156 -47q-76 0 -122 17v43
q45 -17 121 -17q72 0 122 36q49 36 49 88q0 113 -164 113h-50v33l66 149h-389v1443h826v-47h-776z" />
    <glyph glyph-name="uni1E1D" unicode="&#x1e1d;" horiz-adv-x="1056" 
d="M790 1490q0 -112 -73 -176q-71 -61 -185 -61t-184 61q-74 64 -74 176h45q0 -88 58 -141t155 -53t155 53t58 141h45zM940 581q0 207 -112 336q-113 129 -296 129q-180 0 -294 -128q-114 -127 -123 -337h825zM114 536v-2q0 -237 117 -372q115 -132 310 -132q156 0 261 78
q98 72 123 191h51q-27 -136 -136 -222q-114 -89 -284 -93l-52 -124q94 0 150 -42t56 -112q0 -74 -60 -121q-60 -46 -156 -47q-76 0 -122 17v43q45 -17 121 -17q72 0 122 36q49 36 49 88q0 113 -164 113h-50v33l60 134q-206 11 -325 155q-121 147 -121 398q0 250 128 402
t340 152q205 0 332 -143q126 -143 126 -375v-38h-876z" />
    <glyph glyph-name="uni1E1E" unicode="&#x1e1e;" horiz-adv-x="1020" 
d="M486 1575q-19 19 -19 45q0 25 19 44t45 19t45 -19t19 -44q0 -26 -19 -45t-45 -19t-45 19zM123 0v1443h817v-47h-767v-634h706v-47h-706v-715h-50z" />
    <glyph glyph-name="uni1E1F" unicode="&#x1e1f;" horiz-adv-x="509" 
d="M259 1602q-19 19 -19 45q0 25 19 44t45 19t45 -19t19 -44q0 -26 -19 -45t-45 -19t-45 19zM169 1031h-150v45h150v169q0 240 223 240q47 0 74 -10v-46q-30 10 -73 10q-174 0 -174 -201v-162h237v-45h-237v-1031h-50v1031z" />
    <glyph glyph-name="uni1E20" unicode="&#x1e20;" horiz-adv-x="1332" 
d="M1258 564q0 -272 -153 -428q-154 -156 -421 -156q-276 0 -449 209q-173 208 -173 542q0 329 171 531q171 201 451 201q213 0 369 -118q155 -118 195 -309h-49q-42 172 -183 276t-332 104q-258 0 -415 -188t-157 -497q0 -313 159 -509q159 -195 413 -195q244 0 385 143
q140 143 140 392v100h-531v46h580v-144zM966 1616h-564v43h564v-43z" />
    <glyph glyph-name="uni1E21" unicode="&#x1e21;" horiz-adv-x="1106" 
d="M843 1305h-584v43h584v-43zM820 172q116 142 116 366t-116 366t-300 142q-181 0 -293 -141q-113 -141 -113 -368q0 -225 113 -365q112 -141 293 -141q184 0 300 141zM263 -289q-109 63 -133 168h53q21 -83 117 -134q99 -53 244 -53q175 0 282 81q110 83 110 225v318h-2
q-33 -142 -144 -234q-117 -97 -272 -97q-202 0 -328 154q-126 153 -126 399t127 400q126 154 327 154q156 0 273 -98q111 -93 146 -239h2v321h46v-1076q0 -165 -125 -261q-121 -93 -319 -93q-167 0 -278 65z" />
    <glyph glyph-name="uni1E22" unicode="&#x1e22;" horiz-adv-x="1296" 
d="M1121 0v718h-948v-718h-50v1443h50v-678h948v678h50v-1443h-50zM602 1575q-19 19 -19 45q0 25 19 44t45 19t45 -19t19 -44q0 -26 -19 -45t-45 -19t-45 19z" />
    <glyph glyph-name="uni1E23" unicode="&#x1e23;" horiz-adv-x="1075" 
d="M129 1506h49v-684h2q35 120 139 195q105 75 244 75q178 0 288 -108q110 -109 110 -289v-695h-50v693q0 163 -98 259q-97 94 -256 94q-166 0 -272 -112q-107 -112 -107 -289v-645h-49v1506zM109 1638q-19 19 -19 45q0 25 19 44t45 19t45 -19t19 -44q0 -26 -19 -45t-45 -19
t-45 19z" />
    <glyph glyph-name="uni1E24" unicode="&#x1e24;" horiz-adv-x="1296" 
d="M1121 0v718h-948v-718h-50v1443h50v-678h948v678h50v-1443h-50zM602 -249q-19 19 -19 45q0 25 19 44t45 19t45 -19t19 -44q0 -26 -19 -45t-45 -19t-45 19z" />
    <glyph glyph-name="uni1E25" unicode="&#x1e25;" horiz-adv-x="1075" 
d="M129 1506h49v-684h2q35 120 139 195q105 75 244 75q178 0 288 -108q110 -109 110 -289v-695h-50v693q0 163 -98 259q-97 94 -256 94q-166 0 -272 -112q-107 -112 -107 -289v-645h-49v1506zM498 -249q-19 19 -19 45q0 25 19 44t45 19t45 -19t19 -44q0 -26 -19 -45t-45 -19
t-45 19z" />
    <glyph glyph-name="uni1E26" unicode="&#x1e26;" horiz-adv-x="1296" 
d="M1121 0v718h-948v-718h-50v1443h50v-678h948v678h50v-1443h-50zM469 1572q-16 16 -16 38t16 37q16 16 39 16q22 0 38 -16q16 -15 16 -37t-16 -38t-38 -16t-39 16zM748 1572q-16 16 -16 38t16 37q16 16 38 16q23 0 39 -16q16 -15 16 -37t-16 -38q-17 -16 -39 -16t-38 16z
" />
    <glyph glyph-name="uni1E27" unicode="&#x1e27;" horiz-adv-x="1075" 
d="M130 1506h49v-684h2q35 120 139 195q105 75 244 75q178 0 288 -108q110 -109 110 -289v-695h-50v693q0 163 -98 259q-97 94 -256 94q-166 0 -272 -112q-107 -112 -107 -289v-645h-49v1506zM-23 1635q-16 16 -16 38t16 37q16 16 39 16q22 0 38 -16q16 -15 16 -37t-16 -38
t-38 -16t-39 16zM256 1635q-16 16 -16 38t16 37q16 16 38 16q23 0 39 -16q16 -15 16 -37t-16 -38q-17 -16 -39 -16t-38 16z" />
    <glyph glyph-name="uni1E28" unicode="&#x1e28;" horiz-adv-x="1296" 
d="M1172 1443v-1443h-50v718h-948v-718h-2l-59 -140q94 0 150 -42t56 -112q0 -74 -60 -121q-60 -46 -156 -47q-76 0 -122 17v43q45 -17 121 -17q72 0 122 36q49 36 49 88q0 113 -164 113h-50v33l66 149h-1v1443h50v-678h948v678h50z" />
    <glyph glyph-name="uni1E29" unicode="&#x1e29;" horiz-adv-x="1075" 
d="M181 822q35 120 139 195q105 75 244 75q178 0 288 -108q110 -109 110 -289v-695h-50v693q0 163 -98 259q-97 94 -256 94q-166 0 -272 -112q-107 -112 -107 -289v-645h-1l-59 -140q94 0 150 -42t56 -112q0 -74 -60 -121q-60 -46 -156 -47q-76 0 -122 17v43q45 -17 121 -17
q72 0 122 36q49 36 49 88q0 113 -164 113h-50v33l66 149h-1v1506h49v-684h2z" />
    <glyph glyph-name="uni1E2A" unicode="&#x1e2a;" horiz-adv-x="1296" 
d="M435 -144q0 -75 58 -125q59 -50 154 -50t154 50q58 50 58 125h45q0 -99 -73 -159q-70 -58 -184 -58t-184 58q-73 60 -73 159h45zM1121 0v718h-948v-718h-50v1443h50v-678h948v678h50v-1443h-50z" />
    </font>
</defs>
</svg>
